<?xml version="1.0" encoding="UTF-8" standalone="no"?>
<!-- Created with Inkscape (http://www.inkscape.org/) -->

<svg
   xmlns:dc="http://purl.org/dc/elements/1.1/"
   xmlns:cc="http://creativecommons.org/ns#"
   xmlns:rdf="http://www.w3.org/1999/02/22-rdf-syntax-ns#"
   xmlns:svg="http://www.w3.org/2000/svg"
   xmlns="http://www.w3.org/2000/svg"
   xmlns:sodipodi="http://sodipodi.sourceforge.net/DTD/sodipodi-0.dtd"
   xmlns:inkscape="http://www.inkscape.org/namespaces/inkscape"
   id="svg8"
   version="1.1"
   viewBox="0 0 346 196"
   height="196mm"
   width="346mm"
   inkscape:version="0.92.1 r15371"
   sodipodi:docname="logo.svg">
  <sodipodi:namedview
     inkscape:window-maximized="1"
     inkscape:window-y="-8"
     inkscape:window-x="-8"
     inkscape:window-height="1017"
     inkscape:window-width="1920"
     showgrid="false"
     inkscape:current-layer="layer2"
     inkscape:document-units="mm"
     inkscape:cy="364.52621"
     inkscape:cx="735.64326"
     inkscape:zoom="1"
     inkscape:pageshadow="2"
     inkscape:pageopacity="0.0"
     borderopacity="1.0"
     bordercolor="#666666"
     pagecolor="#ffffff"
     id="base"
     inkscape:snap-text-baseline="false">
    <inkscape:grid
       type="xygrid"
       id="grid1445" />
  </sodipodi:namedview>
  <defs
     id="defs2" />
  <metadata
     id="metadata5">
    <rdf:RDF>
      <cc:Work
         rdf:about="">
        <dc:format>image/svg+xml</dc:format>
        <dc:type
           rdf:resource="http://purl.org/dc/dcmitype/StillImage" />
        <dc:title />
      </cc:Work>
    </rdf:RDF>
  </metadata>
  <g
     inkscape:label="logo"
     id="layer2"
     inkscape:groupmode="layer"
     style="display:inline"
     transform="translate(0,-14)">
    <path
       style="fill:#008dc0;fill-opacity:1;stroke:none;stroke-width:0.26458332px;stroke-linecap:butt;stroke-linejoin:miter;stroke-opacity:1"
       d="m 76.729165,20.558435 -0.111622,2.546614 H 75.30703 v 2.116667 h 1.217496 l -4.822444,109.901294 -2.38125,-2.11666 V 120.57093 H 44.449999 v -1.85208 h -2.116667 l -5.556249,-3.175 -5.55625,3.175 h -2.116667 v 1.85208 H 4.2333333 V 157.6126 H 14.963427 c -0.01232,-0.73324 -0.02427,-1.35053 -0.03462,-1.55546 -0.0358,-0.70887 0.895036,-1.09348 0.895036,-1.09348 l 7.160286,-1.23765 c 0,0 0.203096,-0.99711 0.453719,-1.74201 0.250621,-0.74491 0.954981,-1.93425 0.954981,-1.93425 0,0 -3.15101,-4.16889 -3.962549,-5.21415 -0.811537,-1.04526 0.04806,-1.83865 0.04806,-1.83865 0,0 5.275036,-5.50239 6.182052,-6.28334 0.907016,-0.78095 1.646927,-0.18035 1.646927,-0.18035 l 5.465815,4.2292 c 0,0 0.835285,-0.49287 1.420069,-0.74517 0.584788,-0.2523 2.005047,-0.68471 2.005047,-0.68471 0,0 0.775497,-5.65859 0.942578,-6.90811 0.167079,-1.24951 1.313098,-1.11776 1.313098,-1.11776 0,0 6.074648,-0.15606 7.948351,-0.15606 1.873705,0 1.980758,1.50171 1.980758,1.50171 l 0.943094,6.71639 c 0,0 1.193353,0.32413 1.790073,0.55242 0.59672,0.22827 1.5875,0.90124 1.5875,0.90124 0,0 3.914404,-3.13547 5.072041,-4.07262 1.15764,-0.93715 2.088245,-0.0243 2.088245,-0.0243 0,0 2.482308,2.24676 3.043225,2.78743 0.560916,0.54065 2.769015,3.00345 3.3538,3.72432 0.584787,0.72088 -0.203087,1.64641 -0.203087,1.64641 l -4.057634,5.33404 c 0,0 0.537374,0.93756 0.931209,1.74253 0.393835,0.80498 0.501261,1.83813 0.501261,1.83813 0,0 6.181908,0.82891 7.100859,1.02113 0.918948,0.19224 0.85938,1.26142 0.85938,1.26142 l -0.01241,1.53169 H 83.872915 L 80.039042,25.221716 h 1.18804 v -2.116667 h -1.249019 l -0.0739,-2.546614 z"
       id="path1447"
       inkscape:connector-curvature="0" />
    <path
       style="display:inline;fill:#008dc0;fill-opacity:1;stroke:none;stroke-width:0.26458332px;stroke-linecap:butt;stroke-linejoin:miter;stroke-opacity:1"
       d="m 4.3160156,161.61442 c 0,0 -0.082683,7.29258 -0.1322917,8.26823 -0.049609,0.97565 1.2402343,1.50482 1.2402343,1.50482 l 9.9218748,1.70325 c 0,0 0.281119,1.37253 0.628385,2.39779 0.347265,1.02526 1.322917,2.66237 1.322917,2.66237 0,0 -4.365625,5.73815 -5.490104,7.17682 -1.124475,1.43867 0.06615,2.53008 0.06615,2.53008 0,0 7.309114,7.5737 8.565885,8.64857 1.256771,1.07487 2.282031,0.24804 2.282031,0.24804 l 7.573698,-5.82083 c 0,0 1.157552,0.678 1.967838,1.02526 0.810287,0.34727 2.778125,0.94258 2.778125,0.94258 0,0 1.07487,7.78867 1.306381,9.50846 0.23151,1.71979 1.81901,1.53789 1.81901,1.53789 0,0 8.417057,0.21498 11.013281,0.21498 2.596224,0 2.745052,-2.06706 2.745052,-2.06706 l 1.30638,-9.24388 c 0,0 1.653646,-0.44648 2.480469,-0.76068 0.826823,-0.31419 2.199349,-1.24023 2.199349,-1.24023 0,0 5.423958,4.31601 7.027995,5.60586 1.604036,1.28987 2.89388,0.0331 2.89388,0.0331 0,0 3.439583,-3.09232 4.216797,-3.83646 0.777213,-0.74414 3.836458,-4.13411 4.646744,-5.1263 0.810287,-0.99219 -0.281119,-2.2655 -0.281119,-2.2655 l -5.622396,-7.34218 c 0,0 0.744141,-1.28985 1.289844,-2.39779 0.545703,-1.10794 0.694531,-2.53008 0.694531,-2.53008 0,0 8.565885,-1.14101 9.839192,-1.4056 1.273305,-0.26458 1.190625,-1.73632 1.190625,-1.73632 l -0.06614,-8.16901 -26.717749,-0.0222 a 13.236524,12.675257 0 0 1 0.363802,2.88561 13.236524,12.675257 0 0 1 -13.236401,12.6752 13.236524,12.675257 0 0 1 -13.236402,-12.6752 13.236524,12.675257 0 0 1 0.367421,-2.90731 z"
       id="path1455"
       inkscape:connector-curvature="0" />
    <circle
       style="display:inline;fill:#008dc0;fill-opacity:1;stroke:none;stroke-width:0.27064413"
       id="path1473"
       cx="44.103405"
       cy="164.21642"
       r="8.4204693" />
    <path
       style="fill:#008dc0;fill-opacity:1;stroke:none;stroke-width:0.26458332px;stroke-linecap:butt;stroke-linejoin:miter;stroke-opacity:1"
       d="m 8.9958333,118.52031 18.4332887,-0.164 v -1.44994 l 3.554684,-0.0702 5.846522,-3.29744 5.869908,3.41437 3.337263,-0.0865 v 1.5875 h 18.520834 v -4.7625 L 48.220312,107.1101 H 25.466146 l -16.4372397,6.61458 z"
       id="path1477"
       inkscape:connector-curvature="0" />
    <path
       style="fill:#008dc0;fill-opacity:1;stroke:none;stroke-width:0.26458332px;stroke-linecap:butt;stroke-linejoin:miter;stroke-opacity:1"
       d="m 27.639597,105.42381 0.04677,-3.92886 9.307662,-4.817538 9.027027,4.770768 -0.09354,4.0224 z"
       id="path1479"
       inkscape:connector-curvature="0" />
    <text
       xml:space="preserve"
       style="font-style:normal;font-weight:normal;font-size:10.58333302px;line-height:1.25;font-family:sans-serif;letter-spacing:0px;word-spacing:0px;fill:#000000;fill-opacity:1;stroke:none;stroke-width:0.26458332"
       x="18.708866"
       y="3.0799367"
       id="text1483"><tspan
         sodipodi:role="line"
         id="tspan1481"
         x="18.708866"
         y="12.443706"
         style="stroke-width:0.26458332" /></text>
    <g
       aria-label="DevOps Day"
       style="font-style:normal;font-variant:normal;font-weight:normal;font-stretch:normal;font-size:49.38889313px;line-height:0px;font-family:Ubuntu;-inkscape-font-specification:Ubuntu;letter-spacing:-3.9581666px;word-spacing:0px;fill:#008dc0;fill-opacity:1;stroke:none;stroke-width:0.26458332"
       id="text4498">
      <path
         d="m 102.01099,65.797008 q 0.54328,0.04939 1.23472,0.09878 0.74083,0 1.72861,0 5.7785,0 8.54428,-2.913944 2.81517,-2.913945 2.81517,-8.05039 0,-5.383389 -2.667,-8.149167 -2.667,-2.765778 -8.4455,-2.765778 -0.79023,0 -1.62984,0.04939 -0.83961,0 -1.58044,0.09878 z m 22.27439,-10.865557 q 0,4.445 -1.38289,7.754056 -1.38289,3.309056 -3.95111,5.482167 -2.51884,2.173112 -6.17361,3.259667 -3.65478,1.086556 -8.19856,1.086556 -2.07433,0 -4.840111,-0.197556 -2.765778,-0.148166 -5.432778,-0.691444 V 38.287394 q 2.667,-0.493889 5.531556,-0.642056 2.913943,-0.197555 4.988283,-0.197555 4.39561,0 7.95161,0.987778 3.60539,0.987778 6.17361,3.1115 2.56822,2.123722 3.95111,5.432778 1.38289,3.309056 1.38289,7.951612 z"
         style="font-style:normal;font-variant:normal;font-weight:bold;font-stretch:normal;font-size:49.38889313px;line-height:0px;font-family:Ubuntu;-inkscape-font-specification:'Ubuntu Bold';letter-spacing:-3.9581666px;fill:#008dc0;fill-opacity:1;stroke-width:0.26458332"
         id="path4496" />
      <path
         d="m 124.98597,59.277674 q 0,-3.457223 1.03717,-6.025445 1.08656,-2.617612 2.81517,-4.346223 1.72861,-1.728611 3.95111,-2.617611 2.27189,-0.889 4.64255,-0.889 5.53156,0 8.74184,3.407833 3.21028,3.358445 3.21028,9.927168 0,0.642055 -0.0494,1.432278 -0.0494,0.740833 -0.0988,1.3335 h -16.69345 q 0.24695,2.271889 2.12373,3.605389 1.87677,1.3335 5.03766,1.3335 2.02495,0 3.95112,-0.345722 1.97555,-0.395111 3.21027,-0.938389 l 0.98778,5.976056 q -0.59267,0.296333 -1.58044,0.592667 -0.98778,0.296333 -2.2225,0.493889 -1.18534,0.246944 -2.56823,0.395111 -1.38289,0.148166 -2.76577,0.148166 -3.50662,0 -6.12423,-1.037166 -2.56822,-1.037167 -4.29683,-2.815167 -1.67922,-1.827389 -2.51883,-4.296834 -0.79023,-2.469445 -0.79023,-5.334 z m 17.28612,-2.815167 q -0.0494,-0.938389 -0.34573,-1.827389 -0.24694,-0.889 -0.83961,-1.580445 -0.54327,-0.691444 -1.43228,-1.135944 -0.83961,-0.4445 -2.12372,-0.4445 -1.23472,0 -2.12372,0.4445 -0.889,0.395111 -1.48167,1.086555 -0.59266,0.691445 -0.93839,1.629834 -0.29633,0.889 -0.4445,1.827389 z"
         style="font-style:normal;font-variant:normal;font-weight:bold;font-stretch:normal;font-size:49.38889313px;line-height:0px;font-family:Ubuntu;-inkscape-font-specification:'Ubuntu Bold';letter-spacing:-3.9581666px;fill:#008dc0;fill-opacity:1;stroke-width:0.26458332"
         id="path4498" />
      <path
         d="m 158.16749,72.069397 q -2.51884,-4.938889 -5.13645,-11.557001 -2.56822,-6.618112 -4.8895,-14.421557 h 7.80345 q 0.49388,1.926167 1.13594,4.198056 0.69144,2.2225 1.38289,4.543778 0.74083,2.271889 1.43228,4.445001 0.74083,2.173111 1.43228,3.951111 0.64205,-1.778 1.38288,-3.951111 0.74084,-2.173112 1.43228,-4.445001 0.74084,-2.321278 1.38289,-4.543778 0.69145,-2.271889 1.18533,-4.198056 h 7.60589 q -2.32127,7.803445 -4.93889,14.421557 -2.56822,6.618112 -5.08705,11.557001 z"
         style="font-style:normal;font-variant:normal;font-weight:bold;font-stretch:normal;font-size:49.38889313px;line-height:0px;font-family:Ubuntu;-inkscape-font-specification:'Ubuntu Bold';letter-spacing:-3.9581666px;fill:#008dc0;fill-opacity:1;stroke-width:0.26458332"
         id="path4500" />
      <path
         d="m 181.21656,54.931451 q 0,2.518834 0.59266,4.543778 0.64206,2.024945 1.77801,3.506612 1.18533,1.432278 2.86455,2.2225 1.67922,0.790222 3.85233,0.790222 2.12373,0 3.80295,-0.790222 1.72861,-0.790222 2.86456,-2.2225 1.18533,-1.481667 1.778,-3.506612 0.64205,-2.024944 0.64205,-4.543778 0,-2.518833 -0.64205,-4.543778 -0.59267,-2.074334 -1.778,-3.506612 -1.13595,-1.481666 -2.86456,-2.271889 -1.67922,-0.790222 -3.80295,-0.790222 -2.17311,0 -3.85233,0.839611 -1.67922,0.790223 -2.86455,2.271889 -1.13595,1.432278 -1.77801,3.506612 -0.59266,2.024944 -0.59266,4.494389 z m 26.12672,0 q 0,4.395612 -1.3335,7.754056 -1.28411,3.309056 -3.556,5.580945 -2.27189,2.2225 -5.43278,3.358445 -3.1115,1.135944 -6.71689,1.135944 -3.50661,0 -6.61811,-1.135944 -3.1115,-1.135945 -5.43278,-3.358445 -2.32127,-2.271889 -3.65477,-5.580945 -1.3335,-3.358444 -1.3335,-7.754056 0,-4.395611 1.38289,-7.704667 1.38288,-3.358445 3.70416,-5.630334 2.37067,-2.271889 5.43278,-3.407834 3.1115,-1.135944 6.51933,-1.135944 3.50662,0 6.61812,1.135944 3.1115,1.135945 5.43277,3.407834 2.32128,2.271889 3.65478,5.630334 1.3335,3.309056 1.3335,7.704667 z"
         style="font-style:normal;font-variant:normal;font-weight:bold;font-stretch:normal;font-size:49.38889313px;line-height:0px;font-family:Ubuntu;-inkscape-font-specification:'Ubuntu Bold';letter-spacing:-3.9581666px;fill:#008dc0;fill-opacity:1;stroke-width:0.26458332"
         id="path4502" />
      <path
         d="m 225.90954,59.277674 q 0,-3.407834 -1.53106,-5.432779 -1.53105,-2.074333 -4.54378,-2.074333 -0.98777,0 -1.82739,0.09878 -0.83961,0.04939 -1.38288,0.148166 v 13.285613 q 0.69144,0.4445 1.778,0.740833 1.13594,0.296333 2.27188,0.296333 5.23523,0 5.23523,-7.062611 z m 7.50711,-0.197556 q 0,3.012723 -0.74083,5.482167 -0.74084,2.469445 -2.17312,4.247445 -1.43227,1.778 -3.556,2.765778 -2.12372,0.987778 -4.8895,0.987778 -1.53105,0 -2.86455,-0.296333 -1.3335,-0.296334 -2.56822,-0.839612 v 9.779001 h -7.35895 V 46.979839 q 0.98778,-0.296333 2.27189,-0.543278 1.28411,-0.296333 2.667,-0.493888 1.43228,-0.197556 2.86456,-0.296334 1.48166,-0.148167 2.81516,-0.148167 3.21028,0 5.72911,0.987778 2.51884,0.938389 4.24745,2.716389 1.72861,1.728612 2.61761,4.247445 0.93839,2.518834 0.93839,5.630334 z"
         style="font-style:normal;font-variant:normal;font-weight:bold;font-stretch:normal;font-size:49.38889313px;line-height:0px;font-family:Ubuntu;-inkscape-font-specification:'Ubuntu Bold';letter-spacing:-3.9581666px;fill:#008dc0;fill-opacity:1;stroke-width:0.26458332"
         id="path4504" />
      <path
         d="m 242.572,66.784785 q 2.02495,0 2.86456,-0.395111 0.83961,-0.395111 0.83961,-1.531055 0,-0.889001 -1.08655,-1.531056 -1.08656,-0.691445 -3.30906,-1.531056 -1.72861,-0.642055 -3.16089,-1.3335 -1.38289,-0.691444 -2.37067,-1.629833 -0.98777,-0.987778 -1.53105,-2.321278 -0.54328,-1.3335 -0.54328,-3.210278 0,-3.654779 2.71639,-5.778501 2.71639,-2.123722 7.45772,-2.123722 2.37067,0 4.54378,0.4445 2.17311,0.395111 3.45722,0.889 l -1.28411,5.729111 q -1.28411,-0.4445 -2.81517,-0.790222 -1.48166,-0.345722 -3.35844,-0.345722 -3.45722,0 -3.45722,1.926167 0,0.4445 0.14816,0.790222 0.14817,0.345722 0.59267,0.691444 0.4445,0.296334 1.18533,0.691445 0.79023,0.345722 1.97556,0.790222 2.42006,0.889 4.0005,1.778 1.58044,0.839612 2.46944,1.876778 0.93839,0.987778 1.28412,2.222501 0.39511,1.234722 0.39511,2.864555 0,3.852334 -2.91395,5.82789 -2.86455,1.975555 -8.14916,1.975555 -3.45723,0 -5.77851,-0.592666 -2.27188,-0.592667 -3.16088,-0.987778 l 1.23472,-5.976056 q 1.87678,0.740833 3.85233,1.185333 1.97556,0.395111 3.90172,0.395111 z"
         style="font-style:normal;font-variant:normal;font-weight:bold;font-stretch:normal;font-size:49.38889313px;line-height:0px;font-family:Ubuntu;-inkscape-font-specification:'Ubuntu Bold';letter-spacing:-3.9581666px;fill:#008dc0;fill-opacity:1;stroke-width:0.26458332"
         id="path4506" />
      <path
         d="m 271.18416,65.797008 q 0.54328,0.04939 1.23472,0.09878 0.74084,0 1.72861,0 5.7785,0 8.54428,-2.913944 2.81517,-2.913945 2.81517,-8.05039 0,-5.383389 -2.667,-8.149167 -2.667,-2.765778 -8.4455,-2.765778 -0.79022,0 -1.62984,0.04939 -0.83961,0 -1.58044,0.09878 z m 22.27439,-10.865557 q 0,4.445 -1.38289,7.754056 -1.38289,3.309056 -3.95111,5.482167 -2.51883,2.173112 -6.17361,3.259667 -3.65478,1.086556 -8.19856,1.086556 -2.07433,0 -4.84011,-0.197556 -2.76578,-0.148166 -5.43278,-0.691444 V 38.287394 q 2.667,-0.493889 5.53156,-0.642056 2.91394,-0.197555 4.98828,-0.197555 4.39561,0 7.95161,0.987778 3.60539,0.987778 6.17361,3.1115 2.56822,2.123722 3.95111,5.432778 1.38289,3.309056 1.38289,7.951612 z"
         style="font-style:normal;font-variant:normal;font-weight:bold;font-stretch:normal;font-size:49.38889313px;line-height:0px;font-family:Ubuntu;-inkscape-font-specification:'Ubuntu Bold';letter-spacing:-3.9581666px;fill:#008dc0;fill-opacity:1;stroke-width:0.26458332"
         id="path4508" />
      <path
         d="m 305.32104,66.932952 q 1.08655,0 2.07433,-0.04939 0.98778,-0.04939 1.58044,-0.148166 v -5.580945 q -0.4445,-0.09878 -1.3335,-0.197556 -0.889,-0.09878 -1.62983,-0.09878 -1.03717,0 -1.97556,0.148167 -0.889,0.09878 -1.58044,0.4445 -0.69144,0.345722 -1.08656,0.938389 -0.39511,0.592667 -0.39511,1.481667 0,1.728611 1.13595,2.420055 1.18533,0.642056 3.21028,0.642056 z m -0.59267,-21.533557 q 3.25967,0 5.43278,0.740833 2.17311,0.740833 3.45722,2.123722 1.3335,1.382889 1.87678,3.358445 0.54328,1.975556 0.54328,4.395612 v 15.310557 q -1.58045,0.345722 -4.39562,0.790222 -2.81516,0.493889 -6.81566,0.493889 -2.51884,0 -4.59317,-0.4445 -2.02495,-0.4445 -3.50661,-1.432278 -1.48167,-1.037167 -2.27189,-2.667 -0.79022,-1.629834 -0.79022,-4.000501 0,-2.271889 0.889,-3.852333 0.93839,-1.580445 2.46944,-2.518834 1.53106,-0.938389 3.50661,-1.3335 1.97556,-0.4445 4.09928,-0.4445 1.43228,0 2.51883,0.148167 1.13595,0.09878 1.82739,0.296333 v -0.691445 q 0,-1.876777 -1.13594,-3.012722 -1.13595,-1.135945 -3.95111,-1.135945 -1.87678,0 -3.70417,0.296334 -1.82739,0.246944 -3.16089,0.740833 l -0.93839,-5.926667 q 0.64206,-0.197556 1.58045,-0.395111 0.98777,-0.246945 2.12372,-0.395111 1.13594,-0.197556 2.37067,-0.296334 1.28411,-0.148166 2.56822,-0.148166 z"
         style="font-style:normal;font-variant:normal;font-weight:bold;font-stretch:normal;font-size:49.38889313px;line-height:0px;font-family:Ubuntu;-inkscape-font-specification:'Ubuntu Bold';letter-spacing:-3.9581666px;fill:#008dc0;fill-opacity:1;stroke-width:0.26458332"
         id="path4510" />
      <path
         d="m 341.12401,46.090839 q -2.2225,7.507112 -4.64256,14.075835 -2.42005,6.568723 -5.28461,12.742334 -1.03717,2.2225 -2.07433,3.753556 -1.03717,1.580445 -2.27189,2.568222 -1.23472,1.037167 -2.81517,1.481667 -1.53105,0.493889 -3.60539,0.493889 -1.72861,0 -3.21028,-0.345722 -1.43227,-0.296333 -2.37066,-0.691445 l 1.28411,-5.877278 q 1.13594,0.395111 2.02494,0.543278 0.889,0.148167 1.87678,0.148167 1.97556,0 3.01272,-1.086556 1.08656,-1.037167 1.82739,-2.913945 -2.51883,-4.938889 -5.03766,-11.063112 -2.51884,-6.173611 -4.74134,-13.82889 h 7.80345 q 0.49389,1.926167 1.13594,4.198056 0.69145,2.2225 1.43228,4.543778 0.74083,2.271889 1.48167,4.445001 0.79022,2.173111 1.48166,3.951111 0.64206,-1.778 1.3335,-3.951111 0.69145,-2.173112 1.3335,-4.445001 0.69145,-2.321278 1.28411,-4.543778 0.64206,-2.271889 1.13595,-4.198056 z"
         style="font-style:normal;font-variant:normal;font-weight:bold;font-stretch:normal;font-size:49.38889313px;line-height:0px;font-family:Ubuntu;-inkscape-font-specification:'Ubuntu Bold';letter-spacing:-3.9581666px;fill:#008dc0;fill-opacity:1;stroke-width:0.26458332"
         id="path4512" />
    </g>
    <path
       style="fill:#008dc0;fill-opacity:1;stroke:none;stroke-width:0.26331857"
       d="M 94.757522,84.563314 V 108.88482 H 338.06669 V 84.563314 Z m 70.626178,5.671487 c 0.75142,0 1.46025,0.121936 2.127,0.365352 0.66675,0.243417 1.24925,0.60819 1.74666,1.095023 0.49742,0.486834 0.88886,1.090044 1.17461,1.809711 0.28575,0.709083 0.4284,1.534932 0.4284,2.476849 0,0.941919 -0.14265,1.77269 -0.4284,2.492356 -0.27517,0.709084 -0.65625,1.306854 -1.14308,1.793688 -0.48684,0.47625 -1.06882,0.8361 -1.74615,1.07952 -0.66675,0.24342 -1.38646,0.36535 -2.15904,0.36535 -0.75142,0 -1.46077,-0.12193 -2.12752,-0.36535 -0.66675,-0.24342 -1.24873,-0.60327 -1.74615,-1.07952 -0.49741,-0.486834 -0.88885,-1.084604 -1.1746,-1.793688 -0.28575,-0.719666 -0.42892,-1.55044 -0.42892,-2.492356 0,-0.941917 0.1486,-1.767766 0.44494,-2.476849 0.29633,-0.719667 0.6932,-1.322877 1.19062,-1.809711 0.508,-0.486833 1.08998,-0.851606 1.74615,-1.095023 0.66675,-0.243416 1.36523,-0.365352 2.09548,-0.365352 z m 32.33911,0 c 0.75142,0 1.46025,0.121936 2.127,0.365352 0.66675,0.243417 1.24925,0.60819 1.74666,1.095023 0.49742,0.486834 0.88886,1.090044 1.17461,1.809711 0.28575,0.709083 0.4284,1.534932 0.4284,2.476849 0,0.941919 -0.14265,1.77269 -0.4284,2.492356 -0.27517,0.709084 -0.65625,1.306854 -1.14308,1.793688 -0.48684,0.47625 -1.06882,0.8361 -1.74615,1.07952 -0.66675,0.24342 -1.38646,0.36535 -2.15904,0.36535 -0.75142,0 -1.46077,-0.12193 -2.12752,-0.36535 -0.66675,-0.24342 -1.24873,-0.60327 -1.74615,-1.07952 -0.49741,-0.486834 -0.88885,-1.084604 -1.1746,-1.793688 -0.28575,-0.719666 -0.42891,-1.55044 -0.42891,-2.492356 0,-0.941917 0.1486,-1.767766 0.44493,-2.476849 0.29633,-0.719667 0.69321,-1.322877 1.19062,-1.809711 0.508,-0.486833 1.08998,-0.851606 1.74615,-1.095023 0.66675,-0.243416 1.36523,-0.365352 2.09548,-0.365352 z m 46.35427,0 c 0.51859,0 0.98458,0.03702 1.39733,0.111104 0.42334,0.0635 0.78319,0.142978 1.07953,0.238228 0.30691,0.08467 0.55519,0.174503 0.74569,0.269753 0.20108,0.09525 0.34424,0.169291 0.42891,0.222208 l -0.71417,1.984375 c -0.33866,-0.179917 -0.73062,-0.333436 -1.17512,-0.460436 -0.43392,-0.137586 -0.91027,-0.20619 -1.42885,-0.20619 -1.15359,0 -1.98928,0.322831 -2.50786,0.968415 -0.508,0.635 -0.76223,1.508228 -0.76223,2.619478 0,0.539752 0.0637,1.031896 0.19069,1.476396 0.127,0.433917 0.31754,0.809564 0.57154,1.127064 0.254,0.3175 0.5714,0.56629 0.9524,0.746207 0.381,0.169333 0.82525,0.253733 1.33325,0.253733 0.27517,0 0.50816,-0.0055 0.69866,-0.01603 0.20109,-0.01058 0.37584,-0.0313 0.524,-0.06304 v -3.82611 h 2.47634 v 5.445144 c -0.29634,0.11642 -0.77269,0.23835 -1.42886,0.36535 -0.65616,0.13759 -1.4657,0.20619 -2.42879,0.20619 -0.8255,0 -1.57679,-0.12685 -2.25412,-0.38085 -0.66675,-0.254 -1.23838,-0.62473 -1.71463,-1.11156 -0.47625,-0.486836 -0.84646,-1.084609 -1.11104,-1.793692 -0.254,-0.709084 -0.38137,-1.518624 -0.38137,-2.428793 0,-0.920748 0.14316,-1.735728 0.42891,-2.444811 0.28575,-0.709083 0.67719,-1.306856 1.17461,-1.79369 0.49741,-0.497416 1.07939,-0.873577 1.74614,-1.127577 0.67734,-0.254 1.39704,-0.380857 2.15904,-0.380857 z m -90.62392,0.127124 c 1.64042,0 2.89965,0.290732 3.77807,0.872815 0.87841,0.5715 1.31774,1.513851 1.31774,2.826184 0,1.322917 -0.44477,2.280542 -1.33377,2.873209 -0.88899,0.582083 -2.15858,0.873334 -3.80958,0.873334 h -0.77825 v 3.682983 h -2.47633 V 90.647696 c 0.53975,-0.105833 1.11137,-0.179877 1.71462,-0.22221 0.60325,-0.04233 1.13242,-0.06356 1.5875,-0.06356 z m 22.67872,0 c 1.651,0 2.91567,0.296169 3.79408,0.888836 0.87842,0.582083 1.31775,1.492332 1.31775,2.730582 0,0.772583 -0.17967,1.402456 -0.5395,1.889289 -0.34925,0.47625 -0.85771,0.851897 -1.52446,1.127064 0.22225,0.275167 0.45525,0.592564 0.69867,0.952397 0.24342,0.34925 0.48185,0.71946 0.71469,1.111044 0.24341,0.381 0.47589,0.783309 0.69814,1.206643 0.22225,0.41275 0.42859,0.8205 0.61909,1.22267 h -2.77813 c -0.20108,-0.35984 -0.40741,-0.72513 -0.61908,-1.09555 -0.20108,-0.37041 -0.41285,-0.730267 -0.6351,-1.079517 -0.21167,-0.34925 -0.42293,-0.677519 -0.63459,-0.984436 -0.21167,-0.3175 -0.42344,-0.60331 -0.63511,-0.85731 h -1.22266 v 4.016813 h -2.47633 V 90.647696 c 0.53975,-0.105833 1.09558,-0.179877 1.66708,-0.22221 0.58208,-0.04233 1.10038,-0.06356 1.55546,-0.06356 z m 77.2666,0 c 1.651,0 2.91567,0.296169 3.79408,0.888836 0.87842,0.582083 1.31775,1.492332 1.31775,2.730582 0,0.772583 -0.17967,1.402456 -0.5395,1.889289 -0.34925,0.47625 -0.85771,0.851897 -1.52446,1.127064 0.22225,0.275167 0.45525,0.592564 0.69867,0.952397 0.24342,0.34925 0.48185,0.71946 0.71469,1.111044 0.24341,0.381 0.47589,0.783309 0.69814,1.206643 0.22225,0.41275 0.42859,0.8205 0.61909,1.22267 h -2.77813 c -0.20108,-0.35984 -0.40741,-0.72513 -0.61908,-1.09555 -0.20108,-0.37041 -0.41285,-0.730267 -0.6351,-1.079517 -0.21167,-0.34925 -0.42292,-0.677519 -0.63459,-0.984436 -0.21167,-0.3175 -0.42344,-0.60331 -0.6351,-0.85731 h -1.22267 v 4.016813 h -2.47633 V 90.647696 c 0.53975,-0.105833 1.09558,-0.179877 1.66708,-0.22221 0.58208,-0.04233 1.10038,-0.06356 1.55546,-0.06356 z m -70.99257,0.127124 h 9.11211 v 2.110984 h -3.31763 v 8.890417 h -2.47685 v -8.890417 h -3.31763 z m 29.92634,0 h 2.36575 c 0.35983,0.762 0.71425,1.544879 1.0635,2.349212 0.34925,0.79375 0.69823,1.635392 1.04748,2.524392 0.35984,0.889 0.72513,1.836272 1.09554,2.841689 0.37042,1.005416 0.76186,2.100768 1.17461,3.286108 h -2.651 c -0.11642,-0.381 -0.24871,-0.77296 -0.39688,-1.17513 l -0.41289,-1.206125 h -4.28605 c -0.13758,0.402167 -0.28023,0.803961 -0.42839,1.206125 -0.13759,0.40217 -0.26496,0.79413 -0.38138,1.17513 h -2.57142 c 0.41275,-1.18534 0.80419,-2.280692 1.17461,-3.286108 0.37042,-1.005417 0.73027,-1.952689 1.07952,-2.841689 0.35983,-0.889 0.70882,-1.730642 1.04748,-2.524392 0.34925,-0.804333 0.70911,-1.587212 1.07952,-2.349212 z m 8.17108,0 h 2.47633 v 8.873877 h 4.87361 v 2.127524 h -7.34994 z m 8.92969,0 h 7.42952 v 2.079459 h -4.95319 v 2.159042 h 4.39767 v 2.031918 h -4.39767 v 2.651001 h 5.31854 v 2.079981 h -7.79487 z m 31.34692,0 h 7.42953 v 2.079459 h -4.95319 v 2.159042 h 4.39767 v 2.031918 h -4.39767 v 2.651001 h 5.31852 v 2.079981 h -7.79486 z m -95.39624,1.920812 c -0.46567,2e-6 -0.87834,0.08984 -1.23817,0.269753 -0.35983,0.169333 -0.66687,0.412687 -0.92087,0.730187 -0.24342,0.306916 -0.43396,0.682564 -0.57155,1.127064 -0.127,0.433916 -0.19068,0.915704 -0.19068,1.444871 0,0.539752 0.0637,1.026461 0.19068,1.460378 0.13759,0.433917 0.32813,0.809562 0.57155,1.127062 0.254,0.306916 0.56104,0.545351 0.92087,0.714684 0.35983,0.169333 0.7725,0.253733 1.23817,0.253733 0.45508,0 0.86231,-0.0844 1.22215,-0.253733 0.37041,-0.169333 0.67745,-0.407768 0.92087,-0.714684 0.254,-0.3175 0.44454,-0.693145 0.57154,-1.127062 0.13758,-0.433917 0.20619,-0.920626 0.20619,-1.460378 0,-0.539748 -0.0686,-1.026459 -0.20619,-1.460376 -0.127,-0.4445 -0.31754,-0.820661 -0.57154,-1.127577 -0.24342,-0.317503 -0.55046,-0.560856 -0.92087,-0.730189 -0.35984,-0.169334 -0.76707,-0.253733 -1.22215,-0.253733 z m 32.33911,0 c -0.46567,2e-6 -0.87834,0.08984 -1.23817,0.269753 -0.35983,0.169333 -0.66687,0.412687 -0.92087,0.730187 -0.24342,0.306916 -0.43396,0.682564 -0.57154,1.127064 -0.127,0.433916 -0.19069,0.915704 -0.19069,1.444871 0,0.539752 0.0637,1.026461 0.19069,1.460378 0.13758,0.433917 0.32812,0.809562 0.57154,1.127062 0.254,0.306916 0.56104,0.545351 0.92087,0.714684 0.35983,0.169333 0.7725,0.253733 1.23817,0.253733 0.45508,0 0.86231,-0.0844 1.22215,-0.253733 0.37041,-0.169333 0.67745,-0.407768 0.92087,-0.714684 0.254,-0.3175 0.44454,-0.693145 0.57154,-1.127062 0.13758,-0.433917 0.20619,-0.920626 0.20619,-1.460378 0,-0.539748 -0.0686,-1.026459 -0.20619,-1.460376 -0.127,-0.4445 -0.31754,-0.820661 -0.57154,-1.127577 -0.24342,-0.317503 -0.55046,-0.560856 -0.92087,-0.730189 -0.35984,-0.169334 -0.76707,-0.253733 -1.22215,-0.253733 z m -44.111,0.06356 c -0.17992,0 -0.35959,0.0049 -0.5395,0.01551 -0.16934,0.01058 -0.31794,0.02146 -0.44494,0.03204 v 3.175 h 0.77825 c 0.85725,0 1.50291,-0.116501 1.93683,-0.349335 0.43392,-0.232833 0.65061,-0.666729 0.65061,-1.301729 0,-0.306916 -0.0583,-0.561144 -0.17467,-0.762227 -0.10583,-0.201083 -0.26427,-0.359524 -0.47594,-0.475941 -0.20108,-0.126997 -0.44987,-0.211912 -0.74621,-0.254246 -0.29633,-0.05292 -0.6246,-0.07906 -0.98443,-0.07906 z m 22.66321,0 c -0.17991,0 -0.34431,0.0049 -0.49247,0.01551 -0.13759,0.01058 -0.26988,0.02146 -0.39688,0.03204 v 2.984312 h 0.69867 c 0.93133,0 1.59822,-0.116499 2.00039,-0.349332 0.40217,-0.232833 0.60307,-0.629708 0.60307,-1.190625 0,-0.53975 -0.20634,-0.920832 -0.61909,-1.143082 -0.40217,-0.232833 -0.99994,-0.348816 -1.79369,-0.348816 z m 77.2666,0 c -0.17991,0 -0.34431,0.0049 -0.49247,0.01551 -0.13759,0.01058 -0.26988,0.02146 -0.39688,0.03204 v 2.984312 h 0.69867 c 0.93133,0 1.59823,-0.116499 2.00039,-0.349332 0.40217,-0.232833 0.60307,-0.629708 0.60307,-1.190625 0,-0.53975 -0.20634,-0.920832 -0.61909,-1.143082 -0.40216,-0.232833 -0.99994,-0.348816 -1.79369,-0.348816 z m -40.08179,0.507982 c -0.0529,0.15875 -0.13239,0.375441 -0.23823,0.650608 -0.10583,0.275167 -0.22777,0.592561 -0.36535,0.952397 -0.13758,0.359833 -0.2911,0.756708 -0.46043,1.190625 -0.15875,0.433914 -0.32263,0.889039 -0.49197,1.365289 h 3.12746 c -0.16933,-0.47625 -0.33372,-0.931375 -0.49247,-1.365289 -0.15875,-0.433917 -0.31176,-0.830792 -0.45992,-1.190625 -0.13759,-0.359836 -0.25952,-0.67723 -0.36536,-0.952397 -0.10583,-0.275167 -0.19023,-0.491858 -0.25373,-0.650608 z"
       id="rect4500"
       inkscape:connector-curvature="0" />
    <path
       inkscape:connector-curvature="0"
       id="path4515"
       style="font-style:normal;font-variant:normal;font-weight:normal;font-stretch:normal;font-size:22.93055534px;line-height:1.14999998;font-family:Ubuntu;-inkscape-font-specification:Ubuntu;text-align:center;letter-spacing:-0.64558333px;word-spacing:0px;writing-mode:lr-tb;text-anchor:middle;fill:#008dc0;fill-opacity:1;stroke:none;stroke-width:0.26458332"
       d="m 116.54386,135.41891 q -0.43568,-1.16945 -0.8255,-2.24719 -0.38982,-1.07774 -0.75671,-2.10961 h -7.7276 q -0.38982,1.03187 -0.77964,2.10961 -0.38982,1.07774 -0.80257,2.24719 h -1.62807 q 0.91722,-2.4765 1.71979,-4.60904 0.80257,-2.15547 1.55928,-4.05871 0.77964,-1.92616 1.53635,-3.69181 0.75671,-1.76566 1.60514,-3.53131 h 1.37583 q 0.84843,1.76565 1.60514,3.53131 0.75671,1.76565 1.51342,3.69181 0.77964,1.90324 1.58221,4.05871 0.80256,2.13254 1.74272,4.60904 z m -5.45748,-14.10229 q -0.87136,1.97203 -1.69686,4.01285 -0.80257,2.04082 -1.67393,4.40267 h 6.76452 q -0.87137,-2.36185 -1.69687,-4.40267 -0.8255,-2.04082 -1.69686,-4.01285 z" />
    <path
       inkscape:connector-curvature="0"
       id="path4517"
       style="font-style:normal;font-variant:normal;font-weight:normal;font-stretch:normal;font-size:22.93055534px;line-height:1.14999998;font-family:Ubuntu;-inkscape-font-specification:Ubuntu;text-align:center;letter-spacing:-0.64558333px;word-spacing:0px;writing-mode:lr-tb;text-anchor:middle;fill:#008dc0;fill-opacity:1;stroke:none;stroke-width:0.26458332"
       d="m 124.4052,119.52804 q 0.68792,2.04082 1.32998,3.87526 0.64205,1.81152 1.26118,3.53131 0.61912,1.69686 1.26118,3.34786 0.64205,1.62807 1.37583,3.302 0.71085,-1.651 1.3529,-3.27907 0.66499,-1.651 1.28412,-3.34786 0.64205,-1.71979 1.26118,-3.55424 0.64205,-1.83444 1.32997,-3.87526 h 1.651 q -1.05481,3.0039 -1.90324,5.27403 -0.8255,2.27012 -1.55928,4.10457 -0.71084,1.83444 -1.37583,3.39372 -0.64205,1.53635 -1.3529,3.11855 h -1.44463 q -0.71084,-1.5822 -1.37583,-3.11855 -0.66499,-1.55928 -1.39876,-3.39372 -0.71085,-1.83445 -1.55928,-4.10457 -0.8255,-2.27013 -1.88031,-5.27403 z" />
    <path
       inkscape:connector-curvature="0"
       id="path4519"
       style="font-style:normal;font-variant:normal;font-weight:normal;font-stretch:normal;font-size:22.93055534px;line-height:1.14999998;font-family:Ubuntu;-inkscape-font-specification:Ubuntu;text-align:center;letter-spacing:-0.64558333px;word-spacing:0px;writing-mode:lr-tb;text-anchor:middle;fill:#008dc0;fill-opacity:1;stroke:none;stroke-width:0.26458332"
       d="m 138.13815,119.52804 h 1.55928 v 15.89087 h -1.55928 z" />
    <path
       inkscape:connector-curvature="0"
       id="path4521"
       style="font-style:normal;font-variant:normal;font-weight:normal;font-stretch:normal;font-size:22.93055534px;line-height:1.14999998;font-family:Ubuntu;-inkscape-font-specification:Ubuntu;text-align:center;letter-spacing:-0.64558333px;word-spacing:0px;writing-mode:lr-tb;text-anchor:middle;fill:#008dc0;fill-opacity:1;stroke:none;stroke-width:0.26458332"
       d="m 155.79223,127.46201 q 0,2.04082 -0.64205,3.55424 -0.64206,1.51341 -1.81152,2.52236 -1.14653,1.00894 -2.75167,1.51342 -1.60513,0.50447 -3.5313,0.50447 -0.96308,0 -2.01789,-0.11465 -1.0548,-0.0917 -1.85737,-0.2981 v -15.31761 q 0.80257,-0.22931 1.85737,-0.32103 1.05481,-0.11465 2.01789,-0.11465 1.92617,0 3.5313,0.50447 1.60514,0.50447 2.75167,1.51342 1.16946,1.00894 1.81152,2.52236 0.64205,1.51341 0.64205,3.5313 z m -11.05253,6.58107 q 0.13759,0.0229 0.68792,0.0917 0.57326,0.0688 1.81151,0.0688 1.7198,0 3.00391,-0.45862 1.28411,-0.48154 2.15547,-1.3529 0.87136,-0.87136 1.30704,-2.10961 0.43568,-1.26118 0.43568,-2.82046 0,-1.55928 -0.43568,-2.79753 -0.43568,-1.23825 -1.30704,-2.10961 -0.87136,-0.87136 -2.15547,-1.32997 -1.28411,-0.48154 -3.00391,-0.48154 -1.23825,0 -1.81151,0.0688 -0.55033,0.0688 -0.68792,0.0917 z" />
    <path
       inkscape:connector-curvature="0"
       id="path4523"
       style="font-style:normal;font-variant:normal;font-weight:normal;font-stretch:normal;font-size:22.93055534px;line-height:1.14999998;font-family:Ubuntu;-inkscape-font-specification:Ubuntu;text-align:center;letter-spacing:-0.64558333px;word-spacing:0px;writing-mode:lr-tb;text-anchor:middle;fill:#008dc0;fill-opacity:1;stroke:none;stroke-width:0.26458332"
       d="m 169.1196,135.41891 q -0.43568,-1.16945 -0.8255,-2.24719 -0.38982,-1.07774 -0.75671,-2.10961 h -7.7276 q -0.38982,1.03187 -0.77964,2.10961 -0.38982,1.07774 -0.80257,2.24719 h -1.62807 q 0.91723,-2.4765 1.7198,-4.60904 0.80256,-2.15547 1.55927,-4.05871 0.77964,-1.92616 1.53635,-3.69181 0.75671,-1.76566 1.60514,-3.53131 h 1.37583 q 0.84843,1.76565 1.60514,3.53131 0.75671,1.76565 1.51342,3.69181 0.77964,1.90324 1.58221,4.05871 0.80257,2.13254 1.74272,4.60904 z m -5.45748,-14.10229 q -0.87136,1.97203 -1.69686,4.01285 -0.80257,2.04082 -1.67393,4.40267 h 6.76452 q -0.87136,-2.36185 -1.69686,-4.40267 -0.8255,-2.04082 -1.69687,-4.01285 z" />
    <path
       inkscape:connector-curvature="0"
       id="path4525"
       style="font-style:normal;font-variant:normal;font-weight:normal;font-stretch:normal;font-size:22.93055534px;line-height:1.14999998;font-family:Ubuntu;-inkscape-font-specification:Ubuntu;text-align:center;letter-spacing:-0.64558333px;word-spacing:0px;writing-mode:lr-tb;text-anchor:middle;fill:#008dc0;fill-opacity:1;stroke:none;stroke-width:0.26458332"
       d="m 177.07266,135.41891 v -15.89087 h 9.17223 v 1.3529 h -7.61295 v 5.52627 h 6.78745 v 1.32997 h -6.78745 v 6.32883 h 8.20914 v 1.3529 z m 7.75053,-20.13302 -3.92112,3.18734 -0.75671,-0.87136 3.62303,-3.48544 z" />
    <path
       inkscape:connector-curvature="0"
       id="path4527"
       style="font-style:normal;font-variant:normal;font-weight:normal;font-stretch:normal;font-size:22.93055534px;line-height:1.14999998;font-family:Ubuntu;-inkscape-font-specification:Ubuntu;text-align:center;letter-spacing:-0.64558333px;word-spacing:0px;writing-mode:lr-tb;text-anchor:middle;fill:#008dc0;fill-opacity:1;stroke:none;stroke-width:0.26458332"
       d="m 200.87219,133.12586 q -0.22931,-0.57326 -0.66499,-1.51342 -0.41275,-0.94015 -0.94015,-2.04082 -0.5274,-1.12359 -1.07774,-2.29305 -0.55033,-1.19239 -1.0548,-2.22427 -0.50447,-1.03187 -0.89429,-1.81151 -0.38982,-0.77964 -0.57327,-1.10067 -0.2981,2.86632 -0.48154,6.23711 -0.16051,3.34787 -0.2981,7.03968 h -1.53634 q 0.20637,-4.33387 0.45861,-8.30086 0.27516,-3.96698 0.66498,-7.59001 h 1.37584 q 0.68791,1.14653 1.46755,2.65994 0.77964,1.49049 1.53635,3.11856 0.77964,1.60514 1.49049,3.18735 0.73377,1.55927 1.28411,2.82046 0.55033,-1.26119 1.26118,-2.82046 0.73377,-1.58221 1.49048,-3.18735 0.77964,-1.62807 1.55928,-3.11856 0.77964,-1.51341 1.46756,-2.65994 h 1.30704 q 0.38982,3.62303 0.64205,7.59001 0.27517,3.96699 0.48155,8.30086 h -1.58221 q -0.13759,-3.69181 -0.32103,-7.03968 -0.16051,-3.37079 -0.45861,-6.23711 -0.18345,0.32103 -0.57327,1.10067 -0.38982,0.77964 -0.89429,1.81151 -0.50447,1.03188 -1.0548,2.22427 -0.55034,1.16946 -1.07774,2.29305 -0.5274,1.10067 -0.96308,2.04082 -0.41275,0.94016 -0.64206,1.51342 z" />
    <path
       inkscape:connector-curvature="0"
       id="path4529"
       style="font-style:normal;font-variant:normal;font-weight:normal;font-stretch:normal;font-size:22.93055534px;line-height:1.14999998;font-family:Ubuntu;-inkscape-font-specification:Ubuntu;text-align:center;letter-spacing:-0.64558333px;word-spacing:0px;writing-mode:lr-tb;text-anchor:middle;fill:#008dc0;fill-opacity:1;stroke:none;stroke-width:0.26458332"
       d="m 218.62336,135.76287 q -1.58221,0 -2.70581,-0.48154 -1.10066,-0.48154 -1.78858,-1.32997 -0.68792,-0.84843 -1.00895,-1.97203 -0.29809,-1.14653 -0.29809,-2.45357 v -9.99772 h 1.55927 v 9.79135 q 0,1.30704 0.2981,2.27012 0.32103,0.94015 0.87136,1.55928 0.55034,0.61912 1.32998,0.91722 0.77963,0.2981 1.74272,0.2981 0.96308,0 1.74272,-0.2981 0.77964,-0.2981 1.32997,-0.91722 0.55033,-0.61913 0.84843,-1.55928 0.32103,-0.96308 0.32103,-2.27012 v -9.79135 h 1.55928 v 9.99772 q 0,1.30704 -0.32103,2.45357 -0.2981,1.1236 -0.98601,1.97203 -0.68792,0.84843 -1.81152,1.32997 -1.10066,0.48154 -2.68287,0.48154 z" />
    <path
       inkscape:connector-curvature="0"
       id="path4531"
       style="font-style:normal;font-variant:normal;font-weight:normal;font-stretch:normal;font-size:22.93055534px;line-height:1.14999998;font-family:Ubuntu;-inkscape-font-specification:Ubuntu;text-align:center;letter-spacing:-0.64558333px;word-spacing:0px;writing-mode:lr-tb;text-anchor:middle;fill:#008dc0;fill-opacity:1;stroke:none;stroke-width:0.26458332"
       d="m 227.83075,119.52804 h 1.55928 v 15.89087 h -1.55928 z" />
    <path
       inkscape:connector-curvature="0"
       id="path4533"
       style="font-style:normal;font-variant:normal;font-weight:normal;font-stretch:normal;font-size:22.93055534px;line-height:1.14999998;font-family:Ubuntu;-inkscape-font-specification:Ubuntu;text-align:center;letter-spacing:-0.64558333px;word-spacing:0px;writing-mode:lr-tb;text-anchor:middle;fill:#008dc0;fill-opacity:1;stroke:none;stroke-width:0.26458332"
       d="m 242.96246,119.52804 v 1.3529 h -5.09058 v 14.53797 h -1.55928 v -14.53797 h -5.09058 v -1.3529 z" />
    <path
       inkscape:connector-curvature="0"
       id="path4535"
       style="font-style:normal;font-variant:normal;font-weight:normal;font-stretch:normal;font-size:22.93055534px;line-height:1.14999998;font-family:Ubuntu;-inkscape-font-specification:Ubuntu;text-align:center;letter-spacing:-0.64558333px;word-spacing:0px;writing-mode:lr-tb;text-anchor:middle;fill:#008dc0;fill-opacity:1;stroke:none;stroke-width:0.26458332"
       d="m 258.71688,127.46201 q 0,2.04082 -0.5962,3.6001 -0.59619,1.55928 -1.62807,2.61408 -1.00894,1.03188 -2.36184,1.55928 -1.35291,0.5274 -2.86632,0.5274 -1.51342,0 -2.86632,-0.5274 -1.3529,-0.5274 -2.38478,-1.55928 -1.00894,-1.0548 -1.60514,-2.61408 -0.59619,-1.55928 -0.59619,-3.6001 0,-2.04082 0.59619,-3.57716 0.5962,-1.55928 1.60514,-2.59116 1.03188,-1.0548 2.38478,-1.58221 1.3529,-0.5274 2.86632,-0.5274 1.51341,0 2.86632,0.5274 1.3529,0.52741 2.36184,1.58221 1.03188,1.03188 1.62807,2.59116 0.5962,1.53634 0.5962,3.57716 z m -1.651,0 q 0,-1.60514 -0.41275,-2.86632 -0.41275,-1.28411 -1.16946,-2.1784 -0.75671,-0.89429 -1.83444,-1.3529 -1.05481,-0.48154 -2.38478,-0.48154 -1.32997,0 -2.40771,0.48154 -1.05481,0.45861 -1.81151,1.3529 -0.75671,0.89429 -1.16946,2.1784 -0.41275,1.26118 -0.41275,2.86632 0,1.60514 0.41275,2.88925 0.41275,1.26118 1.16946,2.15547 0.7567,0.8943 1.81151,1.37584 1.07774,0.48154 2.40771,0.48154 1.32997,0 2.38478,-0.48154 1.07773,-0.48154 1.83444,-1.37584 0.75671,-0.89429 1.16946,-2.15547 0.41275,-1.28411 0.41275,-2.88925 z" />
    <path
       inkscape:connector-curvature="0"
       id="path4537"
       style="font-style:normal;font-variant:normal;font-weight:normal;font-stretch:normal;font-size:22.93055534px;line-height:1.14999998;font-family:Ubuntu;-inkscape-font-specification:Ubuntu;text-align:center;letter-spacing:-0.64558333px;word-spacing:0px;writing-mode:lr-tb;text-anchor:middle;fill:#008dc0;fill-opacity:1;stroke:none;stroke-width:0.26458332"
       d="m 272.74225,135.76287 q -1.53635,0 -2.86632,-0.55033 -1.30704,-0.55033 -2.29306,-1.60514 -0.96308,-1.0548 -1.53635,-2.59115 -0.55033,-1.55928 -0.55033,-3.55424 0,-1.99496 0.5962,-3.5313 0.61912,-1.55928 1.62806,-2.61409 1.00895,-1.0548 2.33892,-1.58221 1.32997,-0.55033 2.7746,-0.55033 0.89429,0 1.62807,0.11465 0.73378,0.11466 1.28411,0.2981 0.55033,0.16052 0.94015,0.34396 0.38982,0.16051 0.5962,0.2981 l -0.50448,1.3529 q -0.57326,-0.34396 -1.46755,-0.66499 -0.87136,-0.34395 -2.1784,-0.34395 -1.49049,0 -2.61409,0.50447 -1.10066,0.50447 -1.85737,1.42169 -0.75671,0.91722 -1.14653,2.1784 -0.36689,1.26119 -0.36689,2.79753 0,1.58221 0.36689,2.86632 0.38982,1.26118 1.1236,2.15547 0.73377,0.8943 1.78858,1.37584 1.07774,0.48154 2.45357,0.48154 1.51342,0 2.52236,-0.27517 1.03188,-0.29809 1.55928,-0.59619 l 0.43568,1.32997 q -0.16051,0.11465 -0.55033,0.27517 -0.38982,0.13758 -0.98602,0.29809 -0.59619,0.16052 -1.37583,0.25224 -0.77964,0.11465 -1.74272,0.11465 z" />
    <path
       inkscape:connector-curvature="0"
       id="path4539"
       style="font-style:normal;font-variant:normal;font-weight:normal;font-stretch:normal;font-size:22.93055534px;line-height:1.14999998;font-family:Ubuntu;-inkscape-font-specification:Ubuntu;text-align:center;letter-spacing:-0.64558333px;word-spacing:0px;writing-mode:lr-tb;text-anchor:middle;fill:#008dc0;fill-opacity:1;stroke:none;stroke-width:0.26458332"
       d="m 285.19861,135.76287 q -1.5822,0 -2.7058,-0.48154 -1.10067,-0.48154 -1.78859,-1.32997 -0.68791,-0.84843 -1.00894,-1.97203 -0.2981,-1.14653 -0.2981,-2.45357 v -9.99772 h 1.55928 v 9.79135 q 0,1.30704 0.2981,2.27012 0.32103,0.94015 0.87136,1.55928 0.55033,0.61912 1.32997,0.91722 0.77964,0.2981 1.74272,0.2981 0.96309,0 1.74273,-0.2981 0.77963,-0.2981 1.32997,-0.91722 0.55033,-0.61913 0.84843,-1.55928 0.32103,-0.96308 0.32103,-2.27012 v -9.79135 h 1.55927 v 9.99772 q 0,1.30704 -0.32102,2.45357 -0.2981,1.1236 -0.98602,1.97203 -0.68791,0.84843 -1.81151,1.32997 -1.10067,0.48154 -2.68288,0.48154 z" />
    <path
       inkscape:connector-curvature="0"
       id="path4541"
       style="font-style:normal;font-variant:normal;font-weight:normal;font-stretch:normal;font-size:22.93055534px;line-height:1.14999998;font-family:Ubuntu;-inkscape-font-specification:Ubuntu;text-align:center;letter-spacing:-0.64558333px;word-spacing:0px;writing-mode:lr-tb;text-anchor:middle;fill:#008dc0;fill-opacity:1;stroke:none;stroke-width:0.26458332"
       d="m 304.99992,124.2976 q 0,1.78858 -0.94015,2.82045 -0.94015,1.03188 -2.4765,1.49049 0.36689,0.45861 0.94015,1.23825 0.5962,0.77964 1.21532,1.71979 0.61913,0.91722 1.21532,1.92617 0.5962,1.00894 1.00895,1.92616 h -1.67393 q -0.48154,-0.91722 -1.05481,-1.83444 -0.55033,-0.91722 -1.14653,-1.76565 -0.57326,-0.87136 -1.12359,-1.60514 -0.55034,-0.73378 -0.96309,-1.28411 -0.73377,0.0688 -1.46755,0.0688 h -2.56822 v 6.42055 h -1.55928 v -15.59277 q 0.8255,-0.22931 1.92616,-0.32103 1.1236,-0.11465 2.06375,-0.11465 3.27907,0 4.93007,1.23825 1.67393,1.23825 1.67393,3.66889 z m -6.42055,-3.55424 q -0.87136,0 -1.53635,0.0688 -0.64205,0.0459 -1.07773,0.0917 v 6.76452 h 2.15547 q 1.07773,0 2.04082,-0.0917 0.96308,-0.11465 1.67393,-0.45861 0.71084,-0.36689 1.12359,-1.03187 0.41275,-0.66499 0.41275,-1.81152 0,-1.0548 -0.41275,-1.74272 -0.41275,-0.68791 -1.07773,-1.07773 -0.66499,-0.41275 -1.53635,-0.55034 -0.84843,-0.16051 -1.76565,-0.16051 z" />
    <path
       inkscape:connector-curvature="0"
       id="path4543"
       style="font-style:normal;font-variant:normal;font-weight:normal;font-stretch:normal;font-size:22.93055534px;line-height:1.14999998;font-family:Ubuntu;-inkscape-font-specification:Ubuntu;text-align:center;letter-spacing:-0.64558333px;word-spacing:0px;writing-mode:lr-tb;text-anchor:middle;fill:#008dc0;fill-opacity:1;stroke:none;stroke-width:0.26458332"
       d="m 318.00232,119.52804 v 1.3529 h -5.09058 v 14.53797 h -1.55928 v -14.53797 h -5.09059 v -1.3529 z" />
    <path
       inkscape:connector-curvature="0"
       id="path4545"
       style="font-style:normal;font-variant:normal;font-weight:normal;font-stretch:normal;font-size:22.93055534px;line-height:1.14999998;font-family:Ubuntu;-inkscape-font-specification:Ubuntu;text-align:center;letter-spacing:-0.64558333px;word-spacing:0px;writing-mode:lr-tb;text-anchor:middle;fill:#008dc0;fill-opacity:1;stroke:none;stroke-width:0.26458332"
       d="m 329.32863,135.41891 q -0.43568,-1.16945 -0.8255,-2.24719 -0.38982,-1.07774 -0.75671,-2.10961 h -7.72759 q -0.38982,1.03187 -0.77964,2.10961 -0.38982,1.07774 -0.80257,2.24719 h -1.62807 q 0.91722,-2.4765 1.71979,-4.60904 0.80257,-2.15547 1.55928,-4.05871 0.77964,-1.92616 1.53634,-3.69181 0.75671,-1.76566 1.60514,-3.53131 h 1.37584 q 0.84843,1.76565 1.60514,3.53131 0.7567,1.76565 1.51341,3.69181 0.77964,1.90324 1.58221,4.05871 0.80257,2.13254 1.74272,4.60904 z m -5.45747,-14.10229 q -0.87136,1.97203 -1.69686,4.01285 -0.80257,2.04082 -1.67393,4.40267 h 6.76451 q -0.87136,-2.36185 -1.69686,-4.40267 -0.8255,-2.04082 -1.69686,-4.01285 z" />
    <path
       inkscape:connector-curvature="0"
       id="path4547"
       style="font-style:normal;font-variant:normal;font-weight:normal;font-stretch:normal;font-size:22.93055534px;line-height:1.14999998;font-family:Ubuntu;-inkscape-font-specification:Ubuntu;text-align:center;letter-spacing:-0.64558333px;word-spacing:0px;writing-mode:lr-tb;text-anchor:middle;fill:#008dc0;fill-opacity:1;stroke:none;stroke-width:0.26458332"
       d="m 97.994147,143.11475 q 3.370793,0 5.021793,1.28412 1.651,1.28411 1.651,3.64595 0,1.35291 -0.48154,2.31599 -0.48154,0.94015 -1.37583,1.53635 -0.89429,0.57326 -2.20133,0.84843 -1.284123,0.25223 -2.912183,0.25223 h -2.15548 v 6.14539 h -1.55927 v -15.59277 q 0.8255,-0.22931 1.92616,-0.32103 1.1236,-0.11466 2.08668,-0.11466 z m 0.0688,1.35291 q -0.87136,0 -1.49048,0.0688 -0.5962,0.0459 -1.03188,0.0917 v 7.01675 h 1.97203 q 1.26118,0 2.27013,-0.13758 1.031873,-0.16052 1.742723,-0.55034 0.73378,-0.41275 1.1236,-1.12359 0.38981,-0.71085 0.38981,-1.81152 0,-1.0548 -0.43568,-1.74272 -0.41275,-0.68792 -1.12359,-1.07773 -0.68792,-0.41275 -1.582213,-0.57327 -0.89429,-0.16051 -1.83445,-0.16051 z" />
    <path
       inkscape:connector-curvature="0"
       id="path4549"
       style="font-style:normal;font-variant:normal;font-weight:normal;font-stretch:normal;font-size:22.93055534px;line-height:1.14999998;font-family:Ubuntu;-inkscape-font-specification:Ubuntu;text-align:center;letter-spacing:-0.64558333px;word-spacing:0px;writing-mode:lr-tb;text-anchor:middle;fill:#008dc0;fill-opacity:1;stroke:none;stroke-width:0.26458332"
       d="m 117.49987,148.02189 q 0,1.78859 -0.94015,2.82046 -0.94016,1.03188 -2.4765,1.49049 0.36689,0.45861 0.94015,1.23825 0.59619,0.77964 1.21532,1.71979 0.61912,0.91722 1.21532,1.92617 0.59619,1.00894 1.00894,1.92616 h -1.67393 q -0.48154,-0.91722 -1.0548,-1.83444 -0.55034,-0.91722 -1.14653,-1.76565 -0.57326,-0.87137 -1.1236,-1.60514 -0.55033,-0.73378 -0.96308,-1.28411 -0.73378,0.0688 -1.46756,0.0688 h -2.56822 v 6.42055 h -1.55928 v -15.59277 q 0.8255,-0.22931 1.92617,-0.32103 1.1236,-0.11466 2.06375,-0.11466 3.27907,0 4.93007,1.23825 1.67393,1.23825 1.67393,3.66889 z m -6.42056,-3.55423 q -0.87136,0 -1.53634,0.0688 -0.64206,0.0459 -1.07774,0.0917 v 6.76452 h 2.15547 q 1.07774,0 2.04082,-0.0917 0.96309,-0.11465 1.67393,-0.45861 0.71085,-0.36689 1.1236,-1.03187 0.41275,-0.66499 0.41275,-1.81152 0,-1.0548 -0.41275,-1.74272 -0.41275,-0.68792 -1.07774,-1.07774 -0.66498,-0.41275 -1.53634,-0.55033 -0.84843,-0.16051 -1.76566,-0.16051 z" />
    <path
       inkscape:connector-curvature="0"
       id="path4551"
       style="font-style:normal;font-variant:normal;font-weight:normal;font-stretch:normal;font-size:22.93055534px;line-height:1.14999998;font-family:Ubuntu;-inkscape-font-specification:Ubuntu;text-align:center;letter-spacing:-0.64558333px;word-spacing:0px;writing-mode:lr-tb;text-anchor:middle;fill:#008dc0;fill-opacity:1;stroke:none;stroke-width:0.26458332"
       d="m 131.72547,159.14321 q -0.43568,-1.16946 -0.8255,-2.24719 -0.38982,-1.07774 -0.75671,-2.10961 h -7.7276 q -0.38982,1.03187 -0.77964,2.10961 -0.38981,1.07773 -0.80256,2.24719 h -1.62807 q 0.91722,-2.4765 1.71979,-4.60904 0.80257,-2.15547 1.55928,-4.05871 0.77963,-1.92616 1.53634,-3.69182 0.75671,-1.76565 1.60514,-3.5313 h 1.37583 q 0.84844,1.76565 1.60514,3.5313 0.75671,1.76566 1.51342,3.69182 0.77964,1.90324 1.58221,4.05871 0.80257,2.13254 1.74272,4.60904 z M 126.268,145.04092 q -0.87136,1.97203 -1.69686,4.01285 -0.80257,2.04082 -1.67393,4.40267 h 6.76451 q -0.87136,-2.36185 -1.69686,-4.40267 -0.8255,-2.04082 -1.69686,-4.01285 z" />
    <path
       inkscape:connector-curvature="0"
       id="path4563"
       style="font-style:normal;font-variant:normal;font-weight:normal;font-stretch:normal;font-size:22.93055534px;line-height:1.14999998;font-family:Ubuntu;-inkscape-font-specification:Ubuntu;text-align:center;letter-spacing:-0.64558333px;word-spacing:0px;writing-mode:lr-tb;text-anchor:middle;fill:#008dc0;fill-opacity:1;stroke:none;stroke-width:0.26458332"
       d="m 264.09908,156.321 q -0.2293,-0.57327 -0.66498,-1.51342 -0.41275,-0.94015 -0.94016,-2.04082 -0.5274,-1.1236 -1.07773,-2.29305 -0.55034,-1.19239 -1.05481,-2.22427 -0.50447,-1.03187 -0.89429,-1.81151 -0.38982,-0.77964 -0.57326,-1.10067 -0.2981,2.86632 -0.48154,6.23711 -0.16052,3.34786 -0.2981,7.03968 h -1.53635 q 0.20638,-4.33387 0.45861,-8.30086 0.27517,-3.96698 0.66499,-7.59001 h 1.37583 q 0.68792,1.14653 1.46756,2.65994 0.77964,1.49049 1.53634,3.11856 0.77964,1.60514 1.49049,3.18735 0.73378,1.55927 1.28411,2.82045 0.55033,-1.26118 1.26118,-2.82045 0.73378,-1.58221 1.49049,-3.18735 0.77964,-1.62807 1.55928,-3.11856 0.77963,-1.51341 1.46755,-2.65994 h 1.30704 q 0.38982,3.62303 0.64206,7.59001 0.27517,3.96699 0.48154,8.30086 h -1.58221 q -0.13758,-3.69182 -0.32103,-7.03968 -0.16051,-3.37079 -0.45861,-6.23711 -0.18344,0.32103 -0.57326,1.10067 -0.38982,0.77964 -0.89429,1.81151 -0.50447,1.03188 -1.05481,2.22427 -0.55033,1.16945 -1.07773,2.29305 -0.52741,1.10067 -0.96309,2.04082 -0.41275,0.94015 -0.64205,1.51342 z" />
    <path
       inkscape:connector-curvature="0"
       id="path4565"
       style="font-style:normal;font-variant:normal;font-weight:normal;font-stretch:normal;font-size:22.93055534px;line-height:1.14999998;font-family:Ubuntu;-inkscape-font-specification:Ubuntu;text-align:center;letter-spacing:-0.64558333px;word-spacing:0px;writing-mode:lr-tb;text-anchor:middle;fill:#008dc0;fill-opacity:1;stroke:none;stroke-width:0.26458332"
       d="m 286.80324,158.61405 q -0.43568,-1.16946 -0.8255,-2.24719 -0.38981,-1.07774 -0.7567,-2.10961 h -7.7276 q -0.38982,1.03187 -0.77964,2.10961 -0.38982,1.07773 -0.80257,2.24719 h -1.62807 q 0.91722,-2.4765 1.71979,-4.60904 0.80257,-2.15547 1.55928,-4.05871 0.77964,-1.92616 1.53635,-3.69182 0.75671,-1.76565 1.60514,-3.5313 h 1.37583 q 0.84843,1.76565 1.60514,3.5313 0.75671,1.76566 1.51342,3.69182 0.77963,1.90324 1.5822,4.05871 0.80257,2.13254 1.74273,4.60904 z m -5.45747,-14.10229 q -0.87136,1.97203 -1.69686,4.01285 -0.80257,2.04082 -1.67393,4.40267 h 6.76451 q -0.87136,-2.36185 -1.69686,-4.40267 -0.8255,-2.04082 -1.69686,-4.01285 z" />
    <path
       inkscape:connector-curvature="0"
       id="path4567"
       style="font-style:normal;font-variant:normal;font-weight:normal;font-stretch:normal;font-size:22.93055534px;line-height:1.14999998;font-family:Ubuntu;-inkscape-font-specification:Ubuntu;text-align:center;letter-spacing:-0.64558333px;word-spacing:0px;writing-mode:lr-tb;text-anchor:middle;fill:#008dc0;fill-opacity:1;stroke:none;stroke-width:0.26458332"
       d="m 300.98514,158.61405 q -0.43568,-0.80257 -1.1236,-1.8803 -0.66498,-1.07774 -1.46755,-2.29306 -0.80257,-1.23825 -1.69686,-2.52236 -0.8943,-1.30704 -1.78859,-2.52236 -0.87136,-1.23825 -1.71979,-2.31599 -0.8255,-1.07773 -1.49049,-1.85737 v 13.39144 h -1.53634 v -15.89087 h 1.23825 q 1.16946,1.30704 2.49943,3.02683 1.3529,1.69686 2.63701,3.48545 1.28411,1.76565 2.38478,3.46251 1.1236,1.69686 1.83444,2.95804 v -12.93283 h 1.53635 v 15.89087 z" />
    <path
       inkscape:connector-curvature="0"
       id="path4569"
       style="font-style:normal;font-variant:normal;font-weight:normal;font-stretch:normal;font-size:22.93055534px;line-height:1.14999998;font-family:Ubuntu;-inkscape-font-specification:Ubuntu;text-align:center;letter-spacing:-0.64558333px;word-spacing:0px;writing-mode:lr-tb;text-anchor:middle;fill:#008dc0;fill-opacity:1;stroke:none;stroke-width:0.26458332"
       d="m 311.50637,158.95801 q -1.58221,0 -2.7058,-0.48154 -1.10067,-0.48154 -1.78859,-1.32997 -0.68791,-0.84843 -1.00894,-1.97203 -0.2981,-1.14653 -0.2981,-2.45357 v -9.99772 h 1.55928 v 9.79135 q 0,1.30704 0.2981,2.27012 0.32102,0.94015 0.87136,1.55928 0.55033,0.61912 1.32997,0.91722 0.77964,0.2981 1.74272,0.2981 0.96309,0 1.74272,-0.2981 0.77964,-0.2981 1.32998,-0.91722 0.55033,-0.61913 0.84843,-1.55928 0.32103,-0.96308 0.32103,-2.27012 v -9.79135 h 1.55927 v 9.99772 q 0,1.30704 -0.32102,2.45357 -0.2981,1.1236 -0.98602,1.97203 -0.68792,0.84843 -1.81151,1.32997 -1.10067,0.48154 -2.68288,0.48154 z" />
    <path
       inkscape:connector-curvature="0"
       id="path4571"
       style="font-style:normal;font-variant:normal;font-weight:normal;font-stretch:normal;font-size:22.93055534px;line-height:1.14999998;font-family:Ubuntu;-inkscape-font-specification:Ubuntu;text-align:center;letter-spacing:-0.64558333px;word-spacing:0px;writing-mode:lr-tb;text-anchor:middle;fill:#008dc0;fill-opacity:1;stroke:none;stroke-width:0.26458332"
       d="m 331.39941,158.61405 q -0.43569,-1.16946 -0.8255,-2.24719 -0.38982,-1.07774 -0.75671,-2.10961 h -7.7276 q -0.38982,1.03187 -0.77964,2.10961 -0.38982,1.07773 -0.80257,2.24719 h -1.62807 q 0.91722,-2.4765 1.71979,-4.60904 0.80257,-2.15547 1.55928,-4.05871 0.77964,-1.92616 1.53635,-3.69182 0.75671,-1.76565 1.60514,-3.5313 h 1.37583 q 0.84843,1.76565 1.60514,3.5313 0.75671,1.76566 1.51342,3.69182 0.77964,1.90324 1.5822,4.05871 0.80257,2.13254 1.74273,4.60904 z m -5.45748,-14.10229 q -0.87136,1.97203 -1.69686,4.01285 -0.80257,2.04082 -1.67393,4.40267 h 6.76452 q -0.87137,-2.36185 -1.69687,-4.40267 -0.8255,-2.04082 -1.69686,-4.01285 z" />
    <path
       inkscape:connector-curvature="0"
       id="path4573"
       style="font-style:normal;font-variant:normal;font-weight:normal;font-stretch:normal;font-size:22.93055534px;line-height:1.14999998;font-family:Ubuntu;-inkscape-font-specification:Ubuntu;text-align:center;letter-spacing:-0.64558333px;word-spacing:0px;writing-mode:lr-tb;text-anchor:middle;fill:#008dc0;fill-opacity:1;stroke:none;stroke-width:0.26458332"
       d="m 343.79272,157.26115 v 1.3529 h -9.03464 v -15.89087 h 1.55928 v 14.53797 z" />
    <path
       inkscape:connector-curvature="0"
       id="path4566"
       style="font-style:normal;font-variant:normal;font-weight:normal;font-stretch:normal;font-size:22.57777786px;line-height:1.25;font-family:Ubuntu;-inkscape-font-specification:Ubuntu;letter-spacing:0px;word-spacing:0px;fill:#008dc0;fill-opacity:1;stroke:none;stroke-width:0.26458332"
       d="m 149.02038,143.28902 v 1.33209 h -5.01227 v 14.31431 h -1.53529 v -14.31431 h -5.01227 v -1.33209 z" />
    <path
       inkscape:connector-curvature="0"
       id="path4568"
       style="font-style:normal;font-variant:normal;font-weight:normal;font-stretch:normal;font-size:22.57777786px;line-height:1.25;font-family:Ubuntu;-inkscape-font-specification:Ubuntu;letter-spacing:0px;word-spacing:0px;fill:#008dc0;fill-opacity:1;stroke:none;stroke-width:0.26458332"
       d="m 161.90841,147.9852 q 0,1.76107 -0.92569,2.77707 -0.92569,1.016 -2.4384,1.46755 0.36124,0.45156 0.92569,1.2192 0.58702,0.76765 1.19662,1.69334 0.6096,0.90311 1.19662,1.89653 0.58702,0.99342 0.99342,1.89653 h -1.64818 q -0.47413,-0.90311 -1.03857,-1.80622 -0.54187,-0.90311 -1.12889,-1.73849 -0.56445,-0.85795 -1.10631,-1.58044 -0.54187,-0.72249 -0.94827,-1.26436 -0.72249,0.0677 -1.44498,0.0677 h -2.52871 v 6.32177 h -1.53529 V 143.5825 q 0.8128,-0.22578 1.89654,-0.31609 1.10631,-0.11289 2.032,-0.11289 3.22862,0 4.85422,1.2192 1.64818,1.2192 1.64818,3.61244 z m -6.32178,-3.49955 q -0.85796,0 -1.51271,0.0677 -0.63218,0.0452 -1.06116,0.0903 v 6.66045 h 2.12231 q 1.06116,0 2.00942,-0.0903 0.94827,-0.11288 1.64818,-0.45155 0.69991,-0.36125 1.10631,-1.016 0.4064,-0.65476 0.4064,-1.78365 0,-1.03857 -0.4064,-1.71591 -0.4064,-0.67733 -1.06115,-1.06115 -0.65476,-0.4064 -1.51271,-0.54187 -0.83538,-0.15804 -1.73849,-0.15804 z" />
    <path
       inkscape:connector-curvature="0"
       id="path4570"
       style="font-style:normal;font-variant:normal;font-weight:normal;font-stretch:normal;font-size:22.57777786px;line-height:1.25;font-family:Ubuntu;-inkscape-font-specification:Ubuntu;letter-spacing:0px;word-spacing:0px;fill:#008dc0;fill-opacity:1;stroke:none;stroke-width:0.26458332"
       d="m 176.5508,158.93542 q -0.42898,-1.15146 -0.8128,-2.21262 -0.38382,-1.06115 -0.74507,-2.07715 h -7.60871 q -0.38382,1.016 -0.76764,2.07715 -0.38383,1.06116 -0.79023,2.21262 h -1.60302 q 0.90311,-2.4384 1.69334,-4.53813 0.79022,-2.12231 1.53528,-3.99627 0.76765,-1.89653 1.51272,-3.63502 0.74506,-1.73849 1.58044,-3.47698 h 1.35467 q 0.83537,1.73849 1.58044,3.47698 0.74507,1.73849 1.49013,3.63502 0.76765,1.87396 1.55787,3.99627 0.79022,2.09973 1.71591,4.53813 z m -5.37351,-13.88533 q -0.85796,1.94169 -1.67076,3.95111 -0.79022,2.00942 -1.64818,4.33494 h 6.66045 q -0.85796,-2.32552 -1.67076,-4.33494 -0.8128,-2.00942 -1.67075,-3.95111 z" />
    <path
       inkscape:connector-curvature="0"
       id="path4572"
       style="font-style:normal;font-variant:normal;font-weight:normal;font-stretch:normal;font-size:22.57777786px;line-height:1.25;font-family:Ubuntu;-inkscape-font-specification:Ubuntu;letter-spacing:0px;word-spacing:0px;fill:#008dc0;fill-opacity:1;stroke:none;stroke-width:0.26458332"
       d="m 184.24136,159.07089 q -0.38383,0 -0.90312,-0.0451 -0.49671,-0.0226 -1.03857,-0.0903 -0.51929,-0.0452 -0.99343,-0.11288 -0.47413,-0.0903 -0.8128,-0.18063 v -15.05937 q 0.4064,-0.11289 0.90312,-0.18063 0.49671,-0.0903 1.016,-0.13546 0.54186,-0.0677 1.03857,-0.0903 0.51929,-0.0226 0.94827,-0.0226 1.26436,0 2.39324,0.2032 1.15147,0.2032 2.00943,0.67733 0.85795,0.47413 1.35466,1.26436 0.51929,0.76764 0.51929,1.91911 0,1.26435 -0.65475,2.16746 -0.63218,0.88054 -1.71591,1.2192 0.67733,0.15805 1.24177,0.45156 0.56445,0.29351 0.99343,0.76764 0.42897,0.45156 0.65475,1.12889 0.24836,0.65476 0.24836,1.58045 0,2.21262 -1.76107,3.38666 -1.76107,1.15147 -5.44124,1.15147 z m -2.21263,-7.63129 v 6.16374 q 0.33867,0.0452 1.016,0.11288 0.67734,0.0452 1.37725,0.0452 1.03858,0 2.00942,-0.13547 0.99342,-0.13546 1.73849,-0.49671 0.74507,-0.36124 1.19662,-0.99342 0.45156,-0.63218 0.45156,-1.6256 0,-0.90311 -0.31609,-1.49013 -0.31609,-0.6096 -0.90311,-0.94827 -0.58703,-0.36124 -1.44498,-0.49671 -0.83538,-0.13547 -1.87396,-0.13547 z m 0,-1.30951 h 2.98027 q 0.83538,0 1.58044,-0.11289 0.74507,-0.13546 1.28694,-0.45155 0.56444,-0.33867 0.88053,-0.88054 0.31609,-0.56444 0.31609,-1.4224 0,-0.76764 -0.33867,-1.28693 -0.33866,-0.54187 -0.97084,-0.88053 -0.6096,-0.33867 -1.46756,-0.47414 -0.85795,-0.15804 -1.89653,-0.15804 -0.83538,0 -1.4224,0.0452 -0.56444,0.0452 -0.94827,0.11289 z" />
    <path
       inkscape:connector-curvature="0"
       id="path4574"
       style="font-style:normal;font-variant:normal;font-weight:normal;font-stretch:normal;font-size:22.57777786px;line-height:1.25;font-family:Ubuntu;-inkscape-font-specification:Ubuntu;letter-spacing:0px;word-spacing:0px;fill:#008dc0;fill-opacity:1;stroke:none;stroke-width:0.26458332"
       d="m 205.25809,158.93542 q -0.42897,-1.15146 -0.8128,-2.21262 -0.38382,-1.06115 -0.74506,-2.07715 h -7.60871 q -0.38383,1.016 -0.76765,2.07715 -0.38382,1.06116 -0.79022,2.21262 h -1.60302 q 0.90311,-2.4384 1.69333,-4.53813 0.79022,-2.12231 1.53529,-3.99627 0.76764,-1.89653 1.51271,-3.63502 0.74507,-1.73849 1.58044,-3.47698 h 1.35467 q 0.83538,1.73849 1.58045,3.47698 0.74506,1.73849 1.49013,3.63502 0.76764,1.87396 1.55787,3.99627 0.79022,2.09973 1.71591,4.53813 z m -5.37351,-13.88533 q -0.85795,1.94169 -1.67075,3.95111 -0.79023,2.00942 -1.64818,4.33494 h 6.66044 q -0.85795,-2.32552 -1.67075,-4.33494 -0.8128,-2.00942 -1.67076,-3.95111 z" />
    <path
       inkscape:connector-curvature="0"
       id="path4576"
       style="font-style:normal;font-variant:normal;font-weight:normal;font-stretch:normal;font-size:22.57777786px;line-height:1.25;font-family:Ubuntu;-inkscape-font-specification:Ubuntu;letter-spacing:0px;word-spacing:0px;fill:#008dc0;fill-opacity:1;stroke:none;stroke-width:0.26458332"
       d="m 218.09638,157.60334 v 1.33208 h -8.89564 v -15.6464 h 1.53529 v 14.31432 z" />
    <path
       inkscape:connector-curvature="0"
       id="path4578"
       style="font-style:normal;font-variant:normal;font-weight:normal;font-stretch:normal;font-size:22.57777786px;line-height:1.25;font-family:Ubuntu;-inkscape-font-specification:Ubuntu;letter-spacing:0px;word-spacing:0px;fill:#008dc0;fill-opacity:1;stroke:none;stroke-width:0.26458332"
       d="m 230.55826,143.28902 h 1.53529 v 15.6464 h -1.53529 v -7.5184 h -8.48925 v 7.5184 h -1.53529 v -15.6464 h 1.53529 v 6.79592 h 8.48925 z" />
    <path
       inkscape:connector-curvature="0"
       id="path4580"
       style="font-style:normal;font-variant:normal;font-weight:normal;font-stretch:normal;font-size:22.57777786px;line-height:1.25;font-family:Ubuntu;-inkscape-font-specification:Ubuntu;letter-spacing:0px;word-spacing:0px;fill:#008dc0;fill-opacity:1;stroke:none;stroke-width:0.26458332"
       d="m 250.18751,151.10094 q 0,2.00942 -0.58702,3.54471 -0.58702,1.53529 -1.60302,2.57386 -0.99342,1.016 -2.32551,1.53529 -1.33209,0.51929 -2.82222,0.51929 -1.49014,0 -2.82223,-0.51929 -1.33208,-0.51929 -2.34808,-1.53529 -0.99343,-1.03857 -1.58045,-2.57386 -0.58702,-1.53529 -0.58702,-3.54471 0,-2.00943 0.58702,-3.52214 0.58702,-1.53529 1.58045,-2.55129 1.016,-1.03857 2.34808,-1.55786 1.33209,-0.51929 2.82223,-0.51929 1.49013,0 2.82222,0.51929 1.33209,0.51929 2.32551,1.55786 1.016,1.016 1.60302,2.55129 0.58702,1.51271 0.58702,3.52214 z m -1.6256,0 q 0,-1.58045 -0.4064,-2.82223 -0.4064,-1.26435 -1.15146,-2.14489 -0.74507,-0.88053 -1.80622,-1.33208 -1.03858,-0.47414 -2.34809,-0.47414 -1.30951,0 -2.37067,0.47414 -1.03858,0.45155 -1.78364,1.33208 -0.74507,0.88054 -1.15147,2.14489 -0.4064,1.24178 -0.4064,2.82223 0,1.58044 0.4064,2.8448 0.4064,1.24177 1.15147,2.12231 0.74506,0.88053 1.78364,1.35466 1.06116,0.47414 2.37067,0.47414 1.30951,0 2.34809,-0.47414 1.06115,-0.47413 1.80622,-1.35466 0.74506,-0.88054 1.15146,-2.12231 0.4064,-1.26436 0.4064,-2.8448 z" />
  </g>
</svg>
