<?xml version="1.0" encoding="UTF-8" standalone="no"?>
<!-- Generator: Adobe Illustrator 21.1.0, SVG Export Plug-In . SVG Version: 6.00 Build 0)  -->

<svg
   xmlns:dc="http://purl.org/dc/elements/1.1/"
   xmlns:cc="http://creativecommons.org/ns#"
   xmlns:rdf="http://www.w3.org/1999/02/22-rdf-syntax-ns#"
   xmlns:svg="http://www.w3.org/2000/svg"
   xmlns="http://www.w3.org/2000/svg"
   xmlns:sodipodi="http://sodipodi.sourceforge.net/DTD/sodipodi-0.dtd"
   xmlns:inkscape="http://www.inkscape.org/namespaces/inkscape"
   version="1.1"
   id="Layer_1"
   x="0px"
   y="0px"
   viewBox="0 0 766.3158 431.05264"
   xml:space="preserve"
   sodipodi:docname="concrete.svg"
   width="766.3158"
   height="431.05264"
   inkscape:version="0.92.1 r15371"><metadata
     id="metadata30"><rdf:RDF><cc:Work
         rdf:about=""><dc:format>image/svg+xml</dc:format><dc:type
           rdf:resource="http://purl.org/dc/dcmitype/StillImage" /><dc:title></dc:title></cc:Work></rdf:RDF></metadata><defs
     id="defs28" /><sodipodi:namedview
     pagecolor="#ffffff"
     bordercolor="#666666"
     borderopacity="1"
     objecttolerance="10"
     gridtolerance="10"
     guidetolerance="10"
     inkscape:pageopacity="0"
     inkscape:pageshadow="2"
     inkscape:window-width="1920"
     inkscape:window-height="1017"
     id="namedview26"
     showgrid="false"
     fit-margin-top="0"
     fit-margin-left="0"
     fit-margin-right="0"
     fit-margin-bottom="0"
     inkscape:zoom="0.52777778"
     inkscape:cx="232.41202"
     inkscape:cy="-35.349548"
     inkscape:window-x="-8"
     inkscape:window-y="-8"
     inkscape:window-maximized="1"
     inkscape:current-layer="Layer_1" /><style
     type="text/css"
     id="style2">
	.st0{fill:#FFFFFF;}
	.st1{fill:#523F7F;}
	.st2{display:none;fill:#523F7F;}
</style><rect
     class="st0"
     width="766.3158"
     height="431.05264"
     id="rect4"
     x="0"
     y="0"
     style="fill:#ffffff;stroke-width:0.53216374" /><g
     id="concrete_1_"
     transform="translate(-336.8421,-189.47368)"><path
       class="st1"
       d="m 359.9,430.8 c -6.7,-6.9 -10.2,-14.6 -10.2,-25.4 0,-10.5 3.7,-18.5 10.4,-25.3 6.9,-6.9 15.4,-10.2 25.5,-10.2 13.3,-0.1 24.5,7.4 30.4,17.3 l -15.1,8.9 c -3.4,-5.4 -8.7,-8.5 -15.6,-8.5 -10.4,0 -17.9,7.5 -17.9,18 0,5.3 1.7,9.7 5.2,13 3.3,3.2 7.5,5 12.7,5 7,0 12.4,-3.3 15.7,-8.6 l 15.2,8.8 c -5.9,10.6 -17.5,17.3 -30.6,17.3 -10.6,-0.1 -18.9,-3.5 -25.7,-10.3 z"
       id="path6"
       inkscape:connector-curvature="0"
       style="fill:#523f7f" /><path
       class="st1"
       d="m 512.9,380.2 c -6.9,-6.9 -15.4,-10.4 -25.3,-10.4 -10,0 -18.5,3.5 -25.3,10.4 -6.9,6.9 -10.2,15.2 -10.2,25.2 0,10 3.4,18.5 10.2,25.3 6.9,6.9 15.4,10.2 25.3,10.2 10,0 18.5,-3.4 25.3,-10.2 6.9,-6.9 10.4,-15.4 10.4,-25.3 0,-9.9 -3.5,-18.3 -10.4,-25.2 z m -12.4,38.1 c -3.5,3.4 -7.7,5.1 -12.9,5.1 -5.2,0 -9.4,-1.7 -12.9,-5.1 -3.3,-3.4 -5,-7.7 -5,-12.9 0,-5.2 1.7,-9.5 5,-12.9 3.5,-3.4 7.7,-5.1 12.9,-5.1 5.2,0 9.4,1.7 12.9,5.1 3.5,3.4 5.2,7.7 5.2,12.9 -0.1,5.2 -1.8,9.5 -5.2,12.9 z"
       id="path8"
       inkscape:connector-curvature="0"
       style="fill:#523f7f" /><path
       class="st2"
       d="m 500.5,418.3 c -3.5,3.4 -7.7,5.1 -12.9,5.1 -5.2,0 -9.4,-1.7 -12.9,-5.1 -3.3,-3.4 -5,-7.7 -5,-12.9 0,-5.2 1.7,-9.5 5,-12.9 3.5,-3.4 7.7,-5.1 12.9,-5.1 5.2,0 9.4,1.7 12.9,5.1 3.5,3.4 5.2,7.7 5.2,12.9 -0.1,5.2 -1.8,9.5 -5.2,12.9 z"
       id="path10"
       inkscape:connector-curvature="0"
       style="display:none;fill:#523f7f" /><path
       class="st1"
       d="m 615,378.1 c 4.9,5 7.3,11.7 7.3,20.5 V 440 h -17.4 v -39.2 c 0,-9 -5.3,-13.9 -13.3,-13.9 -9,0 -14.8,5.5 -14.8,16.7 V 440 h -17.4 v -67.4 h 17.4 v 7.5 c 4.2,-6.3 10.9,-9.4 20.1,-9.4 7.3,0 13.4,2.4 18.1,7.4 z"
       id="path12"
       inkscape:connector-curvature="0"
       style="fill:#523f7f" /><path
       class="st1"
       d="m 668.6,430.8 c -6.7,-6.9 -10.2,-14.6 -10.2,-25.4 0,-10.5 3.7,-18.5 10.4,-25.3 6.9,-6.9 15.4,-10.2 25.5,-10.2 13.3,-0.1 24.5,7.4 30.4,17.3 l -15.1,8.9 c -3.4,-5.4 -8.7,-8.5 -15.6,-8.5 -10.4,0 -17.9,7.5 -17.9,18 0,5.3 1.7,9.7 5.2,13 3.3,3.2 7.5,5 12.7,5 7,0 12.4,-3.3 15.7,-8.6 l 15.2,8.8 c -5.9,10.6 -17.5,17.3 -30.6,17.3 -10.5,-0.1 -18.9,-3.5 -25.7,-10.3 z"
       id="path14"
       inkscape:connector-curvature="0"
       style="fill:#523f7f" /><path
       class="st1"
       d="m 780.5,380.2 c 3.6,-7.6 13.3,-9.3 20.5,-9.3 v 19.5 c -5.3,-0.7 -10.1,0.7 -14.3,3.6 -4.2,2.8 -6.2,7.4 -6.2,13.9 V 440 h -17.4 v -67.4 h 17.4 z"
       id="path16"
       inkscape:connector-curvature="0"
       style="fill:#523f7f" /><path
       class="st1"
       d="m 852.7,412.5 c 1.2,8.5 8.8,13.9 19.2,13.9 6.6,0 11.5,-3.4 13.6,-5.1 l 12.4,8.9 c -6.3,7 -15.4,10.7 -26.5,10.7 -11.2,0 -20.1,-3.4 -26.8,-10.1 -6.7,-6.7 -10.1,-15.2 -10.1,-25.5 0,-10.1 3.4,-18.6 10,-25.3 6.6,-6.9 15.2,-10.2 25.6,-10.2 9.8,0 18.1,3.4 24.4,10.2 6.5,6.9 9.7,15.2 9.7,25.3 0,2.3 -0.3,4.6 -0.7,7.1 h -50.8 z m 34.1,-13.4 c -1.3,-11.6 -9.9,-15.2 -16.7,-15.2 -7.7,0 -16.4,3.6 -17.7,15.2 z"
       id="path18"
       inkscape:connector-curvature="0"
       style="fill:#523f7f" /><path
       class="st1"
       d="m 1038.9,412.5 c 1.2,8.5 8.8,13.9 19.2,13.9 6.6,0 11.5,-3.4 13.6,-5.1 l 12.4,8.9 c -6.3,7 -15.4,10.7 -26.5,10.7 -11.2,0 -20.1,-3.4 -26.8,-10.1 -6.7,-6.7 -10.1,-15.2 -10.1,-25.5 0,-10.1 3.4,-18.6 10,-25.3 6.6,-6.9 15.2,-10.2 25.6,-10.2 9.8,0 18.1,3.4 24.4,10.2 6.5,6.9 9.7,15.2 9.7,25.3 0,2.3 -0.3,4.6 -0.7,7.1 h -50.8 z m 34.1,-13.4 c -1.3,-11.6 -9.9,-15.2 -16.7,-15.2 -7.7,0 -16.4,3.6 -17.7,15.2 z"
       id="path20"
       inkscape:connector-curvature="0"
       style="fill:#523f7f" /><path
       class="st1"
       d="m 984.6,390.2 h -15.2 v 27.6 c 0,7.3 5.3,7.4 15.2,6.9 v 15.8 C 960.7,443.2 952,436.3 952,417.9 V 390.3 H 940.3 V 372.7 H 952 v -17.6 h 17.4 v 17.6 h 15.2 z"
       id="path22"
       inkscape:connector-curvature="0"
       style="fill:#523f7f" /></g></svg>