<?xml version="1.0" encoding="UTF-8" standalone="no"?>
<svg
   xmlns:dc="http://purl.org/dc/elements/1.1/"
   xmlns:cc="http://creativecommons.org/ns#"
   xmlns:rdf="http://www.w3.org/1999/02/22-rdf-syntax-ns#"
   xmlns:svg="http://www.w3.org/2000/svg"
   xmlns="http://www.w3.org/2000/svg"
   xmlns:sodipodi="http://sodipodi.sourceforge.net/DTD/sodipodi-0.dtd"
   xmlns:inkscape="http://www.inkscape.org/namespaces/inkscape"
   version="1.1"
   id="Layer_1"
   x="0px"
   y="0px"
   width="852.95764"
   height="243.92938"
   viewBox="0 0 852.95764 243.92938"
   enable-background="new 0 0 1000 800"
   xml:space="preserve"
   sodipodi:docname="codeops.svg"
   inkscape:version="0.92.1 r15371"><sodipodi:namedview
     pagecolor="#ffffff"
     bordercolor="#666666"
     borderopacity="1"
     objecttolerance="10"
     gridtolerance="10"
     guidetolerance="10"
     inkscape:pageopacity="0"
     inkscape:pageshadow="2"
     inkscape:window-width="1920"
     inkscape:window-height="1017"
     id="namedview5231"
     showgrid="false"
     inkscape:zoom="0.834386"
     inkscape:cx="-40.918956"
     inkscape:cy="107.4655"
     inkscape:window-x="-8"
     inkscape:window-y="-8"
     inkscape:window-maximized="1"
     inkscape:current-layer="text7046"
     fit-margin-top="0"
     fit-margin-left="0"
     fit-margin-right="0"
     fit-margin-bottom="0" /><metadata
     id="metadata5235"><rdf:RDF><cc:Work
         rdf:about=""><dc:format>image/svg+xml</dc:format><dc:type
           rdf:resource="http://purl.org/dc/dcmitype/StillImage" /><dc:title></dc:title></cc:Work></rdf:RDF></metadata><defs
     id="defs5233"><filter
       style="color-interpolation-filters:sRGB"
       inkscape:label="Drop Shadow"
       id="filter7312"><feFlood
         flood-opacity="0.498039"
         flood-color="rgb(0,0,0)"
         result="flood"
         id="feFlood7302" /><feComposite
         in="SourceGraphic"
         in2="flood"
         operator="in"
         result="composite1"
         id="feComposite7304" /><feGaussianBlur
         in="composite1"
         stdDeviation="1.2"
         result="blur"
         id="feGaussianBlur7306" /><feOffset
         dx="-5.6"
         dy="4.1"
         result="offset"
         id="feOffset7308" /><feComposite
         in="SourceGraphic"
         in2="offset"
         operator="over"
         result="composite2"
         id="feComposite7310" /></filter></defs><g
     inkscape:label="Layer 1"
     id="layer1"
     inkscape:groupmode="layer"
     style="display:inline"
     transform="translate(-56.403218,-277.96772)"><g
       aria-label="CodeOps_"
       transform="scale(1.0142428,0.98595721)"
       style="font-style:normal;font-variant:normal;font-weight:normal;font-stretch:normal;font-size:175.80207825px;line-height:1.25;font-family:'Segoe UI';-inkscape-font-specification:'Segoe UI';letter-spacing:-9.71644688px;word-spacing:0px;fill:#972aea;fill-opacity:1;stroke:none;stroke-width:1.01424277;filter:url(#filter7312)"
       id="text7046"><path
         d="m 182.31947,416.91743 q 9.13333,0 14.97867,-1.46133 6.028,-1.46134 11.87333,-4.20134 l 3.836,13.51734 q -6.39333,3.10533 -14.06533,4.56666 -7.48934,1.46134 -18.44934,1.46134 -11.32533,0 -21.372,-3.836 -10.04666,-3.836 -17.536,-11.32534 -7.30666,-7.48933 -11.69067,-18.44933 -4.20133,-11.14267 -4.20133,-25.57333 0,-14.06534 4.20133,-25.02534 4.20134,-11.14267 11.50801,-18.632 7.48933,-7.672 17.71866,-11.508 10.22934,-4.01867 22.28534,-4.01867 11.32533,0 18.632,1.82667 7.30666,1.82667 13.51733,4.932 l -4.01867,13.152 q -3.47066,-1.46133 -6.576,-2.55733 -2.92266,-1.27867 -6.028,-2.00934 -2.92266,-0.73066 -6.21066,-1.096 -3.10534,-0.36533 -7.124,-0.36533 -8.03734,0 -15.344,2.55733 -7.124,2.37467 -12.604,7.85467 -5.29734,5.48 -8.58534,14.248 -3.10533,8.58534 -3.10533,20.824 0,12.42134 3.10533,21.00667 3.10534,8.58533 8.22,13.88267 5.29734,5.29733 12.23867,7.85466 6.94133,2.37467 14.796,2.37467 z"
         style="font-style:normal;font-variant:normal;font-weight:normal;font-stretch:normal;font-size:182.66667175px;font-family:'Ek Mukta';-inkscape-font-specification:'Ek Mukta';letter-spacing:-6.06000042px;fill:#000000;fill-opacity:1;stroke-width:1.01424277"
         id="path4493" /><path
         d="m 304.59993,385.3161 q 0,10.77733 -3.288,19.36266 -3.288,8.40267 -9.13333,14.248 -5.66267,5.84534 -13.33467,8.95067 -7.672,2.92267 -16.62266,2.92267 -8.95067,0 -16.62267,-2.74 -7.48933,-2.92267 -13.152,-8.40267 -5.48,-5.66267 -8.768,-13.7 -3.10534,-8.22 -3.10534,-18.81467 0,-10.77733 3.288,-19.18 3.288,-8.40266 8.95067,-14.06533 5.84534,-5.84533 13.51734,-8.768 7.672,-3.10534 16.62266,-3.10534 8.95067,0 16.44,2.74001 7.672,2.74 13.152,8.22 5.66267,5.48 8.768,13.7 3.288,8.03733 3.288,18.632 z m -16.80533,0.91333 q 0,-8.58533 -2.192,-14.61333 -2.192,-6.028 -5.84533,-9.864 -3.47067,-3.836 -8.03734,-5.48 -4.56666,-1.82667 -9.316,-1.82667 -4.74933,0 -9.316,1.46133 -4.56666,1.46134 -8.03733,5.11467 -3.47067,3.65333 -5.66267,9.864 -2.00933,6.028 -2.00933,15.344 0,8.58533 2.192,14.796 2.192,6.028 5.66267,9.864 3.65333,3.836 8.22,5.66267 4.56666,1.82666 9.316,1.82666 4.74933,0 9.316,-1.46133 4.56666,-1.644 8.03733,-5.29733 3.47067,-3.836 5.48,-9.864 2.192,-6.21067 2.192,-15.52667 z"
         style="font-style:normal;font-variant:normal;font-weight:normal;font-stretch:normal;font-size:182.66667175px;font-family:'Ek Mukta';-inkscape-font-specification:'Ek Mukta';letter-spacing:-6.06000042px;fill:#000000;fill-opacity:1;stroke-width:1.01424277"
         id="path4495" /><path
         d="m 374.91458,299.46276 h 16.07467 V 429.1561 h -13.51734 l -2.00933,-9.49867 h -0.548 q -5.66267,5.84533 -11.508,8.58533 -5.66267,2.55734 -14.43067,2.55734 -6.94133,0 -13.51733,-2.74 -6.39334,-2.74 -11.508,-8.22 -5.11467,-5.48 -8.22,-13.7 -3.10534,-8.40267 -3.10534,-19.728 0,-10.04667 2.55734,-18.26667 2.74,-8.22 7.672,-14.06533 4.932,-5.84534 12.056,-8.95067 7.124,-3.10534 16.25733,-3.10534 6.75867,0 12.78667,2.19201 6.21067,2.00933 10.96,6.21066 z m 0,64.48134 q -8.58533,-9.68134 -20.276,-9.68134 -4.932,0 -9.68134,1.82667 -4.56666,1.644 -8.22,5.48 -3.47066,3.836 -5.66266,9.864 -2.192,6.028 -2.192,14.43067 0,8.768 2.00933,14.97866 2.00933,6.028 5.29733,10.04667 3.47067,3.836 7.672,5.66267 4.384,1.82666 8.768,1.82666 13.70001,0 22.28534,-11.87333 z"
         style="font-style:normal;font-variant:normal;font-weight:normal;font-stretch:normal;font-size:182.66667175px;font-family:'Ek Mukta';-inkscape-font-specification:'Ek Mukta';letter-spacing:-6.06000042px;fill:#000000;fill-opacity:1;stroke-width:1.01424277"
         id="path4497" /><path
         d="M 482.68447,388.0561 H 421.1258 v 0.73066 q 0,14.248 7.672,21.92 7.85467,7.672 21.18933,7.672 6.94134,0 12.23867,-1.096 5.48,-1.096 11.87333,-3.65333 l 3.288,11.87333 q -5.29733,2.37467 -12.604,3.836 -7.124,1.46134 -15.344,1.46134 -9.316,0 -17.536,-2.55734 -8.03733,-2.55733 -14.248,-7.85466 -6.21067,-5.48 -9.864,-13.88267 -3.47067,-8.40267 -3.47067,-20.09333 0,-10.04667 2.92267,-18.26667 3.10533,-8.22 8.58534,-13.88267 5.48,-5.84533 13.152,-8.95066 7.85466,-3.28801 17.536,-3.28801 8.22,0 14.796,2.74001 6.75866,2.74 11.508,7.672 4.74933,4.932 7.30666,11.87333 2.55734,6.94133 2.55734,15.344 z m -16.62267,-11.508 q 0,-4.74934 -1.27867,-8.768 -1.096,-4.20134 -3.65333,-7.30667 -2.37467,-3.10533 -6.21067,-4.932 -3.836,-1.82667 -9.316,-1.82667 -10.04666,0 -16.44,6.39334 -6.21066,6.39333 -7.672,16.80533 z"
         style="font-style:normal;font-variant:normal;font-weight:normal;font-stretch:normal;font-size:182.66667175px;font-family:'Ek Mukta';-inkscape-font-specification:'Ek Mukta';letter-spacing:-6.06000042px;fill:#000000;fill-opacity:1;stroke-width:1.01424277"
         id="path4499" /><path
         d="m 546.20334,312.43209 q 11.69067,0 21.55467,3.836 9.864,3.65334 16.988,11.14267 7.30667,7.30667 11.32534,18.44934 4.01866,10.96 4.01866,25.756 0,14.43066 -4.20133,25.57333 -4.20133,10.96 -11.508,18.44933 -7.30667,7.48934 -17.35334,11.32534 -9.864,3.836 -21.55466,3.836 -11.69067,0 -21.55467,-3.65334 -9.864,-3.836 -17.17067,-11.14266 -7.124,-7.48934 -11.14266,-18.44934 -4.01867,-11.14266 -4.01867,-25.93866 0,-14.43067 4.20133,-25.39067 4.20134,-11.14267 11.508,-18.632 7.30667,-7.48934 17.17067,-11.32534 10.04667,-3.836 21.73733,-3.836 z m -36.35066,59.18401 q 0,11.69066 2.74,20.276 2.92266,8.58533 7.85466,14.248 4.932,5.66266 11.508,8.40266 6.75867,2.74 14.248,2.74 7.48934,0 13.88267,-2.74 6.576,-2.74 11.32533,-8.40266 4.932,-5.66267 7.672,-14.248 2.74,-8.58534 2.74,-20.276 0,-12.056 -2.92266,-20.64134 -2.74,-8.58533 -7.672,-14.06533 -4.932,-5.66267 -11.69067,-8.22 -6.576,-2.74 -14.06533,-2.74 -7.48934,0 -14.06534,2.74 -6.576,2.74 -11.32533,8.40266 -4.74933,5.66267 -7.48933,14.24801 -2.74,8.58533 -2.74,20.276 z"
         style="font-style:normal;font-variant:normal;font-weight:normal;font-stretch:normal;font-size:182.66667175px;font-family:'Ek Mukta';-inkscape-font-specification:'Ek Mukta';letter-spacing:-6.06000042px;fill:#972aea;fill-opacity:1;stroke-width:1.01424277"
         id="path4501" /><path
         d="m 650.39124,430.8001 q -5.84533,0 -11.32533,-1.644 -5.29734,-1.644 -9.13334,-4.384 v 46.39733 h -15.892 V 342.02409 h 13.33467 l 2.37467,11.14267 q 4.932,-4.56666 11.14266,-7.85466 6.21067,-3.28801 14.61334,-3.28801 17.17067,0 27.03467,10.96001 9.864,10.96 9.864,31.41866 0,12.056 -3.65334,20.824 -3.47066,8.768 -9.49866,14.43067 -5.84534,5.66267 -13.51734,8.40267 -7.48933,2.74 -15.344,2.74 z m 1.644,-75.624 q -7.672,0 -13.33467,3.836 -5.66266,3.65333 -8.768,7.48933 v 45.84933 q 4.20134,3.10534 8.95067,4.56667 4.74933,1.46133 9.49867,1.46133 4.932,0 9.864,-1.644 4.932,-1.82666 8.768,-5.84533 3.836,-4.01867 6.21067,-10.412 2.37466,-6.39333 2.37466,-15.70933 0,-13.7 -5.84533,-21.55467 -5.66267,-8.03733 -17.71867,-8.03733 z"
         style="font-style:normal;font-variant:normal;font-weight:normal;font-stretch:normal;font-size:182.66667175px;font-family:'Ek Mukta';-inkscape-font-specification:'Ek Mukta';letter-spacing:-6.06000042px;fill:#972aea;fill-opacity:1;stroke-width:1.01424277"
         id="path4503" /><path
         d="m 753.9769,359.37743 q -6.028,-2.92267 -10.96,-4.01867 -4.932,-1.096 -9.864,-1.096 -8.768,0 -12.96933,3.288 -4.20134,3.10534 -4.20134,8.40267 0,3.836 2.92267,6.75867 2.92267,2.74 12.23867,5.48 l 5.48,1.644 q 12.23866,3.65333 18.44933,9.49866 6.39333,5.66267 6.39333,15.52667 0,11.69067 -8.768,18.81467 -8.58533,7.124 -24.112,7.124 -8.22,0 -15.892,-1.46134 -7.48933,-1.46133 -12.96933,-4.01866 l 3.836,-12.604 q 5.29733,2.55733 11.508,4.20133 6.21067,1.46133 12.604,1.46133 8.22,0 12.96933,-2.92266 4.932,-2.92267 4.932,-9.68134 0,-5.84533 -4.20133,-8.22 -4.20133,-2.55733 -12.056,-4.932 l -5.66267,-1.82666 q -11.87333,-3.836 -17.71866,-9.49867 -5.66267,-5.84533 -5.66267,-14.97867 0,-5.48 2.37467,-10.04666 2.37466,-4.56667 6.39333,-7.672 4.20133,-3.10534 9.864,-4.74934 5.66267,-1.82667 12.42133,-1.82667 6.39334,0 13.152,1.27867 6.94134,1.096 13.152,3.836 z"
         style="font-style:normal;font-variant:normal;font-weight:normal;font-stretch:normal;font-size:182.66667175px;font-family:'Ek Mukta';-inkscape-font-specification:'Ek Mukta';letter-spacing:-6.06000042px;fill:#972aea;fill-opacity:1;stroke-width:1.01424277"
         id="path4505" /><path
         d="m 826.50922,463.86277 v 10.96 h -63.20267 v -10.96 z"
         style="font-style:normal;font-variant:normal;font-weight:normal;font-stretch:normal;font-size:182.66667175px;font-family:'Ek Mukta';-inkscape-font-specification:'Ek Mukta';letter-spacing:-6.06000042px;fill:#972aea;fill-opacity:1;stroke-width:1.01424277"
         id="path4507" /></g><g
       aria-label="Coding your business. We are DevOps."
       style="font-style:normal;font-variant:normal;font-weight:normal;font-stretch:normal;font-size:40px;line-height:1.25;font-family:ubuntu;-inkscape-font-specification:ubuntu;letter-spacing:0px;word-spacing:0px;fill:#000000;fill-opacity:1;stroke:none"
       id="text7084"><path
         d="m 152.24506,507.43043 q 2.33333,0 3.82666,-0.37333 1.54,-0.37334 3.03334,-1.07334 l 0.98,3.45334 q -1.63334,0.79333 -3.59334,1.16667 -1.91333,0.37333 -4.71333,0.37333 -2.89333,0 -5.46,-0.98 -2.56667,-0.98 -4.48,-2.89334 -1.86667,-1.91333 -2.98667,-4.71333 -1.07333,-2.84667 -1.07333,-6.53333 0,-3.59334 1.07333,-6.39334 1.07334,-2.84666 2.94,-4.76 1.91334,-1.96 4.52667,-2.94 2.61333,-1.02666 5.69333,-1.02666 2.89334,0 4.76,0.46666 1.86667,0.46667 3.45334,1.26 l -1.02667,3.36 q -0.88667,-0.37333 -1.68,-0.65333 -0.74667,-0.32667 -1.54,-0.51333 -0.74667,-0.18667 -1.58667,-0.28 -0.79333,-0.0933 -1.82,-0.0933 -2.05333,0 -3.92,0.65334 -1.82,0.60666 -3.22,2.00666 -1.35333,1.4 -2.19333,3.64 -0.79333,2.19334 -0.79333,5.32 0,3.17334 0.79333,5.36667 0.79333,2.19333 2.1,3.54667 1.35333,1.35333 3.12667,2.00666 1.77333,0.60667 3.78,0.60667 z"
         style="font-style:normal;font-variant:normal;font-weight:normal;font-stretch:normal;font-size:46.66666794px;font-family:'Ek Mukta';-inkscape-font-specification:'Ek Mukta';letter-spacing:-2.4000001px"
         id="path4510" /><path
         d="m 182.63277,499.3571 q 0,2.75333 -0.84,4.94666 -0.84,2.14667 -2.33334,3.64 -1.44666,1.49334 -3.40666,2.28667 -1.96,0.74667 -4.24667,0.74667 -2.28667,0 -4.24667,-0.7 -1.91333,-0.74667 -3.36,-2.14667 -1.4,-1.44667 -2.24,-3.5 -0.79333,-2.1 -0.79333,-4.80667 0,-2.75333 0.84,-4.9 0.84,-2.14666 2.28667,-3.59333 1.49333,-1.49333 3.45333,-2.24 1.96,-0.79333 4.24667,-0.79333 2.28666,0 4.2,0.7 1.96,0.7 3.36,2.1 1.44666,1.4 2.24,3.5 0.84,2.05333 0.84,4.76 z m -4.29334,0.23333 q 0,-2.19333 -0.56,-3.73333 -0.56,-1.54 -1.49333,-2.52 -0.88667,-0.98 -2.05333,-1.4 -1.16667,-0.46667 -2.38,-0.46667 -1.21334,0 -2.38,0.37333 -1.16667,0.37334 -2.05334,1.30667 -0.88666,0.93333 -1.44666,2.52 -0.51334,1.54 -0.51334,3.92 0,2.19333 0.56,3.78 0.56,1.54 1.44667,2.52 0.93333,0.98 2.1,1.44667 1.16667,0.46666 2.38,0.46666 1.21333,0 2.38,-0.37333 1.16667,-0.42 2.05333,-1.35333 0.88667,-0.98 1.4,-2.52 0.56,-1.58667 0.56,-3.96667 z"
         style="font-style:normal;font-variant:normal;font-weight:normal;font-stretch:normal;font-size:46.66666794px;font-family:'Ek Mukta';-inkscape-font-specification:'Ek Mukta';letter-spacing:-2.4000001px"
         id="path4512" /><path
         d="m 199.74454,477.42376 h 4.10666 v 33.13334 h -3.45333 l -0.51333,-2.42667 h -0.14 q -1.44667,1.49334 -2.94,2.19334 -1.44667,0.65333 -3.68667,0.65333 -1.77333,0 -3.45333,-0.7 -1.63334,-0.7 -2.94,-2.1 -1.30667,-1.4 -2.1,-3.5 -0.79334,-2.14667 -0.79334,-5.04 0,-2.56667 0.65334,-4.66667 0.7,-2.1 1.96,-3.59333 1.26,-1.49334 3.08,-2.28667 1.82,-0.79333 4.15333,-0.79333 1.72667,0 3.26667,0.56 1.58666,0.51333 2.8,1.58666 z m 0,16.47334 q -2.19334,-2.47334 -5.18,-2.47334 -1.26,0 -2.47334,0.46667 -1.16666,0.42 -2.1,1.4 -0.88666,0.98 -1.44666,2.52 -0.56,1.54 -0.56,3.68667 0,2.24 0.51333,3.82666 0.51333,1.54 1.35333,2.56667 0.88667,0.98 1.96,1.44667 1.12,0.46666 2.24,0.46666 3.5,0 5.69334,-3.03333 z"
         style="font-style:normal;font-variant:normal;font-weight:normal;font-stretch:normal;font-size:46.66666794px;font-family:'Ek Mukta';-inkscape-font-specification:'Ek Mukta';letter-spacing:-2.4000001px"
         id="path4514" /><path
         d="m 208.41183,510.5571 v -21.93334 h 4.10667 v 21.93334 z m 2.05334,-27.58 q -1.07334,0 -1.86667,-0.7 -0.74667,-0.74667 -0.74667,-1.82 0,-1.07334 0.74667,-1.82 0.79333,-0.74667 1.86667,-0.74667 1.02666,0 1.82,0.74667 0.79333,0.74666 0.79333,1.82 0,1.07333 -0.79333,1.82 -0.79334,0.7 -1.82,0.7 z"
         style="font-style:normal;font-variant:normal;font-weight:normal;font-stretch:normal;font-size:46.66666794px;font-family:'Ek Mukta';-inkscape-font-specification:'Ek Mukta';letter-spacing:-2.4000001px"
         id="path4516" /><path
         d="m 220.94954,510.5571 h -4.10667 v -21.93334 h 3.22 l 0.60667,3.03334 q 1.63333,-1.63334 3.40667,-2.47334 1.82,-0.88666 4.15333,-0.88666 3.36,0 5.27333,1.91333 1.91334,1.86667 1.91334,5.22667 v 15.12 h -4.10667 v -14.51334 q 0,-2.00666 -1.07333,-3.17333 -1.02667,-1.21333 -3.17334,-1.21333 -3.26666,0 -6.11333,2.94 z"
         style="font-style:normal;font-variant:normal;font-weight:normal;font-stretch:normal;font-size:46.66666794px;font-family:'Ek Mukta';-inkscape-font-specification:'Ek Mukta';letter-spacing:-2.4000001px"
         id="path4518" /><path
         d="m 238.99902,495.90376 q 0,-1.82 0.65333,-3.22 0.65333,-1.44666 1.82,-2.42666 1.21333,-0.98 2.84667,-1.44667 1.63333,-0.51333 3.54667,-0.51333 0.7,0 1.35333,0.0933 0.65333,0.0933 1.30667,0.23333 h 9.47333 v 3.03334 h -1.44667 l -3.73333,-0.51334 q 0.88667,0.93334 1.35333,2.14667 0.51334,1.21333 0.51334,2.56667 0,1.82 -0.65334,3.26666 -0.65333,1.4 -1.82,2.38 -1.16666,0.98 -2.8,1.49334 -1.63333,0.46666 -3.54666,0.46666 -1.44667,0 -2.52001,-0.18666 -1.07333,0.37333 -1.49333,0.98 -0.42,0.56 -0.42,1.21333 0,1.07333 0.7,1.44667 0.74667,0.37333 1.96,0.37333 h 5.78667 q 3.64,0 5.55333,1.68 1.96,1.63334 1.96,4.48 0,1.82 -0.79333,3.26667 -0.79333,1.44667 -2.28667,2.47333 -1.44666,1.02667 -3.54666,1.54 -2.1,0.56 -4.71334,0.56 -4.76,0 -7.60667,-1.72666 -2.8,-1.68 -2.8,-4.99334 0,-1.72666 1.07334,-2.89333 1.12,-1.16667 2.89333,-1.77333 -0.93333,-0.65334 -1.4,-1.35334 -0.46667,-0.74667 -0.46667,-1.96 0,-1.44667 0.84,-2.47333 0.88667,-1.02667 2.38,-1.63334 -1.86666,-0.84 -2.94,-2.42666 -1.02666,-1.63334 -1.02666,-4.15334 z m 4.99333,14.65334 q -2.38,1.07333 -2.38,3.36 0,4.10667 6.62667,4.10667 1.96,0 3.31333,-0.37334 1.35334,-0.37333 2.19334,-0.98 0.84,-0.60666 1.21333,-1.35333 0.42,-0.74667 0.42,-1.54 0,-1.96 -1.35333,-2.61333 -1.30667,-0.60667 -3.31334,-0.60667 z m 8.54,-14.56 q 0,-2.47334 -1.30666,-3.64 -1.26,-1.16667 -3.36,-1.16667 -2.10001,0 -3.40667,1.16667 -1.26,1.16666 -1.26,3.45333 0,2.42667 1.26,3.59333 1.30666,1.12 3.40667,1.12 2.1,0 3.36,-1.12 1.30666,-1.12 1.30666,-3.40666 z"
         style="font-style:normal;font-variant:normal;font-weight:normal;font-stretch:normal;font-size:46.66666794px;font-family:'Ek Mukta';-inkscape-font-specification:'Ek Mukta';letter-spacing:-2.4000001px"
         id="path4520" /><path
         d="m 267.41037,488.62376 h 4.38667 l 4.66667,12.55334 1.58666,5.22666 h 0.0933 l 1.58666,-5.22666 4.24667,-12.55334 h 4.2 l -8.44667,23.80001 q -1.4,3.96666 -3.54666,6.20666 -2.1,2.24 -5.04,3.26667 l -1.77334,-3.26667 q 2.19334,-0.84 3.87334,-2.42666 1.72666,-1.58667 2.66,-4.38667 l 0.42,-1.26 z"
         style="font-style:normal;font-variant:normal;font-weight:normal;font-stretch:normal;font-size:46.66666794px;font-family:'Ek Mukta';-inkscape-font-specification:'Ek Mukta';letter-spacing:-2.4000001px"
         id="path4522" /><path
         d="m 309.38745,499.3571 q 0,2.75333 -0.84,4.94666 -0.84,2.14667 -2.33333,3.64 -1.44667,1.49334 -3.40667,2.28667 -1.96,0.74667 -4.24667,0.74667 -2.28666,0 -4.24666,-0.7 -1.91334,-0.74667 -3.36,-2.14667 -1.4,-1.44667 -2.24,-3.5 -0.79334,-2.1 -0.79334,-4.80667 0,-2.75333 0.84,-4.9 0.84,-2.14666 2.28667,-3.59333 1.49333,-1.49333 3.45333,-2.24 1.96,-0.79333 4.24667,-0.79333 2.28667,0 4.2,0.7 1.96,0.7 3.36,2.1 1.44667,1.4 2.24,3.5 0.84,2.05333 0.84,4.76 z m -4.29333,0.23333 q 0,-2.19333 -0.56,-3.73333 -0.56,-1.54 -1.49334,-2.52 -0.88666,-0.98 -2.05333,-1.4 -1.16667,-0.46667 -2.38,-0.46667 -1.21333,0 -2.38,0.37333 -1.16667,0.37334 -2.05333,1.30667 -0.88667,0.93333 -1.44667,2.52 -0.51333,1.54 -0.51333,3.92 0,2.19333 0.56,3.78 0.56,1.54 1.44666,2.52 0.93334,0.98 2.1,1.44667 1.16667,0.46666 2.38,0.46666 1.21334,0 2.38,-0.37333 1.16667,-0.42 2.05334,-1.35333 0.88666,-0.98 1.4,-2.52 0.56,-1.58667 0.56,-3.96667 z"
         style="font-style:normal;font-variant:normal;font-weight:normal;font-stretch:normal;font-size:46.66666794px;font-family:'Ek Mukta';-inkscape-font-specification:'Ek Mukta';letter-spacing:-2.4000001px"
         id="path4524" /><path
         d="m 326.63923,488.62376 h 4.10667 v 21.93334 h -3.22 l -0.56,-2.75334 h -0.18667 q -1.21333,1.35334 -3.03333,2.28667 -1.77333,0.88667 -4.15333,0.88667 -3.40667,0 -5.55334,-1.91333 -2.1,-1.96001 -2.1,-5.88001 v -14.56 h 4.10667 v 14.04667 q 0,1.4 0.32667,2.38 0.37333,0.98 0.93333,1.58667 0.60667,0.56 1.4,0.84 0.79333,0.23333 1.72667,0.23333 1.86666,0 3.36,-0.79333 1.49333,-0.79334 2.84666,-2.19334 z"
         style="font-style:normal;font-variant:normal;font-weight:normal;font-stretch:normal;font-size:46.66666794px;font-family:'Ek Mukta';-inkscape-font-specification:'Ek Mukta';letter-spacing:-2.4000001px"
         id="path4526" /><path
         d="m 334.60214,510.5571 v -21.93334 h 3.08 l 0.7,4.38667 q 0.79333,-2.1 2.61333,-3.40667 1.82,-1.30666 4.2,-1.30666 1.21334,0 2.00667,0.18666 0.79333,0.18667 1.44667,0.46667 l -0.79334,3.59333 q -0.56,-0.28 -1.26,-0.46666 -0.65333,-0.18667 -1.58666,-0.18667 -1.35334,0 -2.52,0.46667 -1.12,0.46666 -2.00667,1.4 -0.84,0.93333 -1.35333,2.33333 -0.46667,1.35333 -0.46667,3.12667 v 11.34 z"
         style="font-style:normal;font-variant:normal;font-weight:normal;font-stretch:normal;font-size:46.66666794px;font-family:'Ek Mukta';-inkscape-font-specification:'Ek Mukta';letter-spacing:-2.4000001px"
         id="path4528" /><path
         d="m 377.85715,499.59043 q 0,2.61333 -0.79334,4.71333 -0.79333,2.1 -2.14666,3.59334 -1.35334,1.49333 -3.17334,2.28667 -1.82,0.79333 -3.87333,0.79333 -2.14667,0 -3.78,-0.60667 -1.58667,-0.60666 -2.98667,-1.86667 h -0.0933 l -0.42,2.05334 h -2.94 v -33.13334 h 4.06 v 13.95334 q 1.49333,-1.58667 3.26667,-2.33334 1.82,-0.74666 3.78,-0.74666 4.2,0 6.62666,2.98666 2.47334,2.98667 2.47334,8.30667 z m -4.29334,0.0467 q 0,-3.64 -1.54,-5.78667 -1.54,-2.19333 -4.34,-2.19333 -1.77333,0 -3.22,0.79333 -1.44666,0.79333 -2.75333,2.24 v 10.64 q 0.98,1.12 2.19333,1.82 1.26,0.65333 2.89334,0.65333 1.30666,0 2.52,-0.46666 1.26,-0.46667 2.19333,-1.44667 0.93333,-1.02667 1.49333,-2.56667 0.56,-1.54 0.56,-3.68666 z"
         style="font-style:normal;font-variant:normal;font-weight:normal;font-stretch:normal;font-size:46.66666794px;font-family:'Ek Mukta';-inkscape-font-specification:'Ek Mukta';letter-spacing:-2.4000001px"
         id="path4530" /><path
         d="m 395.06006,488.62376 h 4.10666 v 21.93334 h -3.22 l -0.56,-2.75334 h -0.18666 q -1.21334,1.35334 -3.03334,2.28667 -1.77333,0.88667 -4.15333,0.88667 -3.40667,0 -5.55333,-1.91333 -2.1,-1.96001 -2.1,-5.88001 v -14.56 h 4.10666 v 14.04667 q 0,1.4 0.32667,2.38 0.37333,0.98 0.93333,1.58667 0.60667,0.56 1.4,0.84 0.79334,0.23333 1.72667,0.23333 1.86667,0 3.36,-0.79333 1.49333,-0.79334 2.84667,-2.19334 z"
         style="font-style:normal;font-variant:normal;font-weight:normal;font-stretch:normal;font-size:46.66666794px;font-family:'Ek Mukta';-inkscape-font-specification:'Ek Mukta';letter-spacing:-2.4000001px"
         id="path4532" /><path
         d="m 415.43631,492.73043 q -1.54,-0.74667 -2.8,-1.02667 -1.26,-0.28 -2.52,-0.28 -2.24,0 -3.31333,0.84 -1.07334,0.79334 -1.07334,2.14667 0,0.98 0.74667,1.72667 0.74667,0.7 3.12667,1.4 l 1.4,0.42 q 3.12666,0.93333 4.71333,2.42666 1.63334,1.44667 1.63334,3.96667 0,2.98667 -2.24001,4.80667 -2.19333,1.82 -6.16,1.82 -2.1,0 -4.06,-0.37333 -1.91333,-0.37334 -3.31333,-1.02667 l 0.98,-3.22 q 1.35333,0.65333 2.94,1.07333 1.58667,0.37333 3.22,0.37333 2.1,0 3.31333,-0.74666 1.26,-0.74667 1.26,-2.47334 0,-1.49333 -1.07333,-2.1 -1.07333,-0.65333 -3.08,-1.26 l -1.44667,-0.46666 q -3.03333,-0.98 -4.52666,-2.42667 -1.44667,-1.49333 -1.44667,-3.82667 0,-1.4 0.60667,-2.56666 0.60666,-1.16667 1.63333,-1.96 1.07333,-0.79334 2.52,-1.21334 1.44667,-0.46666 3.17333,-0.46666 1.63334,0 3.36,0.32666 1.77334,0.28 3.36001,0.98 z"
         style="font-style:normal;font-variant:normal;font-weight:normal;font-stretch:normal;font-size:46.66666794px;font-family:'Ek Mukta';-inkscape-font-specification:'Ek Mukta';letter-spacing:-2.4000001px"
         id="path4534" /><path
         d="m 420.32799,510.5571 v -21.93334 h 4.10667 v 21.93334 z m 2.05334,-27.58 q -1.07334,0 -1.86667,-0.7 -0.74667,-0.74667 -0.74667,-1.82 0,-1.07334 0.74667,-1.82 0.79333,-0.74667 1.86667,-0.74667 1.02666,0 1.82,0.74667 0.79333,0.74666 0.79333,1.82 0,1.07333 -0.79333,1.82 -0.79334,0.7 -1.82,0.7 z"
         style="font-style:normal;font-variant:normal;font-weight:normal;font-stretch:normal;font-size:46.66666794px;font-family:'Ek Mukta';-inkscape-font-specification:'Ek Mukta';letter-spacing:-2.4000001px"
         id="path4536" /><path
         d="m 432.86568,510.5571 h -4.10667 v -21.93334 h 3.22 l 0.60667,3.03334 q 1.63333,-1.63334 3.40667,-2.47334 1.82,-0.88666 4.15333,-0.88666 3.36,0 5.27333,1.91333 1.91334,1.86667 1.91334,5.22667 v 15.12 h -4.10667 v -14.51334 q 0,-2.00666 -1.07333,-3.17333 -1.02667,-1.21333 -3.17334,-1.21333 -3.26666,0 -6.11333,2.94 z"
         style="font-style:normal;font-variant:normal;font-weight:normal;font-stretch:normal;font-size:46.66666794px;font-family:'Ek Mukta';-inkscape-font-specification:'Ek Mukta';letter-spacing:-2.4000001px"
         id="path4538" /><path
         d="m 469.9085,500.0571 h -15.72667 v 0.18666 q 0,3.64 1.96,5.6 2.00667,1.96 5.41333,1.96 1.77334,0 3.12667,-0.28 1.4,-0.28 3.03333,-0.93333 l 0.84,3.03334 q -1.35333,0.60666 -3.22,0.98 -1.82,0.37333 -3.92,0.37333 -2.38,0 -4.48,-0.65333 -2.05333,-0.65334 -3.64,-2.00667 -1.58666,-1.4 -2.52,-3.54667 -0.88666,-2.14667 -0.88666,-5.13333 0,-2.56667 0.74666,-4.66667 0.79334,-2.1 2.19334,-3.54667 1.4,-1.49333 3.36,-2.28666 2.00666,-0.84 4.48,-0.84 2.1,0 3.78,0.7 1.72666,0.7 2.94,1.96 1.21333,1.26 1.86666,3.03333 0.65334,1.77333 0.65334,3.92 z m -4.24667,-2.94 q 0,-1.21334 -0.32667,-2.24 -0.28,-1.07334 -0.93333,-1.86667 -0.60667,-0.79333 -1.58667,-1.26 -0.98,-0.46667 -2.38,-0.46667 -2.56666,0 -4.2,1.63334 -1.58666,1.63333 -1.96,4.29333 z"
         style="font-style:normal;font-variant:normal;font-weight:normal;font-stretch:normal;font-size:46.66666794px;font-family:'Ek Mukta';-inkscape-font-specification:'Ek Mukta';letter-spacing:-2.4000001px"
         id="path4540" /><path
         d="m 484.67746,492.73043 q -1.54,-0.74667 -2.8,-1.02667 -1.26,-0.28 -2.52,-0.28 -2.24,0 -3.31333,0.84 -1.07334,0.79334 -1.07334,2.14667 0,0.98 0.74667,1.72667 0.74667,0.7 3.12667,1.4 l 1.4,0.42 q 3.12666,0.93333 4.71333,2.42666 1.63333,1.44667 1.63333,3.96667 0,2.98667 -2.24,4.80667 -2.19333,1.82 -6.16,1.82 -2.1,0 -4.06,-0.37333 -1.91333,-0.37334 -3.31333,-1.02667 l 0.98,-3.22 q 1.35333,0.65333 2.94,1.07333 1.58667,0.37333 3.22,0.37333 2.1,0 3.31333,-0.74666 1.26,-0.74667 1.26,-2.47334 0,-1.49333 -1.07333,-2.1 -1.07333,-0.65333 -3.08,-1.26 l -1.44667,-0.46666 q -3.03333,-0.98 -4.52666,-2.42667 -1.44667,-1.49333 -1.44667,-3.82667 0,-1.4 0.60667,-2.56666 0.60666,-1.16667 1.63333,-1.96 1.07333,-0.79334 2.52,-1.21334 1.44667,-0.46666 3.17333,-0.46666 1.63334,0 3.36,0.32666 1.77334,0.28 3.36,0.98 z"
         style="font-style:normal;font-variant:normal;font-weight:normal;font-stretch:normal;font-size:46.66666794px;font-family:'Ek Mukta';-inkscape-font-specification:'Ek Mukta';letter-spacing:-2.4000001px"
         id="path4542" /><path
         d="m 501.23578,492.73043 q -1.54,-0.74667 -2.8,-1.02667 -1.26,-0.28 -2.52,-0.28 -2.24,0 -3.31333,0.84 -1.07334,0.79334 -1.07334,2.14667 0,0.98 0.74667,1.72667 0.74667,0.7 3.12667,1.4 l 1.4,0.42 q 3.12666,0.93333 4.71333,2.42666 1.63333,1.44667 1.63333,3.96667 0,2.98667 -2.24,4.80667 -2.19333,1.82 -6.16,1.82 -2.1,0 -4.06,-0.37333 -1.91333,-0.37334 -3.31333,-1.02667 l 0.98,-3.22 q 1.35333,0.65333 2.94,1.07333 1.58667,0.37333 3.22,0.37333 2.1,0 3.31333,-0.74666 1.26,-0.74667 1.26,-2.47334 0,-1.49333 -1.07333,-2.1 -1.07333,-0.65333 -3.08,-1.26 l -1.44667,-0.46666 q -3.03333,-0.98 -4.52666,-2.42667 -1.44667,-1.49333 -1.44667,-3.82667 0,-1.4 0.60667,-2.56666 0.60666,-1.16667 1.63333,-1.96 1.07333,-0.79334 2.52,-1.21334 1.44667,-0.46666 3.17333,-0.46666 1.63334,0 3.36,0.32666 1.77334,0.28 3.36,0.98 z"
         style="font-style:normal;font-variant:normal;font-weight:normal;font-stretch:normal;font-size:46.66666794px;font-family:'Ek Mukta';-inkscape-font-specification:'Ek Mukta';letter-spacing:-2.4000001px"
         id="path4544" /><path
         d="m 504.8208,508.0371 q 0,-1.21334 0.84,-2.05334 0.84,-0.84 2.00666,-0.84 1.16667,0 1.96,0.84 0.84,0.84 0.84,2.05334 0,1.35333 -0.84,2.14667 -0.79333,0.79333 -1.96,0.79333 -1.16666,0 -2.00666,-0.79333 -0.84,-0.79334 -0.84,-2.14667 z"
         style="font-style:normal;font-variant:normal;font-weight:normal;font-stretch:normal;font-size:46.66666794px;font-family:'Ek Mukta';-inkscape-font-specification:'Ek Mukta';letter-spacing:-2.4000001px"
         id="path4546" /><path
         d="m 522.49515,481.1571 4.99334,17.31333 q 0.18666,0.56 0.37333,1.44667 0.23333,0.84 0.46667,1.82 0.23333,0.93333 0.42,1.91333 0.18666,0.93333 0.28,1.77333 h 0.0933 q 0.14,-0.84 0.32667,-1.77333 0.23333,-0.98 0.46666,-1.91333 0.23334,-0.98 0.42,-1.82 0.23334,-0.84 0.42,-1.44667 l 5.13334,-17.31333 h 3.82666 l 5.32,17.31333 q 0.18667,0.60667 0.37334,1.44667 0.23333,0.84 0.42,1.77333 0.23333,0.93333 0.42,1.91333 0.23333,0.98 0.37333,1.82 h 0.0933 q 0.14,-0.88666 0.32667,-1.86666 0.23333,-0.98 0.46667,-1.91334 0.23333,-0.98 0.42,-1.77333 0.23333,-0.84 0.37333,-1.4 l 4.80667,-17.31333 h 4.34 l -8.63334,29.4 h -4.34 l -4.48,-15.63334 q -0.32666,-1.16666 -0.65333,-2.19333 -0.28,-1.02667 -0.56,-1.96 -0.23333,-0.93333 -0.51333,-1.86667 -0.23334,-0.98 -0.51334,-2.05333 h -0.0933 q -0.46667,2.1 -1.02667,4.2 -0.56,2.1 -1.07333,3.87333 l -4.34,15.63334 h -4.29333 l -8.82,-29.4 z"
         style="font-style:normal;font-variant:normal;font-weight:normal;font-stretch:normal;font-size:46.66666794px;font-family:'Ek Mukta';-inkscape-font-specification:'Ek Mukta';letter-spacing:-2.4000001px"
         id="path4548" /><path
         d="m 577.27935,500.0571 h -15.72667 v 0.18666 q 0,3.64 1.96,5.6 2.00667,1.96 5.41333,1.96 1.77334,0 3.12667,-0.28 1.4,-0.28 3.03333,-0.93333 l 0.84,3.03334 q -1.35333,0.60666 -3.22,0.98 -1.82,0.37333 -3.92,0.37333 -2.38,0 -4.48,-0.65333 -2.05333,-0.65334 -3.64,-2.00667 -1.58666,-1.4 -2.52,-3.54667 -0.88666,-2.14667 -0.88666,-5.13333 0,-2.56667 0.74666,-4.66667 0.79334,-2.1 2.19334,-3.54667 1.4,-1.49333 3.36,-2.28666 2.00666,-0.84 4.48,-0.84 2.1,0 3.78,0.7 1.72666,0.7 2.94,1.96 1.21333,1.26 1.86666,3.03333 0.65334,1.77333 0.65334,3.92 z m -4.24667,-2.94 q 0,-1.21334 -0.32667,-2.24 -0.28,-1.07334 -0.93333,-1.86667 -0.60667,-0.79333 -1.58667,-1.26 -0.98,-0.46667 -2.38,-0.46667 -2.56666,0 -4.2,1.63334 -1.58666,1.63333 -1.96,4.29333 z"
         style="font-style:normal;font-variant:normal;font-weight:normal;font-stretch:normal;font-size:46.66666794px;font-family:'Ek Mukta';-inkscape-font-specification:'Ek Mukta';letter-spacing:-2.4000001px"
         id="path4550" /><path
         d="m 587.95224,490.58376 q 1.12,-0.56 2.1,-0.98 0.98,-0.46666 1.96,-0.74666 0.98,-0.28 2.00667,-0.42 1.02667,-0.14 2.24,-0.14 1.82,0 3.31334,0.42 1.54,0.37333 2.61333,1.30666 1.12,0.93334 1.72667,2.47334 0.60666,1.49333 0.60666,3.78 v 14.28 h -3.40666 l -0.51334,-2.42667 h -0.0933 q -1.44667,1.54 -3.17333,2.19334 -1.72667,0.65333 -3.82667,0.65333 -1.58667,0 -2.94,-0.42 -1.30667,-0.46667 -2.28667,-1.26 -0.98,-0.84 -1.54,-2.00667 -0.51333,-1.16667 -0.51333,-2.61333 0,-3.45334 2.70666,-5.22667 2.75334,-1.82 7.23334,-1.82 h 4.2 v -1.86667 q 0,-2.38 -1.21333,-3.22 -1.21334,-0.88666 -3.26667,-0.88666 -1.21334,0 -2.8,0.42 -1.54,0.37333 -3.54667,1.49333 z m 12.46001,9.84667 -3.45334,0.0933 q -3.5,0.0933 -4.99333,1.26 -1.44667,1.12 -1.44667,2.75334 0,0.98 0.32667,1.68 0.32666,0.65333 0.84,1.02666 0.56,0.37334 1.26,0.56 0.74666,0.14 1.54,0.14 1.54,0 3.12667,-0.7 1.58666,-0.74666 2.8,-2.33333 z"
         style="font-style:normal;font-variant:normal;font-weight:normal;font-stretch:normal;font-size:46.66666794px;font-family:'Ek Mukta';-inkscape-font-specification:'Ek Mukta';letter-spacing:-2.4000001px"
         id="path4552" /><path
         d="m 608.01205,510.5571 v -21.93334 h 3.08 l 0.7,4.38667 q 0.79334,-2.1 2.61334,-3.40667 1.82,-1.30666 4.2,-1.30666 1.21333,0 2.00666,0.18666 0.79334,0.18667 1.44667,0.46667 l -0.79333,3.59333 q -0.56,-0.28 -1.26,-0.46666 -0.65334,-0.18667 -1.58667,-0.18667 -1.35333,0 -2.52,0.46667 -1.12,0.46666 -2.00667,1.4 -0.84,0.93333 -1.35333,2.33333 -0.46667,1.35333 -0.46667,3.12667 v 11.34 z"
         style="font-style:normal;font-variant:normal;font-weight:normal;font-stretch:normal;font-size:46.66666794px;font-family:'Ek Mukta';-inkscape-font-specification:'Ek Mukta';letter-spacing:-2.4000001px"
         id="path4554" /><path
         d="m 641.68975,500.0571 h -15.72667 v 0.18666 q 0,3.64 1.96,5.6 2.00667,1.96 5.41333,1.96 1.77334,0 3.12667,-0.28 1.4,-0.28 3.03333,-0.93333 l 0.84,3.03334 q -1.35333,0.60666 -3.22,0.98 -1.82,0.37333 -3.92,0.37333 -2.38,0 -4.48,-0.65333 -2.05333,-0.65334 -3.64,-2.00667 -1.58666,-1.4 -2.52,-3.54667 -0.88666,-2.14667 -0.88666,-5.13333 0,-2.56667 0.74666,-4.66667 0.79334,-2.1 2.19334,-3.54667 1.4,-1.49333 3.36,-2.28666 2.00666,-0.84 4.48,-0.84 2.1,0 3.78,0.7 1.72666,0.7 2.94,1.96 1.21333,1.26 1.86666,3.03333 0.65334,1.77333 0.65334,3.92 z m -4.24667,-2.94 q 0,-1.21334 -0.32667,-2.24 -0.28,-1.07334 -0.93333,-1.86667 -0.60667,-0.79333 -1.58667,-1.26 -0.98,-0.46667 -2.38,-0.46667 -2.56666,0 -4.2,1.63334 -1.58666,1.63333 -1.96,4.29333 z"
         style="font-style:normal;font-variant:normal;font-weight:normal;font-stretch:normal;font-size:46.66666794px;font-family:'Ek Mukta';-inkscape-font-specification:'Ek Mukta';letter-spacing:-2.4000001px"
         id="path4556" /><path
         d="m 662.25598,481.1571 q 3.12667,0 5.78667,0.88666 2.66,0.88667 4.57333,2.66 1.96,1.72667 3.03333,4.38667 1.12,2.61333 1.12,6.11333 0,4.24667 -1.30666,7.18667 -1.30667,2.94 -3.54667,4.76 -2.19333,1.82 -5.13333,2.61334 -2.89334,0.79333 -6.16,0.79333 h -7.93334 v -29.4 z m -5.27333,25.85333 h 3.22 q 2.24,0 4.38666,-0.46667 2.14667,-0.51333 3.78,-1.82 1.68,-1.35333 2.70667,-3.64 1.02667,-2.28666 1.02667,-5.88 0,-2.52 -0.74667,-4.48 -0.74667,-1.96 -2.14667,-3.26666 -1.4,-1.35334 -3.40666,-2.05334 -1.96,-0.7 -4.38667,-0.7 h -4.43333 z"
         style="font-style:normal;font-variant:normal;font-weight:normal;font-stretch:normal;font-size:46.66666794px;font-family:'Ek Mukta';-inkscape-font-specification:'Ek Mukta';letter-spacing:-2.4000001px"
         id="path4558" /><path
         d="m 698.38295,500.0571 h -15.72666 v 0.18666 q 0,3.64 1.96,5.6 2.00666,1.96 5.41333,1.96 1.77333,0 3.12667,-0.28 1.4,-0.28 3.03333,-0.93333 l 0.84,3.03334 q -1.35333,0.60666 -3.22,0.98 -1.82,0.37333 -3.92,0.37333 -2.38,0 -4.48,-0.65333 -2.05333,-0.65334 -3.64,-2.00667 -1.58667,-1.4 -2.52,-3.54667 -0.88667,-2.14667 -0.88667,-5.13333 0,-2.56667 0.74667,-4.66667 0.79333,-2.1 2.19333,-3.54667 1.4,-1.49333 3.36,-2.28666 2.00667,-0.84 4.48,-0.84 2.1,0 3.78,0.7 1.72667,0.7 2.94,1.96 1.21334,1.26 1.86667,3.03333 0.65333,1.77333 0.65333,3.92 z m -4.24666,-2.94 q 0,-1.21334 -0.32667,-2.24 -0.28,-1.07334 -0.93333,-1.86667 -0.60667,-0.79333 -1.58667,-1.26 -0.98,-0.46667 -2.38,-0.46667 -2.56667,0 -4.2,1.63334 -1.58667,1.63333 -1.96,4.29333 z"
         style="font-style:normal;font-variant:normal;font-weight:normal;font-stretch:normal;font-size:46.66666794px;font-family:'Ek Mukta';-inkscape-font-specification:'Ek Mukta';letter-spacing:-2.4000001px"
         id="path4560" /><path
         d="m 714.31862,488.62376 h 4.38666 l -8.16666,21.93334 h -4.01334 l -8.26,-21.93334 h 4.43334 l 4.94666,15.07334 0.84,3.45333 h 0.18667 l 0.79333,-3.40667 z"
         style="font-style:normal;font-variant:normal;font-weight:normal;font-stretch:normal;font-size:46.66666794px;font-family:'Ek Mukta';-inkscape-font-specification:'Ek Mukta';letter-spacing:-2.4000001px"
         id="path4562" /><path
         d="m 732.96015,480.7371 q 2.98667,0 5.50667,0.98 2.52,0.93333 4.34,2.84666 1.86667,1.86667 2.89333,4.71334 1.02667,2.8 1.02667,6.58 0,3.68666 -1.07333,6.53333 -1.07334,2.8 -2.94,4.71333 -1.86667,1.91334 -4.43334,2.89334 -2.52,0.98 -5.50666,0.98 -2.98667,0 -5.50667,-0.93333 -2.52,-0.98 -4.38667,-2.84667 -1.82,-1.91334 -2.84666,-4.71334 -1.02667,-2.84666 -1.02667,-6.62666 0,-3.68667 1.07333,-6.48667 1.07334,-2.84667 2.94,-4.76 1.86667,-1.91333 4.38667,-2.89333 2.56667,-0.98 5.55333,-0.98 z m -9.28666,15.12 q 0,2.98666 0.7,5.18 0.74666,2.19333 2.00666,3.64 1.26,1.44666 2.94,2.14666 1.72667,0.7 3.64,0.7 1.91334,0 3.54667,-0.7 1.68,-0.7 2.89333,-2.14666 1.26,-1.44667 1.96,-3.64 0.7,-2.19334 0.7,-5.18 0,-3.08 -0.74666,-5.27334 -0.7,-2.19333 -1.96,-3.59333 -1.26,-1.44667 -2.98667,-2.1 -1.68,-0.7 -3.59333,-0.7 -1.91334,0 -3.59334,0.7 -1.68,0.7 -2.89333,2.14667 -1.21333,1.44666 -1.91333,3.64 -0.7,2.19333 -0.7,5.18 z"
         style="font-style:normal;font-variant:normal;font-weight:normal;font-stretch:normal;font-size:46.66666794px;font-family:'Ek Mukta';-inkscape-font-specification:'Ek Mukta';letter-spacing:-2.4000001px"
         id="path4564" /><path
         d="m 758.72571,510.9771 q -1.49333,0 -2.89333,-0.42 -1.35334,-0.42 -2.33334,-1.12 v 11.85333 h -4.06 V 488.2971 h 3.40667 l 0.60667,2.84666 q 1.26,-1.16666 2.84666,-2.00666 1.58667,-0.84 3.73334,-0.84 4.38666,0 6.90666,2.8 2.52,2.8 2.52,8.02666 0,3.08 -0.93333,5.32 -0.88667,2.24 -2.42667,3.68667 -1.49333,1.44667 -3.45333,2.14667 -1.91333,0.7 -3.92,0.7 z m 0.42,-19.32 q -1.96,0 -3.40667,0.98 -1.44666,0.93333 -2.24,1.91333 v 11.71333 q 1.07334,0.79334 2.28667,1.16667 1.21333,0.37333 2.42667,0.37333 1.26,0 2.52,-0.42 1.26,-0.46666 2.24,-1.49333 0.98,-1.02667 1.58666,-2.66 0.60667,-1.63333 0.60667,-4.01333 0,-3.5 -1.49333,-5.50667 -1.44667,-2.05333 -4.52667,-2.05333 z"
         style="font-style:normal;font-variant:normal;font-weight:normal;font-stretch:normal;font-size:46.66666794px;font-family:'Ek Mukta';-inkscape-font-specification:'Ek Mukta';letter-spacing:-2.4000001px"
         id="path4566" /><path
         d="m 784.33737,492.73043 q -1.54,-0.74667 -2.8,-1.02667 -1.26,-0.28 -2.52,-0.28 -2.24,0 -3.31333,0.84 -1.07333,0.79334 -1.07333,2.14667 0,0.98 0.74666,1.72667 0.74667,0.7 3.12667,1.4 l 1.4,0.42 q 3.12667,0.93333 4.71333,2.42666 1.63334,1.44667 1.63334,3.96667 0,2.98667 -2.24,4.80667 -2.19334,1.82 -6.16,1.82 -2.1,0 -4.06,-0.37333 -1.91334,-0.37334 -3.31334,-1.02667 l 0.98,-3.22 q 1.35334,0.65333 2.94,1.07333 1.58667,0.37333 3.22,0.37333 2.1,0 3.31334,-0.74666 1.26,-0.74667 1.26,-2.47334 0,-1.49333 -1.07334,-2.1 -1.07333,-0.65333 -3.08,-1.26 l -1.44666,-0.46666 q -3.03334,-0.98 -4.52667,-2.42667 -1.44667,-1.49333 -1.44667,-3.82667 0,-1.4 0.60667,-2.56666 0.60667,-1.16667 1.63333,-1.96 1.07334,-0.79334 2.52,-1.21334 1.44667,-0.46666 3.17334,-0.46666 1.63333,0 3.36,0.32666 1.77333,0.28 3.36,0.98 z"
         style="font-style:normal;font-variant:normal;font-weight:normal;font-stretch:normal;font-size:46.66666794px;font-family:'Ek Mukta';-inkscape-font-specification:'Ek Mukta';letter-spacing:-2.4000001px"
         id="path4568" /><path
         d="m 787.92239,508.0371 q 0,-1.21334 0.84,-2.05334 0.84,-0.84 2.00667,-0.84 1.16666,0 1.96,0.84 0.84,0.84 0.84,2.05334 0,1.35333 -0.84,2.14667 -0.79334,0.79333 -1.96,0.79333 -1.16667,0 -2.00667,-0.79333 -0.84,-0.79334 -0.84,-2.14667 z"
         style="font-style:normal;font-variant:normal;font-weight:normal;font-stretch:normal;font-size:46.66666794px;font-family:'Ek Mukta';-inkscape-font-specification:'Ek Mukta';letter-spacing:-2.4000001px"
         id="path4570" /></g></g></svg>