<?xml version="1.0" encoding="UTF-8" standalone="no"?>
<!-- Created with Inkscape (http://www.inkscape.org/) -->

<svg
   xmlns:dc="http://purl.org/dc/elements/1.1/"
   xmlns:cc="http://creativecommons.org/ns#"
   xmlns:rdf="http://www.w3.org/1999/02/22-rdf-syntax-ns#"
   xmlns:svg="http://www.w3.org/2000/svg"
   xmlns="http://www.w3.org/2000/svg"
   xmlns:sodipodi="http://sodipodi.sourceforge.net/DTD/sodipodi-0.dtd"
   xmlns:inkscape="http://www.inkscape.org/namespaces/inkscape"
   width="351.86533"
   height="192.05264"
   id="svg2"
   version="1.1"
   inkscape:version="0.92.1 r15371"
   sodipodi:docname="thoughtworks_logo.svg"
   enable-background="new">
  <defs
     id="defs4">
    <clipPath
       id="clipPath3020"
       clipPathUnits="userSpaceOnUse">
      <path
         id="path3022"
         d="M 0,0 H 2814.9227 V 435.2 H 0 Z"
         inkscape:connector-curvature="0"
         style="stroke-width:1.06666672" />
    </clipPath>
    <filter
       inkscape:collect="always"
       style="color-interpolation-filters:sRGB"
       id="filter6455">
      <feBlend
         inkscape:collect="always"
         mode="screen"
         in2="BackgroundImage"
         id="feBlend6457" />
    </filter>
  </defs>
  <sodipodi:namedview
     id="base"
     pagecolor="#ffffff"
     bordercolor="#666666"
     borderopacity="1.0"
     inkscape:pageopacity="0.0"
     inkscape:pageshadow="2"
     inkscape:zoom="1.4"
     inkscape:cx="239.39327"
     inkscape:cy="-9.3099485"
     inkscape:document-units="px"
     inkscape:current-layer="layer1"
     showgrid="false"
     inkscape:window-width="1920"
     inkscape:window-height="1017"
     inkscape:window-x="-8"
     inkscape:window-y="-8"
     inkscape:window-maximized="1"
     fit-margin-top="0"
     fit-margin-left="0"
     fit-margin-right="0"
     fit-margin-bottom="0" />
  <metadata
     id="metadata7">
    <rdf:RDF>
      <cc:Work
         rdf:about="">
        <dc:format>image/svg+xml</dc:format>
        <dc:type
           rdf:resource="http://purl.org/dc/dcmitype/StillImage" />
        <dc:title></dc:title>
      </cc:Work>
    </rdf:RDF>
  </metadata>
  <g
     inkscape:label="Layer 1"
     inkscape:groupmode="layer"
     id="layer1"
     transform="translate(-224.06733,-403.00036)"
     style="filter:url(#filter6455)">
    <g
       transform="matrix(1.25,0,0,-1.25,224.06733,526.22668)"
       inkscape:label="ink_ext_XXXXXX"
       id="g3012"
       style="fill:#000000;fill-opacity:1"
       inkscape:export-filename="/Users/pkua/Desktop/thoughtworks-black.png"
       inkscape:export-xdpi="352.17999"
       inkscape:export-ydpi="352.17999">
      <g
         transform="scale(0.1)"
         id="g3014"
         style="fill:#000000;fill-opacity:1">
        <g
           id="g3016"
           style="fill:#000000;fill-opacity:1">
          <g
             clip-path="url(#clipPath3020)"
             id="g3018"
             style="fill:#000000;fill-opacity:1">
            <path
               id="path3024"
               style="fill:#000000;fill-opacity:1;fill-rule:nonzero;stroke:none;stroke-width:1.06666672"
               d="m 2779.872,300.4288 c 4.8213,-0.11627 8.1707,1.00907 8.1707,6.27093 0,5.8208 -6.1654,5.37494 -10.2934,5.37494 h -9.6426 V 300.4288 Z m 15.1147,-24.53333 h -10.2934 l -9.5253,18.0416 h -7.0613 v -18.0416 h -8.96 V 318.688 h 20.608 c 11.2106,0 16.5866,-3.02933 16.5866,-13.10507 0,-7.84106 -4.1493,-11.0912 -11.648,-11.64586 z m 9.5146,21.6256 c 0,17.58293 -12.2026,30.1248 -29.1093,30.1248 -17.248,0 -29.12,-12.54187 -29.12,-30.1248 0,-17.81227 11.872,-30.23787 29.12,-30.23787 16.9067,0 29.1093,12.4256 29.1093,30.23787 z m -68.64,0 c 0,21.72906 17.5787,39.41653 39.5307,39.41653 21.728,0 39.5307,-17.68747 39.5307,-39.41653 0,-21.9584 -17.8027,-39.65867 -39.5307,-39.65867 -21.952,0 -39.5307,17.70027 -39.5307,39.65867"
               inkscape:connector-curvature="0" />
            <path
               id="path3026"
               style="fill:#000000;fill-opacity:1;fill-rule:nonzero;stroke:none;stroke-width:1.06666672"
               d="M 252.78293,376.0128 H 161.6 V 84.41664 H 91.18336 V 376.0128 H 0 v 59.58293 H 252.78293 V 376.0128"
               inkscape:connector-curvature="0" />
            <path
               id="path3028"
               style="fill:#000000;fill-opacity:1;fill-rule:nonzero;stroke:none;stroke-width:1.06666672"
               d="m 346.2208,311.01227 c 21.21707,17.60426 47.39627,31.60426 75.38347,31.60426 27.53706,0 66.35413,-16.71253 66.35413,-78.99946 V 84.41664 h -66.80853 v 152.11243 c 0,20.3168 1.35466,52.36693 -27.5328,52.36693 -19.40907,0 -34.7584,-14 -47.39627,-27.54133 V 84.41664 H 279.41653 V 435.59573 H 346.2208 V 311.01227"
               inkscape:connector-curvature="0" />
            <path
               id="path3030"
               style="fill:#000000;fill-opacity:1;fill-rule:nonzero;stroke:none;stroke-width:1.06666672"
               d="m 668.96213,210.80427 c 0,31.60426 -6.3168,82.60373 -42.42453,82.60373 -36.11627,0 -42.43307,-50.99947 -42.43307,-82.60373 0,-31.59574 6.3168,-82.60374 42.43307,-82.60374 36.10773,0 42.42453,51.008 42.42453,82.60374 z m -153.47093,0 c 0,67.25866 37.01333,131.81226 111.0464,131.81226 74.02453,0 111.04107,-64.5536 111.04107,-131.81226 C 737.57867,144 700.11627,79 626.5376,79 552.95787,79 515.4912,144 515.4912,210.80427"
               inkscape:connector-curvature="0" />
            <path
               id="path3032"
               style="fill:#000000;fill-opacity:1;fill-rule:nonzero;stroke:none;stroke-width:1.06666672"
               d="M 908.6496,110.59627 C 887.43787,92.99168 861.2544,79 833.2704,79 805.73333,79 766.91627,95.700053 766.91627,157.99147 V 337.2 h 66.80426 V 185.0752 c 0,-20.31253 -1.3536,-52.36693 27.53387,-52.36693 19.41227,0 34.76267,14 47.3952,27.54133 V 337.2 h 66.80853 V 84.41664 H 908.6496 v 26.17963"
               inkscape:connector-curvature="0" />
            <path
               id="path3034"
               style="fill:#000000;fill-opacity:1;fill-rule:nonzero;stroke:none;stroke-width:1.06666672"
               d="m 1109.5253,209.89547 c 27.9894,0 36.1174,23.0208 36.1174,46.9504 0,23.0208 -10.8374,42.43733 -36.1174,42.43733 -27.9786,0 -36.5653,-23.47947 -36.5653,-47.408 0,-23.0208 10.8373,-41.97973 36.5653,-41.97973 z M 1063.4795,83.958293 c -6.3168,-4.062506 -10.3798,-7.666666 -10.3798,-15.8 0,-23.470826 47.4016,-24.82496 63.199,-24.82496 11.2853,0 69.9626,1.354134 69.9626,21.666667 0,13.095787 -9.024,11.741653 -48.7466,14 z m 21.2138,83.512637 c -7.6693,0 -18.96,-4.06293 -18.96,-15.80373 0,-32.94613 175.152,24.3744 175.152,-74.47968 C 1240.8853,39.720853 1215.6053,0 1115.392,0 1028.2709,0 998.47893,30.699947 998.47893,63.645867 c 0,19.41664 12.18777,29.345813 27.53817,38.374933 -10.8342,8.12533 -19.8667,17.60373 -19.8667,32.04213 0,24.83307 13.5413,37.91574 32.9536,50.56214 -18.5045,18.0544 -31.6,40.62506 -31.6,69.51253 0,55.97867 47.3963,88.47893 102.0213,88.47893 22.1227,0 43.3387,-6.32533 62.2934,-17.60426 13.536,12.6336 25.728,20.7584 45.5893,20.7584 6.3253,0 13.088,-0.44587 19.4133,-1.79947 v -46.9504 c -6.7733,2.70827 -13.9946,5.41653 -21.216,5.41653 -7.2213,0 -11.7333,-2.25813 -18.0586,-5.41653 7.2213,-13.54133 13.0986,-28.43733 13.5466,-42.8832 0,-55.9712 -46.944,-88.47147 -101.568,-88.47147 l -24.832,1.8048"
               inkscape:connector-curvature="0" />
            <path
               id="path3036"
               style="fill:#000000;fill-opacity:1;fill-rule:nonzero;stroke:none;stroke-width:1.06666672"
               d="m 1332.512,311.01227 c 21.2267,17.60426 47.4027,31.60426 75.392,31.60426 27.5307,0 66.3467,-16.71253 66.3467,-78.99946 V 84.41664 h -66.8054 v 152.11243 c 0,20.3168 1.3547,52.36693 -27.5306,52.36693 -19.4134,0 -34.7627,-14 -47.4027,-27.54133 V 84.41664 h -66.8053 v 351.17909 h 66.8053 V 311.01227"
               inkscape:connector-curvature="0" />
            <path
               id="path3038"
               style="fill:#000000;fill-opacity:1;fill-rule:nonzero;stroke:none;stroke-width:1.06666672"
               d="m 1595.68,337.2 h 51.904 V 281.66613 H 1595.68 V 153.0208 c 0,-12.18773 3.6053,-24.82027 25.2693,-24.82027 11.2854,0 18.5174,4.50774 26.6347,9.4784 V 86.666667 C 1633.5893,82.60416 1619.1467,79 1604.704,79 c -41.5253,0 -75.8293,23.47083 -75.8293,78.54133 v 124.1248 H 1497.728 V 337.2 h 31.1467 v 63.1872 H 1595.68 V 337.2"
               inkscape:connector-curvature="0" />
            <path
               id="path3040"
               style="fill:#000000;fill-opacity:1;fill-rule:nonzero;stroke:none;stroke-width:1.06666672"
               d="m 1925.6427,84.41664 h -36.1067 l -59.584,287.08309 h -0.9067 l -62.752,-287.08309 h -36.1066 l -73.5787,351.17909 h 35.2107 L 1749.6,152.1248 h 0.896 l 63.2,283.47093 h 34.752 l 60.0427,-283.47093 h 0.896 l 61.8453,283.47093 h 34.7627 l -80.352,-351.17909"
               inkscape:connector-curvature="0" />
            <path
               id="path3042"
               style="fill:#000000;fill-opacity:1;fill-rule:nonzero;stroke:none;stroke-width:1.06666672"
               d="m 2154.944,209.00053 c 0,42.4288 -10.3787,102.01174 -64.544,102.01174 -54.176,0 -64.5547,-59.58294 -64.5547,-102.01174 0,-42.4384 10.3787,-102.02133 64.5547,-102.02133 54.1653,0 64.544,59.58293 64.544,102.02133 z m -164.3093,0 c 0,93.4368 44.2453,131.80374 99.7653,131.80374 55.52,0 99.7547,-38.36694 99.7547,-131.80374 0,-93.43786 -44.2347,-131.81301 -99.7547,-131.81301 -55.52,0 -99.7653,38.37515 -99.7653,131.81301"
               inkscape:connector-curvature="0" />
            <path
               id="path3044"
               style="fill:#000000;fill-opacity:1;fill-rule:nonzero;stroke:none;stroke-width:1.06666672"
               d="m 2252.896,279.86667 h 0.9067 c 13.984,29.792 32.0426,57.33333 69.056,57.33333 h 13.5466 v -32.0544 c -46.048,6.32533 -69.9626,-43.33333 -83.5093,-79.44533 V 84.41664 h -35.2107 v 249.16629 h 35.2107 v -53.71626"
               inkscape:connector-curvature="0" />
            <path
               id="path3046"
               style="fill:#000000;fill-opacity:1;fill-rule:nonzero;stroke:none;stroke-width:1.06666672"
               d="m 2400.0533,218.02133 92.5334,115.5616 h 39.2746 l -68.6186,-85.312 78.9866,-163.85429 H 2504.32 l -63.648,135.41696 -40.6187,-50.10453 V 84.41664 h -35.2106 v 351.17909 h 35.2106 v -217.5744"
               inkscape:connector-curvature="0" />
            <path
               id="path3048"
               style="fill:#000000;fill-opacity:1;fill-rule:nonzero;stroke:none;stroke-width:1.06666672"
               d="m 2694.8053,278.06293 c -13.984,20.7616 -30.6986,32.94934 -56.8746,32.94934 -23.0187,0 -44.6827,-11.72907 -44.6827,-37.01227 0,-60.9376 131.3493,-34.31253 131.3493,-118.27093 0,-48.74987 -34.7626,-78.54155 -81.696,-78.54155 -40.1813,0 -72.6826,17.60416 -92.992,52.36235 l 27.9894,17.60853 c 13.5466,-25.72907 35.2106,-40.1792 65.0026,-40.1792 25.728,0 48.7467,13.99147 48.7467,42.43733 0,62.74134 -131.3493,32.9504 -131.3493,122.32534 0,42.8832 35.2106,69.0624 76.2773,69.0624 34.7627,0 63.648,-14.43734 83.0507,-43.33334 l -24.8214,-19.408"
               inkscape:connector-curvature="0" />
          </g>
        </g>
      </g>
    </g>
  </g>
</svg>
