<?xml version="1.0" encoding="utf-8"?>
<!-- Generator: Adobe Illustrator 21.1.0, SVG Export Plug-In . SVG Version: 6.00 Build 0)  -->
<svg version="1.1" id="Layer_1" xmlns="http://www.w3.org/2000/svg" xmlns:xlink="http://www.w3.org/1999/xlink" x="0px" y="0px"
	 viewBox="0 0 1440 810" style="enable-background:new 0 0 1440 810;" xml:space="preserve">
<style type="text/css">
	.st0{fill:#FFFFFF;}
	.st1{fill:#523F7F;}
	.st2{display:none;fill:#523F7F;}
</style>
<rect class="st0" width="1440" height="810"/>
<g id="concrete_1_">
	<path class="st1" d="M359.9,430.8c-6.7-6.9-10.2-14.6-10.2-25.4c0-10.5,3.7-18.5,10.4-25.3c6.9-6.9,15.4-10.2,25.5-10.2
		c13.3-0.1,24.5,7.4,30.4,17.3l-15.1,8.9c-3.4-5.4-8.7-8.5-15.6-8.5c-10.4,0-17.9,7.5-17.9,18c0,5.3,1.7,9.7,5.2,13
		c3.3,3.2,7.5,5,12.7,5c7,0,12.4-3.3,15.7-8.6l15.2,8.8c-5.9,10.6-17.5,17.3-30.6,17.3C375,441,366.7,437.6,359.9,430.8z"/>
	<path class="st1" d="M512.9,380.2c-6.9-6.9-15.4-10.4-25.3-10.4c-10,0-18.5,3.5-25.3,10.4c-6.9,6.9-10.2,15.2-10.2,25.2
		s3.4,18.5,10.2,25.3c6.9,6.9,15.4,10.2,25.3,10.2c10,0,18.5-3.4,25.3-10.2c6.9-6.9,10.4-15.4,10.4-25.3S519.8,387.1,512.9,380.2z
		 M500.5,418.3c-3.5,3.4-7.7,5.1-12.9,5.1s-9.4-1.7-12.9-5.1c-3.3-3.4-5-7.7-5-12.9c0-5.2,1.7-9.5,5-12.9c3.5-3.4,7.7-5.1,12.9-5.1
		s9.4,1.7,12.9,5.1c3.5,3.4,5.2,7.7,5.2,12.9C505.6,410.6,503.9,414.9,500.5,418.3z"/>
	<path class="st2" d="M500.5,418.3c-3.5,3.4-7.7,5.1-12.9,5.1s-9.4-1.7-12.9-5.1c-3.3-3.4-5-7.7-5-12.9c0-5.2,1.7-9.5,5-12.9
		c3.5-3.4,7.7-5.1,12.9-5.1s9.4,1.7,12.9,5.1c3.5,3.4,5.2,7.7,5.2,12.9C505.6,410.6,503.9,414.9,500.5,418.3z"/>
	<path class="st1" d="M615,378.1c4.9,5,7.3,11.7,7.3,20.5V440h-17.4v-39.2c0-9-5.3-13.9-13.3-13.9c-9,0-14.8,5.5-14.8,16.7V440
		h-17.4v-67.4h17.4v7.5c4.2-6.3,10.9-9.4,20.1-9.4C604.2,370.7,610.3,373.1,615,378.1z"/>
	<path class="st1" d="M668.6,430.8c-6.7-6.9-10.2-14.6-10.2-25.4c0-10.5,3.7-18.5,10.4-25.3c6.9-6.9,15.4-10.2,25.5-10.2
		c13.3-0.1,24.5,7.4,30.4,17.3l-15.1,8.9c-3.4-5.4-8.7-8.5-15.6-8.5c-10.4,0-17.9,7.5-17.9,18c0,5.3,1.7,9.7,5.2,13
		c3.3,3.2,7.5,5,12.7,5c7,0,12.4-3.3,15.7-8.6l15.2,8.8c-5.9,10.6-17.5,17.3-30.6,17.3C683.8,441,675.4,437.6,668.6,430.8z"/>
	<path class="st1" d="M780.5,380.2c3.6-7.6,13.3-9.3,20.5-9.3v19.5c-5.3-0.7-10.1,0.7-14.3,3.6c-4.2,2.8-6.2,7.4-6.2,13.9V440h-17.4
		v-67.4h17.4V380.2z"/>
	<path class="st1" d="M852.7,412.5c1.2,8.5,8.8,13.9,19.2,13.9c6.6,0,11.5-3.4,13.6-5.1l12.4,8.9c-6.3,7-15.4,10.7-26.5,10.7
		c-11.2,0-20.1-3.4-26.8-10.1c-6.7-6.7-10.1-15.2-10.1-25.5c0-10.1,3.4-18.6,10-25.3c6.6-6.9,15.2-10.2,25.6-10.2
		c9.8,0,18.1,3.4,24.4,10.2c6.5,6.9,9.7,15.2,9.7,25.3c0,2.3-0.3,4.6-0.7,7.1H852.7z M886.8,399.1c-1.3-11.6-9.9-15.2-16.7-15.2
		c-7.7,0-16.4,3.6-17.7,15.2H886.8z"/>
	<path class="st1" d="M1038.9,412.5c1.2,8.5,8.8,13.9,19.2,13.9c6.6,0,11.5-3.4,13.6-5.1l12.4,8.9c-6.3,7-15.4,10.7-26.5,10.7
		c-11.2,0-20.1-3.4-26.8-10.1c-6.7-6.7-10.1-15.2-10.1-25.5c0-10.1,3.4-18.6,10-25.3c6.6-6.9,15.2-10.2,25.6-10.2
		c9.8,0,18.1,3.4,24.4,10.2c6.5,6.9,9.7,15.2,9.7,25.3c0,2.3-0.3,4.6-0.7,7.1H1038.9z M1073,399.1c-1.3-11.6-9.9-15.2-16.7-15.2
		c-7.7,0-16.4,3.6-17.7,15.2H1073z"/>
	<path class="st1" d="M984.6,390.2h-15.2v27.6c0,7.3,5.3,7.4,15.2,6.9v15.8c-23.9,2.7-32.6-4.2-32.6-22.6v-27.6h-11.7v-17.6H952
		v-17.6h17.4v17.6h15.2V390.2z"/>
</g>
</svg>
