<?xml version="1.0" encoding="UTF-8" standalone="no"?>
<!-- Generator: Adobe Illustrator 18.0.0, SVG Export Plug-In . SVG Version: 6.00 Build 0)  -->

<svg
   xmlns:dc="http://purl.org/dc/elements/1.1/"
   xmlns:cc="http://creativecommons.org/ns#"
   xmlns:rdf="http://www.w3.org/1999/02/22-rdf-syntax-ns#"
   xmlns:svg="http://www.w3.org/2000/svg"
   xmlns="http://www.w3.org/2000/svg"
   xmlns:sodipodi="http://sodipodi.sourceforge.net/DTD/sodipodi-0.dtd"
   xmlns:inkscape="http://www.inkscape.org/namespaces/inkscape"
   version="1.1"
   id="Layer_1"
   x="0px"
   y="0px"
   width="351.86533"
   height="192.05264"
   viewBox="0 0 351.86533 192.05264"
   enable-background="new 0 0 324 117"
   xml:space="preserve"
   sodipodi:docname="zenvia.svg"
   inkscape:version="0.92.1 r15371"><metadata
     id="metadata6496"><rdf:RDF><cc:Work
         rdf:about=""><dc:format>image/svg+xml</dc:format><dc:type
           rdf:resource="http://purl.org/dc/dcmitype/StillImage" /><dc:title></dc:title></cc:Work></rdf:RDF></metadata><defs
     id="defs6494" /><sodipodi:namedview
     pagecolor="#ffffff"
     bordercolor="#666666"
     borderopacity="1"
     objecttolerance="10"
     gridtolerance="10"
     guidetolerance="10"
     inkscape:pageopacity="0"
     inkscape:pageshadow="2"
     inkscape:window-width="1920"
     inkscape:window-height="1017"
     id="namedview6492"
     showgrid="false"
     inkscape:zoom="1.1728395"
     inkscape:cx="-1.9385854"
     inkscape:cy="19.427231"
     inkscape:window-x="-8"
     inkscape:window-y="-8"
     inkscape:window-maximized="1"
     inkscape:current-layer="g6489" /><g
     id="g6489"
     transform="translate(13.930342,37.526321)"><g
       id="g6471"
       transform="translate(0,-30)"><rect
         x="279"
         y="45"
         width="18"
         height="27"
         id="rect6459"
         style="fill:#33bbed" /><rect
         x="252"
         y="27"
         width="27"
         height="18"
         id="rect6461"
         style="fill:#33bbed" /><rect
         x="279"
         y="27"
         width="18"
         height="18"
         id="rect6463"
         style="fill:#009bdf" /><rect
         x="306"
         y="18"
         width="18"
         height="27"
         id="rect6465"
         style="fill:#a05da5" /><rect
         x="279"
         y="0"
         width="27"
         height="18"
         id="rect6467"
         style="fill:#a05da5" /><rect
         x="306"
         y="0"
         width="18"
         height="18"
         id="rect6469"
         style="fill:#6f2c91" /></g><g
       id="g6487"
       transform="translate(0,-30)"><path
         d="m 117.4,63 c 12.9,0 18.6,5.3 21.2,9.7 2.9,4.6 3.8,10.6 3.8,16.2 V 117 H 127.6 V 94.8 c 0,-4.8 -0.1,-10.9 -1.3,-14.7 -1.2,-3.7 -4.1,-6.5 -10.8,-6.5 h -6.4 V 117 H 94.3 V 63 Z"
         id="path6473"
         inkscape:connector-curvature="0" /><path
         d="M 213.2,58.5 V 45 h -14.7 v 9.8 c 0,2 1.6,3.7 3.7,3.7 z"
         id="path6475"
         inkscape:connector-curvature="0" /><path
         d="M 213.2,117 V 66.7 c 0,-2 -1.6,-3.7 -3.7,-3.7 h -11.1 v 54 z"
         id="path6477"
         inkscape:connector-curvature="0" /><path
         d="m 169,95.8 10.5,-29.3 c 0.7,-1.9 2.9,-3.5 4.9,-3.5 h 10.4 l -20.5,54 H 163.2 L 141.4,63 h 12.3 c 2,0 4.2,1.6 4.9,3.5 z"
         id="path6479"
         inkscape:connector-curvature="0" /><path
         d="m 83.8,69.1 c -5.1,-6.6 -14.4,-7 -20.4,-6.4 -5.9,0.6 -12.1,3.3 -15.6,9.1 -3.5,5.5 -4.5,12.7 -4.2,19.4 0.1,6.4 1.9,13.3 5.9,18.1 4.5,5.5 11.6,7.7 21.8,7.7 h 15 l -1,-7.8 c -0.2,-1.6 -1.6,-2.9 -3.2,-2.9 h -8.7 c -10,0 -14.6,-3.8 -14.8,-11.7 h 30.3 c 0,-11.4 0,-18.9 -5.1,-25.5 M 58.5,85.2 c -0.1,-3.3 0.6,-6.8 2.2,-9.4 3,-5 10.4,-4.6 12.8,0.7 1.4,2.7 1.8,5.8 1.9,8.7 z"
         id="path6481"
         inkscape:connector-curvature="0" /><path
         d="M 40.9,73.8 C 45,67.9 42.9,63 36.2,63 H 24 1 l 1,7.7 c 0.2,1.6 1.6,2.9 3.2,2.9 h 18.4 c 0,1.1 -0.6,2 -1.1,2.7 C 22.1,77 2.1,106.2 2.1,106.2 -2,112.1 0.1,117 6.8,117 h 12.1 24.4 l -1,-7.8 c -0.2,-1.6 -1.6,-2.9 -3.2,-2.9 H 19.4 c 0,-1.1 0.7,-2.1 1.1,-2.7 0.4,-0.6 20.4,-29.8 20.4,-29.8"
         id="path6483"
         inkscape:connector-curvature="0" /><path
         d="M 254.9,68.6 C 250.1,64 244.9,63 239.7,63 H 224 l 1,7.7 c 0.2,1.6 1.7,2.9 3.2,2.9 h 11.2 c 2.9,0 5.4,1.3 6.7,3.6 1.1,2.2 1.4,4.8 1.3,7.2 -3.8,-0.3 -7.6,-0.2 -11.4,-0.1 -4.7,0.3 -9.9,1 -13.6,4.9 -3.4,3.7 -4.2,9.6 -3.6,14.7 0.4,4 2.4,7.9 5.5,9.9 4.5,2.9 10.2,3.2 14.9,3.2 H 261 V 84.6 c 0,-5.8 -1.7,-11.9 -6.1,-16 m -7.5,37.7 h -7.2 c -3.6,0 -6.1,-0.7 -7.1,-3.1 -0.7,-2.2 -0.8,-4.7 -0.1,-6.8 0.8,-2.3 3.1,-3.2 5.1,-3.3 3,-0.2 9.3,-0.1 9.3,-0.1 z"
         id="path6485"
         inkscape:connector-curvature="0" /></g></g></svg>