<?xml version="1.0" encoding="UTF-8" standalone="no"?>
<svg
   xmlns:dc="http://purl.org/dc/elements/1.1/"
   xmlns:cc="http://creativecommons.org/ns#"
   xmlns:rdf="http://www.w3.org/1999/02/22-rdf-syntax-ns#"
   xmlns:svg="http://www.w3.org/2000/svg"
   xmlns="http://www.w3.org/2000/svg"
   xmlns:sodipodi="http://sodipodi.sourceforge.net/DTD/sodipodi-0.dtd"
   xmlns:inkscape="http://www.inkscape.org/namespaces/inkscape"
   version="1.1"
   width="652.31348"
   height="192.44643"
   id="svg10"
   viewBox="0 0 652.31348 192.44643"
   sodipodi:docname="interop.svg"
   inkscape:version="0.92.1 r15371">
  <metadata
     id="metadata16">
    <rdf:RDF>
      <cc:Work
         rdf:about="">
        <dc:format>image/svg+xml</dc:format>
        <dc:type
           rdf:resource="http://purl.org/dc/dcmitype/StillImage" />
        <dc:title></dc:title>
      </cc:Work>
    </rdf:RDF>
  </metadata>
  <defs
     id="defs14" />
  <sodipodi:namedview
     pagecolor="#ffffff"
     bordercolor="#666666"
     borderopacity="1"
     objecttolerance="10"
     gridtolerance="10"
     guidetolerance="10"
     inkscape:pageopacity="0"
     inkscape:pageshadow="2"
     inkscape:window-width="1920"
     inkscape:window-height="1017"
     id="namedview12"
     showgrid="false"
     fit-margin-top="0"
     fit-margin-left="0"
     fit-margin-right="0"
     fit-margin-bottom="0"
     inkscape:zoom="0.39645504"
     inkscape:cx="305.33857"
     inkscape:cy="47.821913"
     inkscape:window-x="892"
     inkscape:window-y="-8"
     inkscape:window-maximized="1"
     inkscape:current-layer="svg10" />
  <g
     id="Layer1000"
     transform="translate(-100.60632,-171.01327)">
    <path
       d="m 627.7881,209.6721 c 31.5031,0 39.8712,16.8537 39.8712,51.7569 0,34.902 -6.8423,51.7563 -39.8712,51.7563 -33.0306,0 -39.8711,-15.0802 -39.8711,-51.7563 0,-36.6773 8.3681,-51.7569 39.8711,-51.7569 z m 0,13.2808 c 19.2349,0 22.7629,6.9229 22.7629,38.4761 0,31.5532 -3.907,38.4744 -22.7629,38.4744 -18.8564,0 -22.7611,-6.7139 -22.7611,-38.4744 0,-31.7611 3.5274,-38.4761 22.7611,-38.4761 z m -88.4169,89.21 h 15.4235 v -63.2521 h 25.1504 c 0.5979,-2.399 1.3047,-6.0612 0.1342,-9.8 -2.6375,-8.424 -24.1769,-1.2079 -34.7332,2.554 -6.7283,2.3973 -5.9749,5.9765 -5.9749,9.2655 z m -189.614,0 h 15.4137 v -63.2371 h 22.4155 c 3.0108,0 6.2819,0.3381 6.2819,6.488 v 56.7491 h 15.4431 v -57.0515 c 0,-6.4776 0.1342,-13.3614 -5.2474,-17.8634 -6.7685,-5.6621 -41.1821,2.5045 -51.6676,6.4552 -2.9128,1.0973 -2.6392,3.9387 -2.6392,7.2271 z m 73.5077,-98.8885 15.4143,-6.2438 v 29.7509 l 9.9072,-1.2857 c 5.1022,-0.6618 9.2528,-0.4942 10.2424,2.6669 1.171,3.74 0.4637,8.3036 -0.1348,10.7026 h -20.0148 v 44.9509 c 0,2.9457 1.4037,4.9795 4.1639,4.9795 h 16.5928 c 0.0121,5.3286 0.8266,13.3672 -8.36,13.3672 h -12.3396 c -14.5797,0 -15.4714,-11.2406 -15.4714,-17.5501 z m 57.3597,53.5736 h 32.9085 c 0.2644,-14.7738 -3.7503,-19.4261 -15.8083,-19.1289 -9.8887,0.2436 -17.1002,5.4132 -17.1002,19.1289 z m 32.7219,45.0886 -7.9016,0.7107 c -33.0721,2.9757 -39.9311,-11.5274 -40.2179,-39.6448 -0.1889,-18.4999 5.2652,-37.3909 31.8412,-37.9197 26.1826,-0.5207 33.67,9.9418 30.7848,43.5703 h -46.9496 c -0.1872,12.4479 5.6355,20.9485 24.492,20.5729 l 17.841,-0.3554 c 0.2655,5.2842 -0.5276,12.2239 -9.8899,13.066 z M 320.0852,211.0142 h 15.6804 v 101.1487 h -15.6804 z m 357.0355,134.4455 h 15.2536 v -35.1198 c 40.1384,9.4786 45.4111,-11.1346 45.5442,-38.9922 0.1739,-36.3444 -16.9989,-43.8231 -54.7406,-30.373 -6.821,2.4307 -6.0572,6.0584 -6.0572,9.3928 z m 15.2536,-49.3642 v -45.7516 c 5.6407,-1.3041 16.8934,-2.1093 21.9276,-1.4262 6.2997,0.8548 7.9419,10.9348 7.8434,21.2814 -0.2212,23.2923 -2.4399,32.3441 -29.771,25.8964 z"
       style="fill:#004589;fill-rule:evenodd"
       id="path2"
       inkscape:connector-curvature="0" />
    <g
       id="Layer1001">
      <path
         d="m 190.692,189.2075 c 28.4122,-0.7498 56.5906,0.6925 84.5734,3.9594 4.824,0.563 8.0254,3.9957 7.9956,8.8268 -0.2367,38.8797 -4.1431,77.7592 -12.4792,116.6397 -1.0349,4.8277 -4.9399,8.2937 -9.8844,8.8269 -23.5378,2.5398 -46.9417,3.8284 -70.2054,3.8052 v -39.5493 c 3.7202,6.3298 16.9826,9.1162 25.1776,7.388 15.6118,-3.2928 21.4384,-15.6583 22.0113,-36.4133 1.2172,-44.0476 -33.5537,-45.597 -47.1889,-31.9513 z"
         style="fill:#d5b37e;fill-rule:evenodd"
         id="path4"
         inkscape:connector-curvature="0" />
      <path
         d="m 137.9716,193.1669 c 13.8824,-1.7348 27.7032,-2.9026 41.4688,-3.5475 v 44.1655 c 0,8.7576 3.841,9.208 7.3834,9.0615 3.6176,-0.1503 6.2502,-1.8513 8.0881,-3.5881 6.74,-6.3689 13.7053,-5.6033 19.584,-4.3988 8.7197,1.7861 12.5088,13.6961 12.0575,26.598 -0.3589,10.2807 -2.2964,25.2544 -16.8781,25.8239 -6.4162,0.2506 -12.5736,-1.218 -16.2246,-8.314 -2.433,-4.7299 -4.2021,-8.6913 -7.5252,-8.6162 -3.4384,0.0777 -6.4851,0.6299 -6.4851,7.0829 v 53.7174 c -18.7055,-0.3608 -37.3186,-1.58 -55.8368,-3.6912 -4.8266,-0.55 -8.0796,-3.9907 -7.9957,-8.8269 0.6721,-38.8802 4.6074,-77.7602 12.4792,-116.6397 0.9786,-4.8336 4.9414,-8.2091 9.8845,-8.8268 z"
         style="fill:#004589;fill-rule:evenodd"
         id="path6"
         inkscape:connector-curvature="0" />
    </g>
  </g>
</svg>
