<?xml version="1.0" encoding="UTF-8" standalone="no"?>
<!-- Created with Inkscape (http://www.inkscape.org/) -->

<svg
   xmlns:dc="http://purl.org/dc/elements/1.1/"
   xmlns:cc="http://creativecommons.org/ns#"
   xmlns:rdf="http://www.w3.org/1999/02/22-rdf-syntax-ns#"
   xmlns:svg="http://www.w3.org/2000/svg"
   xmlns="http://www.w3.org/2000/svg"
   xmlns:sodipodi="http://sodipodi.sourceforge.net/DTD/sodipodi-0.dtd"
   xmlns:inkscape="http://www.inkscape.org/namespaces/inkscape"
   version="1.1"
   id="svg2"
   xml:space="preserve"
   width="4024.8933"
   height="1603.7733"
   viewBox="0 0 4024.8933 1603.7733"
   sodipodi:docname="Neogrid.svg"
   inkscape:version="0.92.3 (2405546, 2018-03-11)"><metadata
     id="metadata8"><rdf:RDF><cc:Work
         rdf:about=""><dc:format>image/svg+xml</dc:format><dc:type
           rdf:resource="http://purl.org/dc/dcmitype/StillImage" /><dc:title></dc:title></cc:Work></rdf:RDF></metadata><defs
     id="defs6"><clipPath
       clipPathUnits="userSpaceOnUse"
       id="clipPath18"><path
         d="M 0.244,0.208 H 3018.667 V 1201.382 H 0.244 Z"
         id="path16"
         inkscape:connector-curvature="0" /></clipPath></defs><sodipodi:namedview
     pagecolor="#ffffff"
     bordercolor="#666666"
     borderopacity="1"
     objecttolerance="10"
     gridtolerance="10"
     guidetolerance="10"
     inkscape:pageopacity="0"
     inkscape:pageshadow="2"
     inkscape:window-width="1920"
     inkscape:window-height="1017"
     id="namedview4"
     showgrid="false"
     inkscape:zoom="0.12124545"
     inkscape:cx="2012.4467"
     inkscape:cy="801.88666"
     inkscape:window-x="892"
     inkscape:window-y="-8"
     inkscape:window-maximized="1"
     inkscape:current-layer="g10" /><g
     id="g10"
     inkscape:groupmode="layer"
     inkscape:label="Neogrid_Colorido_CMYK_Positivo_Solido"
     transform="matrix(1.3333333,0,0,-1.3333333,0,1603.7733)"><g
       id="g12"><g
         id="g14"
         clip-path="url(#clipPath18)"><g
           id="g20"
           transform="translate(1555.2969,584.0901)"><path
             d="m 0,0 c -1.534,18.082 -8.201,32.566 -20.001,43.451 -11.805,10.877 -26.137,16.323 -42.987,16.323 -8.283,0 -16.022,-1.459 -23.225,-4.368 -7.203,-2.917 -13.564,-6.975 -19.077,-12.184 -5.52,-5.217 -10.047,-11.495 -13.564,-18.853 -3.53,-7.356 -5.601,-15.482 -6.211,-24.369 z m -62.533,-145.297 c -19.308,0 -36.782,3.298 -52.417,9.885 -15.629,6.589 -28.969,15.556 -40.001,26.899 -11.032,11.336 -19.538,24.521 -25.52,39.542 -5.974,15.016 -8.967,30.807 -8.967,47.36 0,17.165 2.912,33.336 8.737,48.508 5.818,15.175 14.257,28.509 25.289,40.004 11.038,11.495 24.44,20.612 40.231,27.358 15.785,6.738 33.49,10.115 53.11,10.115 19.613,0 37.163,-3.377 52.647,-10.115 C 6.049,87.513 19.233,78.469 30.122,67.131 40.998,55.786 49.273,42.604 54.949,27.588 c 5.669,-15.024 8.506,-30.656 8.506,-46.9 0,-3.988 -0.081,-7.817 -0.23,-11.495 -0.156,-3.677 -0.537,-6.746 -1.148,-9.195 h -186.22 c 0.916,-9.506 3.218,-17.934 6.898,-25.289 3.68,-7.357 8.425,-13.644 14.25,-18.853 5.818,-5.215 12.417,-9.196 19.775,-11.955 7.354,-2.758 15.012,-4.138 22.989,-4.138 12.253,0 23.829,2.989 34.711,8.967 10.883,5.977 18.317,13.865 22.302,23.679 L 49.66,-82.304 c -8.892,-18.393 -23.068,-33.495 -42.532,-45.291 -19.47,-11.803 -42.689,-17.702 -69.661,-17.702"
             style="fill:#18314e;fill-opacity:1;fill-rule:nonzero;stroke:none"
             id="path22"
             inkscape:connector-curvature="0" /></g><g
           id="g24"
           transform="translate(1704.5889,563.3987)"><path
             d="m 0,0 c 0,-10.732 1.609,-20.462 4.827,-29.197 3.218,-8.736 7.658,-16.323 13.333,-22.76 5.669,-6.438 12.336,-11.424 20.001,-14.944 7.658,-3.527 15.934,-5.287 24.833,-5.287 8.887,0 17.163,1.76 24.827,5.287 7.659,3.52 14.325,8.506 20.001,14.944 5.669,6.437 10.116,14.096 13.333,22.99 3.218,8.888 4.827,18.695 4.827,29.427 0,10.418 -1.609,20.074 -4.827,28.967 -3.217,8.886 -7.664,16.553 -13.333,22.991 -5.676,6.437 -12.342,11.415 -20.001,14.943 -7.664,3.521 -15.94,5.287 -24.827,5.287 -8.899,0 -17.175,-1.839 -24.833,-5.517 C 30.496,63.453 23.829,58.396 18.16,51.958 12.485,45.521 8.045,37.855 4.827,28.967 1.609,20.074 0,10.418 0,0 m 62.994,-124.605 c -19.626,0 -37.244,3.377 -52.879,10.115 -15.635,6.739 -28.892,15.862 -39.775,27.358 -10.883,11.495 -19.239,24.751 -25.059,39.773 -5.824,15.015 -8.737,30.806 -8.737,47.359 0,16.854 2.913,32.798 8.737,47.819 5.82,15.017 14.176,28.279 25.059,39.774 10.883,11.495 24.14,20.611 39.775,27.357 15.635,6.738 33.253,10.115 52.879,10.115 19.614,0 37.163,-3.377 52.642,-10.115 15.479,-6.746 28.663,-15.862 39.546,-27.357 10.876,-11.495 19.233,-24.757 25.057,-39.774 5.819,-15.021 8.738,-30.965 8.738,-47.819 0,-16.553 -2.919,-32.344 -8.738,-47.359 -5.824,-15.022 -14.1,-28.278 -24.827,-39.773 -10.732,-11.496 -23.91,-20.619 -39.545,-27.358 -15.629,-6.738 -33.259,-10.115 -52.873,-10.115"
             style="fill:#18314e;fill-opacity:1;fill-rule:nonzero;stroke:none"
             id="path26"
             inkscape:connector-curvature="0" /></g><g
           id="g28"
           transform="translate(2045.1475,491.2102)"><path
             d="m 0,0 c 6.741,0 13.178,1.07 19.314,3.219 6.13,2.14 11.799,5.057 17.013,8.737 5.207,3.678 9.804,7.967 13.795,12.873 3.979,4.9 7.047,10.115 9.192,15.634 v 57.474 c -5.512,14.096 -14.181,25.441 -25.974,34.027 -11.806,8.578 -24.142,12.873 -37.014,12.873 -9.51,0 -18.092,-2.068 -25.75,-6.207 -7.664,-4.138 -14.257,-9.655 -19.769,-16.553 -5.52,-6.897 -9.736,-14.793 -12.648,-23.68 -2.919,-8.894 -4.365,-18.09 -4.365,-27.588 0,-9.813 1.678,-19.008 5.058,-27.587 3.367,-8.586 8.044,-16.093 14.019,-22.531 C -41.148,14.254 -34.183,9.196 -26.206,5.519 -18.242,1.839 -9.505,0 0,0 m -20.687,-49.199 c -16.251,0 -30.963,3.22 -44.141,9.656 -13.184,6.438 -24.603,15.246 -34.257,26.439 -9.654,11.187 -17.094,24.14 -22.302,38.853 -5.213,14.714 -7.813,30.347 -7.813,46.899 0,17.474 2.756,33.716 8.275,48.74 5.52,15.014 13.178,28.198 22.987,39.543 9.811,11.336 21.616,20.23 35.405,26.668 13.795,6.437 28.969,9.655 45.519,9.655 18.698,0 35.099,-4.217 49.201,-12.644 14.1,-8.435 25.75,-19.7 34.948,-33.796 v 42.302 h 53.796 v -229.44 c 0,-17.774 -3.38,-33.717 -10.116,-47.82 -6.748,-14.095 -16.021,-26.05 -27.821,-35.864 -11.799,-9.806 -25.906,-17.313 -42.302,-22.53 -16.401,-5.209 -34.25,-7.816 -53.564,-7.816 -26.368,0 -48.507,4.367 -66.443,13.104 -17.93,8.736 -33.334,21.078 -46.206,37.014 l 33.564,32.646 c 9.193,-11.338 20.762,-20.231 34.713,-26.669 13.944,-6.437 28.737,-9.655 44.372,-9.655 9.498,0 18.622,1.307 27.359,3.907 8.738,2.609 16.47,6.668 23.218,12.186 6.742,5.517 12.03,12.573 15.865,21.151 3.83,8.584 5.744,18.699 5.744,30.346 V -5.978 C 51.345,-19.771 40.156,-30.426 25.75,-37.933 11.338,-45.447 -4.135,-49.199 -20.687,-49.199"
             style="fill:#18314e;fill-opacity:1;fill-rule:nonzero;stroke:none"
             id="path30"
             inkscape:connector-curvature="0" /></g><g
           id="g32"
           transform="translate(2349.5791,630.9895)"><path
             d="m 0,0 c -18.703,-0.309 -35.41,-3.908 -50.122,-10.805 -14.712,-6.897 -25.289,-17.244 -31.725,-31.037 v -145.757 h -61.616 V 53.337 h 56.558 V 1.84 c 4.291,8.275 9.348,15.705 15.174,22.3 5.818,6.587 12.104,12.336 18.852,17.242 6.735,4.9 13.565,8.658 20.462,11.266 6.897,2.601 13.564,3.908 20,3.908 h 7.584 c 1.684,0 3.293,-0.159 4.833,-0.46 z"
             style="fill:#18314e;fill-opacity:1;fill-rule:nonzero;stroke:none"
             id="path34"
             inkscape:connector-curvature="0" /></g><g
           id="g36"
           transform="translate(2445.9229,737.9514)"><path
             d="m 0,0 c 0,-19.554 -15.852,-35.405 -35.405,-35.405 -19.554,0 -35.406,15.851 -35.406,35.405 0,19.554 15.852,35.404 35.406,35.404 C -15.852,35.404 0,19.554 0,0 m -66.214,-53.625 h 61.616 v -240.936 h -61.616 z"
             style="fill:#18314e;fill-opacity:1;fill-rule:nonzero;stroke:none"
             id="path38"
             inkscape:connector-curvature="0" /></g><g
           id="g40"
           transform="translate(2601.6621,491.2102)"><path
             d="m 0,0 c 5.818,0 11.793,0.992 17.93,2.989 6.13,1.99 11.799,4.827 17.012,8.507 5.207,3.678 9.885,7.967 14.026,12.873 4.135,4.901 7.278,10.267 9.424,16.094 v 57.474 c -2.457,6.739 -5.907,12.948 -10.347,18.623 -4.446,5.668 -9.504,10.575 -15.173,14.712 -5.675,4.139 -11.649,7.43 -17.93,9.887 -6.286,2.449 -12.492,3.678 -18.622,3.678 -9.199,0 -17.699,-1.997 -25.519,-5.978 -7.815,-3.986 -14.482,-9.424 -20,-16.322 -5.52,-6.897 -9.817,-14.793 -12.872,-23.68 -3.069,-8.894 -4.603,-18.09 -4.603,-27.588 0,-10.116 1.684,-19.468 5.058,-28.047 3.374,-8.586 7.97,-16.093 13.795,-22.531 C -42.003,14.254 -35.024,9.196 -26.898,5.519 -18.778,1.839 -9.816,0 0,0 m -16.097,-52.417 c -16.551,0 -31.881,3.218 -45.974,9.655 -14.108,6.438 -26.212,15.325 -36.327,26.669 -10.117,11.336 -18.012,24.6 -23.681,39.774 -5.675,15.172 -8.506,31.495 -8.506,48.967 0,17.474 2.682,33.716 8.045,48.74 5.363,15.014 12.797,28.198 22.302,39.543 9.498,11.336 20.842,20.23 34.025,26.668 13.178,6.437 27.59,9.655 43.219,9.655 17.78,0 33.795,-4.297 48.052,-12.873 14.256,-8.586 25.363,-19.773 33.334,-33.567 v 126.735 h 61.616 V 22.989 c 0,-6.435 1.072,-11.033 3.218,-13.793 2.138,-2.759 5.818,-4.296 11.032,-4.597 v -52.418 c -10.734,-2.141 -19.464,-3.218 -26.205,-3.218 -11.039,0 -20.082,2.758 -27.129,8.275 -7.054,5.519 -11.032,12.717 -11.955,21.612 L 67.59,-5.978 C 58.697,-21.308 46.667,-32.875 31.494,-40.692 16.32,-48.508 0.461,-52.417 -16.097,-52.417"
             style="fill:#18314e;fill-opacity:1;fill-rule:nonzero;stroke:none"
             id="path42"
             inkscape:connector-curvature="0" /></g><g
           id="g44"
           transform="translate(1273.1411,761.2532)"><path
             d="M 0,0 V -210.544 L -168.035,0 h -53.124 v -318.881 h 66.862 v 205.353 L 7.555,-318.881 H 61.719 V 0 Z"
             style="fill:#18314e;fill-opacity:1;fill-rule:nonzero;stroke:none"
             id="path46"
             inkscape:connector-curvature="0" /></g><g
           id="g48"
           transform="translate(793.0376,828.2815)"><path
             d="m 0,0 -24.567,14.185 c -38.017,-88.393 -89.714,-169.518 -152.484,-240.653 62.77,-71.136 114.467,-152.26 152.484,-240.654 L 0,-452.939 c 56.637,32.701 91.526,93.132 91.526,158.532 V -158.53 C 91.526,-93.13 56.637,-32.698 0,0"
             style="fill:#ee203e;fill-opacity:1;fill-rule:nonzero;stroke:none"
             id="path50"
             inkscape:connector-curvature="0" /></g><g
           id="g52"
           transform="translate(492.7935,485.9866)"><path
             d="m 0,0 c 51.411,-59.128 93.47,-126.587 123.959,-200.062 20.323,3.713 40.168,10.832 58.611,21.48 l 93.107,53.755 C 237.66,-36.434 185.963,44.691 123.193,115.827 85.842,73.501 44.604,34.697 0,0"
             style="fill:#f2527a;fill-opacity:1;fill-rule:nonzero;stroke:none"
             id="path54"
             inkscape:connector-curvature="0" /></g><g
           id="g56"
           transform="translate(615.9863,601.8137)"><path
             d="M 0,0 C 62.77,71.135 114.467,152.26 152.484,240.652 L 59.377,294.407 C 40.934,305.056 21.089,312.173 0.767,315.887 -29.723,242.414 -71.782,174.953 -123.193,115.825 -78.589,81.126 -37.351,42.324 0,0"
             style="fill:#f2527a;fill-opacity:1;fill-rule:nonzero;stroke:none"
             id="path58"
             inkscape:connector-curvature="0" /></g><g
           id="g60"
           transform="translate(348.1182,394.0696)"><path
             d="M 0,0 C 8.209,-6.929 17.025,-13.247 26.516,-18.728 L 144.19,-86.665 c 38.194,-22.052 82.358,-29.17 124.445,-21.48 C 238.146,-34.67 196.086,32.789 144.675,91.917 99.669,56.902 51.234,26.096 0,0"
             style="fill:#f57595;fill-opacity:1;fill-rule:nonzero;stroke:none"
             id="path62"
             inkscape:connector-curvature="0" /></g><g
           id="g64"
           transform="translate(616.7529,917.7004)"><path
             d="m 0,0 c -42.086,7.69 -86.251,0.572 -124.445,-21.479 l -117.674,-67.94 c -9.49,-5.477 -18.307,-11.797 -26.516,-18.726 51.235,-26.095 99.67,-56.902 144.676,-91.917 C -72.548,-140.934 -30.489,-73.473 0,0"
             style="fill:#f57595;fill-opacity:1;fill-rule:nonzero;stroke:none"
             id="path66"
             inkscape:connector-curvature="0" /></g><g
           id="g68"
           transform="translate(492.7935,717.6389)"><path
             d="m 0,0 c -37.727,-43.392 -80.476,-82.297 -127.337,-115.825 46.861,-33.53 89.61,-72.436 127.337,-115.827 44.604,34.697 85.842,73.501 123.193,115.827 C 85.842,-73.501 44.604,-34.699 0,0"
             style="fill:#f57595;fill-opacity:1;fill-rule:nonzero;stroke:none"
             id="path70"
             inkscape:connector-curvature="0" /></g><g
           id="g72"
           transform="translate(365.4565,601.8137)"><path
             d="m 0,0 c -26.216,-18.759 -53.718,-35.829 -82.35,-51.06 v -16.879 c 0,-54.442 24.239,-105.379 65.012,-139.805 51.234,26.096 99.669,56.902 144.675,91.917 C 89.61,-72.436 46.861,-33.53 0,0"
             style="fill:#f8a6b8;fill-opacity:1;fill-rule:nonzero;stroke:none"
             id="path74"
             inkscape:connector-curvature="0" /></g><g
           id="g76"
           transform="translate(492.7935,717.6389)"><path
             d="M 0,0 C -45.006,35.015 -93.441,65.821 -144.675,91.917 -185.448,57.492 -209.687,6.554 -209.687,-47.888 v -16.88 c 28.632,-15.23 56.134,-32.302 82.35,-51.057 C -80.476,-82.297 -37.727,-43.392 0,0"
             style="fill:#f8a6b8;fill-opacity:1;fill-rule:nonzero;stroke:none"
             id="path78"
             inkscape:connector-curvature="0" /></g></g></g></g></svg>