<?xml version="1.0" encoding="utf-8"?>
<!-- Generator: Adobe Illustrator 15.1.0, SVG Export Plug-In . SVG Version: 6.00 Build 0)  -->
<!DOCTYPE svg PUBLIC "-//W3C//DTD SVG 1.1//EN" "http://www.w3.org/Graphics/SVG/1.1/DTD/svg11.dtd">
<svg version="1.1" id="Layer_1" xmlns="http://www.w3.org/2000/svg" xmlns:xlink="http://www.w3.org/1999/xlink" x="0px" y="0px"
	 width="298px" height="109px" viewBox="0 0 298 109" enable-background="new 0 0 298 109" xml:space="preserve">
<g>
	<path fill-rule="evenodd" clip-rule="evenodd" d="M107.876,29.766c0,7.81,0,15.62,0,23.43v0.014v0.006l-0.02,1.293l-0.001,0.063
		l-0.023,0.064c-0.887,2.512-3.093,4.635-5.751,6.188c-3.033,1.771-6.67,2.809-9.593,2.828h-0.003
		c-2.923-0.02-6.559-1.057-9.593-2.828c-2.657-1.553-4.864-3.676-5.751-6.188l-0.023-0.064l-0.001-0.063l-0.02-1.293v-0.006v-0.014
		c0-7.81,0-15.62,0-23.43c2.956,0,5.913,0,8.869,0c0,7.84,0,15.68,0,23.52c0,0.686,0.088,1.682,0.465,2.676
		c0.263,0.695,0.669,1.391,1.286,1.98c0.507,0.484,1.162,0.898,2.003,1.186c0.76,0.258,1.672,0.412,2.765,0.42
		c0.001,0,0.002,0,0.003,0c1.093-0.008,2.004-0.162,2.764-0.42c0.841-0.287,1.497-0.701,2.004-1.186
		c0.617-0.59,1.022-1.285,1.285-1.98c0.377-0.994,0.465-1.99,0.465-2.676c0-7.84,0-15.68,0-23.52
		C101.964,29.766,104.92,29.766,107.876,29.766L107.876,29.766z M139.282,62.549c0-6.918,0.016-13.492,0.016-20.412
		c-2.493-4.607-8.571-4.896-13.031-4.8c-2.799,0.06-5.625,0.454-8.327,1.183c-1.388,0.374-2.591,0.851-3.479,1.437l0,0.001
		l-0.043,0.025l-0.173,0.116v0.212v0.046v22.192v0.086v0.393h0.384h0.083h6.938h0.083h0.384v-0.393v-0.086V41.921
		c1.321-0.704,3.062-0.937,4.557-0.917c2.582,0.035,4.838,1.238,4.736,4.848v16.696v0.086v0.393h0.384h0.083h6.938h0.083h0.384
		v-0.393V62.549L139.282,62.549z M267.327,62.551c0-7.484,0-14.968,0-22.452c0.959-0.635,1.99-1.103,3.082-1.456
		c1.164-0.376,2.468-0.66,3.825-0.857c1.448-0.21,2.956-0.32,4.417-0.333c1.562-0.015,3.674,0.093,5.22,0.309
		c0,1.572,0,2.85,0,4.422c-1.491-0.965-4.284-1.027-6.02-0.923c-0.964,0.058-1.925,0.246-2.706,0.662v20.629v0.084v0.393h-0.384
		h-0.083h-6.885h-0.083h-0.384v-0.393V62.551L267.327,62.551z M261.604,62.039c-2.565,1.209-5.794,1.662-8.627,1.662
		c-2.959,0.004-6.02-0.258-8.556-1.975l-0.001,0.002c-0.727-0.475-1.313-1.129-1.784-1.893c-0.463-0.75-0.813-1.6-1.079-2.486
		c-0.297-0.994-0.494-2.059-0.629-3.117c-0.464-3.644-0.383-7.74,0.918-11.183c1.49-3.948,5.046-5.243,8.88-5.417
		c0.425-0.02,0.88-0.028,1.373-0.028c0.48,0,0.939,0.014,1.374,0.042c3.115,0.199,6.575,1.244,8.182,4.227
		c1.507,2.79,1.183,6.678,1.183,9.705c-4.584,0-9.168,0-13.752,0c0.003,1.908-0.086,4.066,0.786,5.796
		c0.986,1.955,3.294,2.432,5.219,2.34c2.414-0.113,4.601-0.898,6.514-2.395C261.604,58.891,261.604,60.465,261.604,62.039
		L261.604,62.039z M249.085,46.12v1.703h5.775V46.12c0-1.404-0.092-2.724-0.519-3.666c-0.457-1.011-1.314-1.496-2.376-1.496
		c-1.056,0-1.912,0.491-2.365,1.496C249.175,43.396,249.085,44.715,249.085,46.12L249.085,46.12z M232.29,41.506v15.433
		c0,2.174,0.721,2.682,1.845,2.682c0.519,0,1.125-0.09,1.782-0.189h0.002c0.106-0.016,0.181-0.027,0.396-0.059l0.437-0.063v0.451
		c0,0.498,0.001,0.994,0.001,1.492v1.49v0.334l-0.324,0.053l-0.07,0.012c-0.067,0.01-0.14,0.023-0.215,0.035
		c-1.432,0.238-4.043,0.67-6.297,0.473l0,0c-1.861-0.008-3.184-0.664-4.071-1.746c-0.997-1.217-1.418-2.961-1.418-4.914V41.506
		h-9.463v15.433c0,1.633,0.391,2.328,1.034,2.563c0.702,0.254,1.786,0.051,2.996-0.129l0.438-0.064v0.453v2.982v0.334l-0.324,0.053
		l-0.069,0.012c-0.534,0.086-0.167,0.027-0.32,0.053c-1.437,0.24-3.869,0.648-6.07,0.455l0,0c-2.286-0.008-3.692-0.732-4.536-1.945
		c-0.83-1.193-1.081-2.834-1.081-4.715V41.506c-1.621,0-3.243,0-4.864,0v-3.143l4.832,0.005l0.012-8.587c1.817,0,6.136,0,7.953,0
		c0,2.814-0.001,5.772-0.001,8.586l4.943-0.003l4.569,0.004v-8.591c1.815,0,6.069,0.003,7.884,0.003c0,2.813-0.001,5.77-0.001,8.583
		h7.118c0,1.391,0,1.751,0,3.143H232.29L232.29,41.506z M190.338,29.916c2.626,0,5.253,0,7.88,0c0,2.071,0,3.68,0,5.751
		c-2.627,0-5.254,0-7.88,0C190.338,33.596,190.338,31.987,190.338,29.916L190.338,29.916z M190.338,38.383c2.626,0,5.253,0,7.88,0
		c0,8.215,0,16.43,0,24.645c-2.627,0-5.254,0-7.88,0C190.338,54.813,190.338,46.598,190.338,38.383L190.338,38.383z M172.918,29.954
		c1.889,0,3.639,0.182,5.172,0.543c1.516,0.357,2.821,0.891,3.843,1.598c1.188,0.822,1.99,1.81,2.51,2.926
		c0.516,1.107,0.747,2.334,0.796,3.646c0.044,1.186-0.191,2.267-0.627,3.209c-0.474,1.029-1.185,1.891-2.028,2.545
		c-0.693,0.539-1.404,1-2.227,1.381c-0.689,0.321-1.456,0.582-2.354,0.784l8.287,16.442c-2.886,0-5.772,0-8.658,0l-8.549-17.518
		c1.163,0.033,2.316,0.061,3.47-0.16c1.083-0.208,2.244-0.636,3.227-1.496c0.62-0.542,1.094-1.229,1.411-2.101
		c0.324-0.89,0.487-1.98,0.477-3.308c-0.009-1.167-0.176-2.146-0.56-2.956c-0.375-0.794-0.967-1.438-1.832-1.949
		c-1.22-0.722-3.221-0.701-5.576-0.676c-0.341,0.003-0.689,0.007-1.046,0.009h-0.002l0,0c0,10.051,0,20.104,0,30.155h-7.709
		l-0.01-33.074H172.918L172.918,29.954z M145.787,29.916c2.626,0,5.254,0,7.88,0c0,1.917,0,3.834,0,5.751c-2.626,0-5.253,0-7.88,0
		C145.787,33.75,145.787,31.833,145.787,29.916L145.787,29.916z M145.787,62.549c0-8.055,0-16.11,0-24.166c2.626,0,5.254,0,7.88,0
		c0,8.055,0,16.111,0,24.166v0.086v0.393h-0.384H153.2h-6.946h-0.083h-0.384v-0.393V62.549L145.787,62.549z"/>
	<path fill-rule="evenodd" clip-rule="evenodd" fill="#E30613" d="M18,18h14.827c4.705,0,8.702,0.933,11.244,2.779
		c2.881,2.092,3.89,5.008,4.009,8.389c0.111,3.141-1.245,5.683-3.199,7.273c-1.724,1.403-3.514,2.392-6.289,2.945l10.553,21.957
		h-9.958L28.729,38.871c1.821,0.053,5.407,0.072,8.071-2.371c1.708-1.566,2.613-3.967,2.585-7.652
		c-0.025-3.276-0.913-5.543-3.301-7.023c-1.915-1.187-5.054-0.982-8.711-0.965h-0.491v29.383c0,4.057,1.26,7.438,3.3,10.069
		c3.4,4.385,8.968,6.689,14.481,6.586c2.746-0.053,5.477-0.709,7.921-1.922c1.663-0.824,3.193-1.877,4.503-3.205l0.394-0.439h-4.687
		L42.093,39.61c5.573-0.944,9.621-5.375,9.398-11.123C51.239,21.962,47.42,19.159,40.993,18h4.081c4.051,0,7.83,0.654,10.497,2.823
		c2.235,1.818,3.394,3.35,3.757,7.318c0.292,3.188-0.558,6.112-2.681,8.167c-1.273,1.233-2.61,2.218-4.989,2.819l8.909,17.188
		l0.092-0.248c0.625-1.75,0.973-3.604,0.973-5.735V18h8.883l-0.014,36.537c-2.172,4.648-6.028,9.748-10.902,12.352
		c-4.437,2.371-9.718,3.666-15.34,3.465c-6.588,0-12.388-1.752-17.073-4.748c-3.882-2.482-7-7.014-9.169-10.912L18,18L18,18z"/>
	<path d="M18.377,86.459V74.891h2.355v9.604h5.855v1.965H18.377L18.377,86.459z M29.923,80.588l-2.029-0.367
		c0.228-0.816,0.619-1.42,1.176-1.814c0.56-0.391,1.385-0.588,2.482-0.588c1,0,1.741,0.119,2.23,0.355
		c0.486,0.236,0.831,0.535,1.029,0.898c0.198,0.363,0.299,1.029,0.299,2.002l-0.025,2.609c0,0.742,0.036,1.291,0.109,1.645
		c0.07,0.35,0.207,0.73,0.402,1.131h-2.213c-0.057-0.148-0.13-0.369-0.215-0.66c-0.035-0.133-0.062-0.219-0.079-0.262
		c-0.383,0.371-0.791,0.648-1.225,0.836c-0.435,0.184-0.898,0.277-1.393,0.277c-0.869,0-1.556-0.236-2.056-0.707
		c-0.502-0.473-0.752-1.07-0.752-1.793c0-0.475,0.114-0.9,0.342-1.275c0.229-0.375,0.549-0.66,0.959-0.859
		c0.41-0.197,1.005-0.371,1.779-0.521c1.043-0.195,1.768-0.379,2.17-0.549v-0.221c0-0.434-0.106-0.736-0.318-0.922
		c-0.211-0.182-0.611-0.273-1.2-0.273c-0.399,0-0.709,0.078-0.932,0.236C30.24,79.92,30.061,80.193,29.923,80.588L29.923,80.588z
		 M32.913,82.402c-0.286,0.094-0.739,0.209-1.361,0.342c-0.619,0.133-1.024,0.264-1.217,0.389c-0.291,0.209-0.438,0.471-0.438,0.787
		c0,0.314,0.117,0.584,0.351,0.813c0.233,0.229,0.53,0.342,0.891,0.342c0.405,0,0.788-0.133,1.154-0.396
		c0.272-0.201,0.448-0.447,0.533-0.74c0.06-0.191,0.087-0.555,0.087-1.09V82.402L32.913,82.402z M42.877,86.459v-1.266
		c-0.31,0.451-0.714,0.807-1.213,1.068c-0.503,0.258-1.033,0.389-1.589,0.389c-0.567,0-1.076-0.125-1.526-0.373
		c-0.451-0.25-0.777-0.6-0.98-1.051c-0.201-0.451-0.301-1.076-0.301-1.871V78.01h2.235v3.881c0,1.189,0.041,1.918,0.125,2.188
		c0.082,0.266,0.231,0.477,0.448,0.635s0.495,0.234,0.829,0.234c0.383,0,0.725-0.104,1.026-0.313
		c0.302-0.213,0.508-0.471,0.619-0.779c0.112-0.313,0.168-1.074,0.168-2.281V78.01h2.235v8.449H42.877L42.877,86.459z M49.41,86.459
		h-2.236V78.01h2.075v1.201c0.356-0.568,0.676-0.943,0.958-1.121c0.285-0.18,0.606-0.271,0.967-0.271c0.511,0,1,0.141,1.472,0.422
		l-0.692,1.949c-0.375-0.242-0.725-0.365-1.048-0.365c-0.315,0-0.579,0.084-0.796,0.258c-0.22,0.172-0.388,0.484-0.513,0.936
		s-0.187,1.395-0.187,2.832V86.459L49.41,86.459z M58.502,83.771l2.23,0.371c-0.288,0.818-0.739,1.439-1.358,1.867
		c-0.616,0.428-1.39,0.641-2.319,0.641c-1.469,0-2.556-0.479-3.262-1.439c-0.557-0.77-0.836-1.742-0.836-2.912
		c0-1.4,0.367-2.498,1.1-3.291c0.731-0.793,1.657-1.189,2.776-1.189c1.257,0,2.249,0.414,2.977,1.246
		c0.726,0.83,1.073,2.102,1.043,3.816h-5.603c0.016,0.662,0.195,1.178,0.54,1.545c0.345,0.369,0.777,0.553,1.29,0.553
		c0.351,0,0.644-0.094,0.883-0.285S58.383,84.195,58.502,83.771L58.502,83.771z M58.63,81.512c-0.016-0.65-0.182-1.141-0.5-1.479
		c-0.318-0.336-0.706-0.504-1.163-0.504c-0.489,0-0.891,0.178-1.208,0.535c-0.318,0.352-0.475,0.836-0.47,1.447H58.63L58.63,81.512z
		 M64.344,80.588l-2.029-0.367c0.229-0.816,0.619-1.42,1.176-1.814c0.559-0.391,1.385-0.588,2.482-0.588
		c1,0,1.741,0.119,2.229,0.355c0.486,0.236,0.831,0.535,1.029,0.898s0.299,1.029,0.299,2.002l-0.024,2.609
		c0,0.742,0.036,1.291,0.109,1.645c0.071,0.35,0.207,0.73,0.402,1.131h-2.213c-0.057-0.148-0.131-0.369-0.215-0.66
		c-0.035-0.133-0.063-0.219-0.079-0.262c-0.383,0.371-0.791,0.648-1.225,0.836c-0.435,0.184-0.899,0.277-1.394,0.277
		c-0.869,0-1.556-0.236-2.056-0.707c-0.503-0.473-0.753-1.07-0.753-1.793c0-0.475,0.114-0.9,0.343-1.275
		c0.228-0.375,0.548-0.66,0.958-0.859c0.41-0.197,1.005-0.371,1.779-0.521c1.043-0.195,1.768-0.379,2.17-0.549v-0.221
		c0-0.434-0.106-0.736-0.317-0.922c-0.212-0.182-0.611-0.273-1.201-0.273c-0.399,0-0.708,0.078-0.932,0.236
		C64.662,79.92,64.483,80.193,64.344,80.588L64.344,80.588z M67.334,82.402c-0.285,0.094-0.739,0.209-1.36,0.342
		c-0.619,0.133-1.024,0.264-1.217,0.389c-0.291,0.209-0.438,0.471-0.438,0.787c0,0.314,0.117,0.584,0.351,0.813
		s0.529,0.342,0.891,0.342c0.405,0,0.788-0.133,1.154-0.396c0.272-0.201,0.448-0.447,0.533-0.74c0.06-0.191,0.086-0.555,0.086-1.09
		V82.402L67.334,82.402z M75.61,78.01v1.783h-1.527v3.404c0,0.689,0.014,1.092,0.044,1.207c0.03,0.113,0.095,0.205,0.198,0.281
		c0.103,0.074,0.231,0.111,0.377,0.111c0.209,0,0.508-0.072,0.901-0.215l0.19,1.734c-0.521,0.223-1.108,0.334-1.768,0.334
		c-0.402,0-0.766-0.068-1.089-0.201c-0.323-0.137-0.56-0.313-0.711-0.527c-0.152-0.215-0.255-0.506-0.315-0.871
		c-0.046-0.258-0.07-0.785-0.07-1.576v-3.682h-1.027V78.01h1.027v-1.68l2.243-1.305v2.984H75.61L75.61,78.01z M82.055,83.771
		l2.23,0.371c-0.288,0.818-0.739,1.439-1.358,1.867c-0.616,0.428-1.391,0.641-2.319,0.641c-1.469,0-2.556-0.479-3.262-1.439
		c-0.557-0.77-0.837-1.742-0.837-2.912c0-1.4,0.367-2.498,1.101-3.291c0.73-0.793,1.656-1.189,2.775-1.189
		c1.257,0,2.249,0.414,2.977,1.246c0.725,0.83,1.073,2.102,1.043,3.816h-5.603c0.016,0.662,0.196,1.178,0.541,1.545
		c0.345,0.369,0.777,0.553,1.29,0.553c0.351,0,0.644-0.094,0.883-0.285C81.754,84.502,81.936,84.195,82.055,83.771L82.055,83.771z
		 M82.183,81.512c-0.016-0.65-0.182-1.141-0.5-1.479c-0.318-0.336-0.706-0.504-1.163-0.504c-0.489,0-0.891,0.178-1.208,0.535
		c-0.318,0.352-0.475,0.836-0.47,1.447H82.183L82.183,81.512z M90.697,86.459V74.795h2.354v11.664H90.697L90.697,86.459z
		 M102.968,86.459h-2.235v-4.313c0-0.912-0.049-1.502-0.144-1.771c-0.095-0.266-0.253-0.475-0.468-0.623
		c-0.214-0.146-0.472-0.223-0.774-0.223c-0.388,0-0.736,0.105-1.043,0.316c-0.307,0.215-0.519,0.494-0.633,0.846
		c-0.114,0.35-0.171,0.996-0.171,1.941v3.826h-2.235V78.01h2.075v1.242c0.739-0.957,1.667-1.434,2.787-1.434
		c0.492,0,0.945,0.088,1.353,0.266c0.407,0.18,0.717,0.404,0.926,0.682s0.356,0.59,0.438,0.939c0.084,0.35,0.125,0.85,0.125,1.502
		V86.459L102.968,86.459z M109.108,78.01v1.783h-1.526v3.404c0,0.689,0.014,1.092,0.043,1.207c0.03,0.113,0.095,0.205,0.198,0.281
		c0.103,0.074,0.231,0.111,0.377,0.111c0.209,0,0.508-0.072,0.902-0.215l0.19,1.734c-0.521,0.223-1.108,0.334-1.768,0.334
		c-0.402,0-0.766-0.068-1.089-0.201c-0.323-0.137-0.56-0.313-0.712-0.527s-0.255-0.506-0.315-0.871
		c-0.046-0.258-0.07-0.785-0.07-1.576v-3.682h-1.027V78.01h1.027v-1.68l2.243-1.305v2.984H109.108L109.108,78.01z M115.553,83.771
		l2.23,0.371c-0.288,0.818-0.739,1.439-1.358,1.867c-0.616,0.428-1.391,0.641-2.319,0.641c-1.469,0-2.556-0.479-3.262-1.439
		c-0.557-0.77-0.836-1.742-0.836-2.912c0-1.4,0.367-2.498,1.1-3.291c0.73-0.793,1.656-1.189,2.775-1.189
		c1.258,0,2.249,0.414,2.977,1.246c0.726,0.83,1.073,2.102,1.043,3.816h-5.603c0.016,0.662,0.196,1.178,0.541,1.545
		c0.345,0.369,0.777,0.553,1.29,0.553c0.351,0,0.644-0.094,0.883-0.285C115.252,84.502,115.434,84.195,115.553,83.771
		L115.553,83.771z M115.681,81.512c-0.017-0.65-0.182-1.141-0.5-1.479c-0.318-0.336-0.706-0.504-1.163-0.504
		c-0.489,0-0.891,0.178-1.208,0.535c-0.317,0.352-0.475,0.836-0.47,1.447H115.681L115.681,81.512z M121.865,86.459h-2.235V78.01
		h2.075v1.201c0.355-0.568,0.676-0.943,0.958-1.121c0.285-0.18,0.606-0.271,0.967-0.271c0.511,0,1,0.141,1.472,0.422l-0.692,1.949
		c-0.375-0.242-0.726-0.365-1.048-0.365c-0.315,0-0.579,0.084-0.796,0.258c-0.22,0.172-0.389,0.484-0.514,0.936
		s-0.187,1.395-0.187,2.832V86.459L121.865,86.459z M133.753,86.459h-2.235v-4.313c0-0.912-0.049-1.502-0.144-1.771
		c-0.095-0.266-0.253-0.475-0.468-0.623c-0.214-0.146-0.473-0.223-0.773-0.223c-0.389,0-0.736,0.105-1.043,0.316
		c-0.307,0.215-0.519,0.494-0.633,0.846c-0.114,0.35-0.171,0.996-0.171,1.941v3.826h-2.235V78.01h2.075v1.242
		c0.739-0.957,1.667-1.434,2.787-1.434c0.491,0,0.945,0.088,1.353,0.266c0.407,0.18,0.717,0.404,0.926,0.682
		c0.209,0.277,0.356,0.59,0.438,0.939c0.084,0.35,0.125,0.85,0.125,1.502V86.459L133.753,86.459z M137.691,80.588l-2.029-0.367
		c0.228-0.816,0.619-1.42,1.176-1.814c0.559-0.391,1.385-0.588,2.482-0.588c1,0,1.741,0.119,2.23,0.355
		c0.486,0.236,0.831,0.535,1.029,0.898s0.299,1.029,0.299,2.002l-0.024,2.609c0,0.742,0.035,1.291,0.108,1.645
		c0.071,0.35,0.207,0.73,0.402,1.131h-2.213c-0.057-0.148-0.13-0.369-0.215-0.66c-0.035-0.133-0.062-0.219-0.078-0.262
		c-0.383,0.371-0.791,0.648-1.225,0.836c-0.435,0.184-0.899,0.277-1.393,0.277c-0.87,0-1.557-0.236-2.056-0.707
		c-0.502-0.473-0.752-1.07-0.752-1.793c0-0.475,0.114-0.9,0.342-1.275s0.549-0.66,0.959-0.859c0.41-0.197,1.005-0.371,1.779-0.521
		c1.043-0.195,1.768-0.379,2.17-0.549v-0.221c0-0.434-0.106-0.736-0.318-0.922c-0.212-0.182-0.611-0.273-1.2-0.273
		c-0.399,0-0.709,0.078-0.932,0.236C138.009,79.92,137.83,80.193,137.691,80.588L137.691,80.588z M140.681,82.402
		c-0.285,0.094-0.739,0.209-1.361,0.342c-0.619,0.133-1.023,0.264-1.217,0.389c-0.291,0.209-0.437,0.471-0.437,0.787
		c0,0.314,0.117,0.584,0.35,0.813c0.234,0.229,0.53,0.342,0.891,0.342c0.404,0,0.788-0.133,1.154-0.396
		c0.272-0.201,0.449-0.447,0.533-0.74c0.06-0.191,0.087-0.555,0.087-1.09V82.402L140.681,82.402z M148.957,78.01v1.783h-1.526v3.404
		c0,0.689,0.014,1.092,0.043,1.207c0.03,0.113,0.095,0.205,0.198,0.281c0.103,0.074,0.231,0.111,0.377,0.111
		c0.209,0,0.508-0.072,0.902-0.215l0.19,1.734c-0.522,0.223-1.108,0.334-1.769,0.334c-0.402,0-0.766-0.068-1.089-0.201
		c-0.323-0.137-0.56-0.313-0.711-0.527c-0.152-0.215-0.255-0.506-0.315-0.871c-0.046-0.258-0.07-0.785-0.07-1.576v-3.682h-1.027
		V78.01h1.027v-1.68l2.243-1.305v2.984H148.957L148.957,78.01z M150.51,76.865v-2.07h2.235v2.07H150.51L150.51,76.865z
		 M150.51,86.459V78.01h2.235v8.449H150.51L150.51,86.459z M154.519,82.113c0-0.74,0.185-1.461,0.549-2.156
		c0.366-0.691,0.886-1.225,1.557-1.588c0.671-0.367,1.42-0.551,2.248-0.551c1.276,0,2.325,0.414,3.143,1.246
		c0.817,0.83,1.225,1.879,1.225,3.148c0,1.275-0.412,2.334-1.235,3.176c-0.826,0.844-1.863,1.262-3.115,1.262
		c-0.776,0-1.513-0.174-2.216-0.525c-0.704-0.35-1.239-0.863-1.605-1.539C154.703,83.91,154.519,83.086,154.519,82.113
		L154.519,82.113z M156.811,82.234c0,0.838,0.198,1.479,0.598,1.926c0.396,0.445,0.889,0.668,1.473,0.668
		c0.583,0,1.072-0.223,1.467-0.668c0.396-0.447,0.594-1.092,0.594-1.943c0-0.824-0.198-1.463-0.594-1.908
		c-0.395-0.445-0.884-0.668-1.467-0.668c-0.584,0-1.076,0.223-1.473,0.668C157.009,80.754,156.811,81.396,156.811,82.234
		L156.811,82.234z M172.678,86.459h-2.235v-4.313c0-0.912-0.049-1.502-0.144-1.771c-0.096-0.266-0.253-0.475-0.468-0.623
		c-0.215-0.146-0.473-0.223-0.774-0.223c-0.388,0-0.735,0.105-1.042,0.316c-0.308,0.215-0.52,0.494-0.634,0.846
		c-0.113,0.35-0.171,0.996-0.171,1.941v3.826h-2.235V78.01h2.075v1.242c0.739-0.957,1.668-1.434,2.787-1.434
		c0.491,0,0.944,0.088,1.353,0.266c0.407,0.18,0.717,0.404,0.926,0.682s0.355,0.59,0.438,0.939c0.084,0.35,0.125,0.85,0.125,1.502
		V86.459L172.678,86.459z M176.615,80.588l-2.028-0.367c0.228-0.816,0.619-1.42,1.176-1.814c0.56-0.391,1.385-0.588,2.482-0.588
		c0.999,0,1.741,0.119,2.229,0.355c0.486,0.236,0.831,0.535,1.029,0.898s0.299,1.029,0.299,2.002l-0.024,2.609
		c0,0.742,0.035,1.291,0.108,1.645c0.071,0.35,0.207,0.73,0.402,1.131h-2.214c-0.057-0.148-0.13-0.369-0.214-0.66
		c-0.036-0.133-0.063-0.219-0.079-0.262c-0.383,0.371-0.79,0.648-1.225,0.836c-0.435,0.184-0.899,0.277-1.394,0.277
		c-0.869,0-1.556-0.236-2.056-0.707c-0.503-0.473-0.753-1.07-0.753-1.793c0-0.475,0.114-0.9,0.343-1.275
		c0.228-0.375,0.549-0.66,0.958-0.859c0.41-0.197,1.005-0.371,1.779-0.521c1.043-0.195,1.769-0.379,2.17-0.549v-0.221
		c0-0.434-0.105-0.736-0.317-0.922c-0.212-0.182-0.611-0.273-1.201-0.273c-0.398,0-0.708,0.078-0.931,0.236
		C176.934,79.92,176.754,80.193,176.615,80.588L176.615,80.588z M179.605,82.402c-0.285,0.094-0.738,0.209-1.36,0.342
		c-0.619,0.133-1.024,0.264-1.217,0.389c-0.291,0.209-0.438,0.471-0.438,0.787c0,0.314,0.117,0.584,0.351,0.813
		s0.529,0.342,0.891,0.342c0.404,0,0.788-0.133,1.154-0.396c0.271-0.201,0.448-0.447,0.532-0.74c0.061-0.191,0.087-0.555,0.087-1.09
		V82.402L179.605,82.402z M184.009,86.459V74.795h2.234v11.664H184.009L184.009,86.459z M193.063,74.795h2.354v6.316
		c0,1.002,0.029,1.654,0.087,1.951c0.101,0.477,0.342,0.861,0.72,1.148c0.38,0.291,0.898,0.434,1.557,0.434
		c0.667,0,1.173-0.135,1.512-0.41c0.34-0.271,0.544-0.607,0.611-1.004c0.07-0.398,0.104-1.059,0.104-1.982v-6.453h2.354v6.127
		c0,1.402-0.063,2.391-0.19,2.969c-0.127,0.578-0.36,1.064-0.703,1.463c-0.342,0.396-0.801,0.715-1.371,0.951
		c-0.573,0.236-1.323,0.354-2.246,0.354c-1.114,0-1.958-0.129-2.534-0.387s-1.029-0.592-1.363-1.002s-0.555-0.842-0.66-1.293
		c-0.154-0.668-0.23-1.652-0.23-2.959V74.795L193.063,74.795z M212.518,86.459h-2.235v-4.313c0-0.912-0.049-1.502-0.144-1.771
		c-0.096-0.266-0.253-0.475-0.468-0.623c-0.214-0.146-0.473-0.223-0.773-0.223c-0.389,0-0.736,0.105-1.044,0.316
		c-0.307,0.215-0.519,0.494-0.632,0.846c-0.114,0.35-0.171,0.996-0.171,1.941v3.826h-2.236V78.01h2.075v1.242
		c0.739-0.957,1.668-1.434,2.787-1.434c0.491,0,0.945,0.088,1.353,0.266c0.407,0.18,0.717,0.404,0.926,0.682s0.355,0.59,0.438,0.939
		c0.084,0.35,0.125,0.85,0.125,1.502V86.459L212.518,86.459z M214.785,76.865v-2.07h2.235v2.07H214.785L214.785,76.865z
		 M214.785,86.459V78.01h2.235v8.449H214.785L214.785,86.459z M221.635,86.459l-3.406-8.449h2.347l1.592,4.314l0.462,1.439
		c0.122-0.367,0.201-0.609,0.23-0.727c0.076-0.238,0.155-0.479,0.239-0.713l1.608-4.314h2.3l-3.359,8.449H221.635L221.635,86.459z
		 M233.267,83.771l2.23,0.371c-0.288,0.818-0.739,1.439-1.358,1.867c-0.616,0.428-1.391,0.641-2.319,0.641
		c-1.47,0-2.556-0.479-3.262-1.439c-0.557-0.77-0.837-1.742-0.837-2.912c0-1.4,0.367-2.498,1.101-3.291
		c0.73-0.793,1.656-1.189,2.775-1.189c1.258,0,2.249,0.414,2.977,1.246c0.726,0.83,1.073,2.102,1.043,3.816h-5.603
		c0.016,0.662,0.195,1.178,0.54,1.545c0.345,0.369,0.776,0.553,1.29,0.553c0.351,0,0.644-0.094,0.883-0.285
		S233.147,84.195,233.267,83.771L233.267,83.771z M233.395,81.512c-0.017-0.65-0.182-1.141-0.5-1.479
		c-0.317-0.336-0.706-0.504-1.162-0.504c-0.489,0-0.891,0.178-1.209,0.535c-0.317,0.352-0.475,0.836-0.47,1.447H233.395
		L233.395,81.512z M239.579,86.459h-2.235V78.01h2.075v1.201c0.355-0.568,0.676-0.943,0.958-1.121
		c0.285-0.18,0.606-0.271,0.967-0.271c0.511,0,1,0.141,1.473,0.422l-0.692,1.949c-0.375-0.242-0.726-0.365-1.049-0.365
		c-0.314,0-0.578,0.084-0.796,0.258c-0.22,0.172-0.388,0.484-0.513,0.936s-0.188,1.395-0.188,2.832V86.459L239.579,86.459z
		 M242.993,84.049l2.243-0.344c0.095,0.436,0.288,0.766,0.581,0.992c0.291,0.225,0.698,0.34,1.225,0.34
		c0.579,0,1.014-0.107,1.304-0.322c0.199-0.146,0.296-0.346,0.296-0.594c0-0.172-0.054-0.313-0.16-0.424
		c-0.111-0.105-0.36-0.203-0.746-0.293c-1.804-0.396-2.947-0.76-3.431-1.09c-0.668-0.455-1.002-1.092-1.002-1.904
		c0-0.73,0.288-1.346,0.866-1.844c0.578-0.5,1.475-0.748,2.688-0.748c1.157,0,2.019,0.189,2.58,0.564
		c0.563,0.377,0.948,0.934,1.16,1.672l-2.107,0.389c-0.09-0.328-0.261-0.58-0.514-0.754c-0.252-0.178-0.611-0.264-1.078-0.264
		c-0.59,0-1.01,0.08-1.266,0.246c-0.168,0.117-0.253,0.27-0.253,0.455c0,0.16,0.073,0.293,0.223,0.404
		c0.201,0.148,0.896,0.357,2.089,0.629c1.189,0.27,2.021,0.602,2.493,0.994c0.468,0.4,0.701,0.953,0.701,1.662
		c0,0.775-0.323,1.443-0.973,2c-0.646,0.557-1.603,0.834-2.871,0.834c-1.151,0-2.061-0.234-2.734-0.701
		C243.637,85.484,243.199,84.85,242.993,84.049L242.993,84.049z M252.844,76.865v-2.07h2.235v2.07H252.844L252.844,76.865z
		 M252.844,86.459V78.01h2.235v8.449H252.844L252.844,86.459z M261.244,78.01v1.783h-1.526v3.404c0,0.689,0.014,1.092,0.043,1.207
		c0.03,0.113,0.096,0.205,0.198,0.281c0.104,0.074,0.231,0.111,0.378,0.111c0.209,0,0.508-0.072,0.901-0.215l0.19,1.734
		c-0.521,0.223-1.108,0.334-1.769,0.334c-0.401,0-0.766-0.068-1.089-0.201c-0.323-0.137-0.56-0.313-0.711-0.527
		c-0.152-0.215-0.256-0.506-0.315-0.871c-0.047-0.258-0.07-0.785-0.07-1.576v-3.682h-1.027V78.01h1.027v-1.68l2.243-1.305v2.984
		H261.244L261.244,78.01z M262.798,76.865v-2.07h2.235v2.07H262.798L262.798,76.865z M262.798,86.459V78.01h2.235v8.449H262.798
		L262.798,86.459z M272.217,83.771l2.229,0.371c-0.288,0.818-0.739,1.439-1.358,1.867c-0.616,0.428-1.391,0.641-2.319,0.641
		c-1.469,0-2.556-0.479-3.262-1.439c-0.557-0.77-0.837-1.742-0.837-2.912c0-1.4,0.367-2.498,1.101-3.291
		c0.73-0.793,1.656-1.189,2.775-1.189c1.258,0,2.249,0.414,2.977,1.246c0.726,0.83,1.073,2.102,1.043,3.816h-5.603
		c0.016,0.662,0.195,1.178,0.54,1.545c0.345,0.369,0.777,0.553,1.29,0.553c0.351,0,0.644-0.094,0.883-0.285
		S272.097,84.195,272.217,83.771L272.217,83.771z M272.344,81.512c-0.017-0.65-0.182-1.141-0.5-1.479
		c-0.317-0.336-0.706-0.504-1.162-0.504c-0.488,0-0.891,0.178-1.208,0.535c-0.318,0.352-0.476,0.836-0.471,1.447H272.344
		L272.344,81.512z M275.601,84.049l2.243-0.344c0.095,0.436,0.288,0.766,0.581,0.992c0.291,0.225,0.698,0.34,1.226,0.34
		c0.578,0,1.013-0.107,1.303-0.322c0.198-0.146,0.297-0.346,0.297-0.594c0-0.172-0.055-0.313-0.16-0.424
		c-0.112-0.105-0.362-0.203-0.747-0.293c-1.804-0.396-2.947-0.76-3.431-1.09c-0.668-0.455-1.002-1.092-1.002-1.904
		c0-0.73,0.288-1.346,0.866-1.844c0.579-0.5,1.475-0.748,2.688-0.748c1.157,0,2.019,0.189,2.58,0.564
		c0.563,0.377,0.948,0.934,1.16,1.672l-2.107,0.389c-0.09-0.328-0.261-0.58-0.514-0.754c-0.252-0.178-0.611-0.264-1.078-0.264
		c-0.589,0-1.01,0.08-1.266,0.246c-0.168,0.117-0.253,0.27-0.253,0.455c0,0.16,0.074,0.293,0.224,0.404
		c0.2,0.148,0.896,0.357,2.088,0.629c1.189,0.27,2.021,0.602,2.493,0.994c0.468,0.4,0.701,0.953,0.701,1.662
		c0,0.775-0.323,1.443-0.973,2c-0.646,0.557-1.603,0.834-2.87,0.834c-1.152,0-2.062-0.234-2.735-0.701
		C276.244,85.484,275.807,84.85,275.601,84.049L275.601,84.049z"/>
	<path d="M284.933,78.236V76.5h0.738c0.186,0,0.32,0.016,0.404,0.047s0.151,0.086,0.202,0.166s0.075,0.17,0.075,0.273
		c0,0.131-0.038,0.238-0.114,0.322c-0.076,0.086-0.191,0.139-0.344,0.16c0.076,0.045,0.138,0.094,0.188,0.146
		c0.049,0.053,0.114,0.146,0.198,0.281l0.213,0.34h-0.42l-0.253-0.379c-0.09-0.135-0.151-0.221-0.185-0.254
		c-0.033-0.035-0.068-0.059-0.105-0.074c-0.038-0.012-0.096-0.018-0.177-0.018h-0.071v0.725H284.933L284.933,78.236z
		 M285.283,77.234h0.26c0.168,0,0.273-0.008,0.315-0.021s0.074-0.039,0.098-0.074s0.035-0.078,0.035-0.131
		c0-0.057-0.016-0.104-0.046-0.141c-0.031-0.035-0.075-0.059-0.133-0.068c-0.027-0.004-0.113-0.006-0.256-0.006h-0.273V77.234
		L285.283,77.234z"/>
	<path fill-rule="evenodd" clip-rule="evenodd" d="M285.555,75.65c0.959,0,1.736,0.777,1.736,1.736s-0.777,1.738-1.736,1.738
		s-1.737-0.779-1.737-1.738S284.596,75.65,285.555,75.65L285.555,75.65z M285.555,76.105c0.707,0,1.281,0.574,1.281,1.281
		c0,0.709-0.574,1.281-1.281,1.281c-0.708,0-1.282-0.572-1.282-1.281C284.272,76.68,284.847,76.105,285.555,76.105L285.555,76.105z"
		/>
</g>
</svg>
